SplineFontDB: 3.0
FontName: Cantarell-BoldOblique
FullName: Cantarell Bold Oblique
FamilyName: Cantarell
Weight: Bold
Copyright: Copyright (c) 2009-2011 Dave Crossland <dave@lab6.com>
Version: 001.001
ItalicAngle: -16
UnderlinePosition: -233
UnderlineWidth: 116
Ascent: 1514
Descent: 534
LayerCount: 2
Layer: 0 1 "Back"  1
Layer: 1 1 "Fore"  0
XUID: [1021 637 1794106155 7940458]
FSType: 0
OS2Version: 1
OS2_WeightWidthSlopeOnly: 0
OS2_UseTypoMetrics: 1
CreationTime: 1236980653
ModificationTime: 1294750846
PfmFamily: 17
TTFWeight: 700
TTFWidth: 5
LineGap: 211
VLineGap: 0
Panose: 2 0 8 3 0 0 0 0 0 0
OS2TypoAscent: 0
OS2TypoAOffset: 1
OS2TypoDescent: 0
OS2TypoDOffset: 1
OS2TypoLinegap: 211
OS2WinAscent: 0
OS2WinAOffset: 1
OS2WinDescent: 0
OS2WinDOffset: 1
HheadAscent: 0
HheadAOffset: 1
HheadDescent: 0
HheadDOffset: 1
OS2SubXSize: 1331
OS2SubYSize: 1433
OS2SubXOff: 78
OS2SubYOff: 286
OS2SupXSize: 1331
OS2SupYSize: 1433
OS2SupXOff: -270
OS2SupYOff: 983
OS2StrikeYSize: 102
OS2StrikeYPos: 530
OS2FamilyClass: 2050
OS2Vendor: 'ABAT'
OS2CodePages: 00000093.00000000
OS2UnicodeRanges: a000006f.4000000a.00000000.00000000
DEI: 91125
ShortTable: cvt  2
  68
  1297
EndShort
ShortTable: maxp 16
  1
  0
  391
  104
  7
  0
  0
  2
  0
  1
  1
  0
  64
  46
  0
  0
EndShort

StartChar: .notdef
Encoding: 65536 -1 0
Width: 748
Flags: W
LayerCount: 2
Fore
SplineSet
68 0 m 1,0,-1
 68 1365 l 1,1,-1
 612 1365 l 1,2,-1
 612 0 l 1,3,-1
 68 0 l 1,0,-1
136 68 m 1,4,-1
 544 68 l 1,5,-1
 544 1297 l 1,6,-1
 136 1297 l 1,7,-1
 136 68 l 1,4,-1
EndSplineSet
EndChar

StartChar: exclam
Encoding: 33 33 4
Width: 650
Flags: W
LayerCount: 2
Fore
SplineSet
253 241 m 1,0,-1
 535 241 l 1,1,-1
 454 -41 l 1,2,-1
 172 -41 l 1,3,-1
 253 241 l 1,0,-1
618 1462 m 1,4,-1
 870 1462 l 1,5,-1
 571 417 l 1,6,-1
 319 417 l 1,7,-1
 618 1462 l 1,4,-1
EndSplineSet
EndChar

StartChar: quotedbl
Encoding: 34 34 5
Width: 795
Flags: W
LayerCount: 2
Fore
SplineSet
904 1552 m 1,0,-1
 1171 1552 l 1,1,-1
 1025 1042 l 1,2,-1
 758 1042 l 1,3,-1
 904 1552 l 1,0,-1
514 1552 m 1,4,-1
 781 1552 l 1,5,-1
 635 1042 l 1,6,-1
 368 1042 l 1,7,-1
 514 1552 l 1,4,-1
EndSplineSet
EndChar

StartChar: numbersign
Encoding: 35 35 6
Width: 1402
Flags: W
LayerCount: 2
Fore
SplineSet
741 1462 m 1,0,-1
 983 1462 l 1,1,-1
 871 1071 l 1,2,-1
 1147 1071 l 1,3,-1
 1259 1462 l 1,4,-1
 1501 1462 l 1,5,-1
 1389 1071 l 1,6,-1
 1705 1071 l 1,7,-1
 1639 839 l 1,8,-1
 1323 839 l 1,9,-1
 1245 569 l 1,10,-1
 1561 569 l 1,11,-1
 1495 337 l 1,12,-1
 1179 337 l 1,13,-1
 1062 -71 l 1,14,-1
 820 -71 l 1,15,-1
 937 337 l 1,16,-1
 661 337 l 1,17,-1
 544 -71 l 1,18,-1
 302 -71 l 1,19,-1
 419 337 l 1,20,-1
 103 337 l 1,21,-1
 169 569 l 1,22,-1
 485 569 l 1,23,-1
 563 839 l 1,24,-1
 245 839 l 1,25,-1
 311 1071 l 1,26,-1
 629 1071 l 1,27,-1
 741 1462 l 1,0,-1
805 839 m 1,28,-1
 727 569 l 1,29,-1
 1003 569 l 1,30,-1
 1081 839 l 1,31,-1
 805 839 l 1,28,-1
EndSplineSet
EndChar

StartChar: dollar
Encoding: 36 36 7
Width: 1364
Flags: W
LayerCount: 2
Fore
SplineSet
801 968 m 0,0,1
 800 965 800 965 800 958 c 0,2,3
 800 930 800 930 855 905.5 c 128,-1,4
 910 881 910 881 988 858.5 c 128,-1,5
 1066 836 1066 836 1144.5 806.5 c 128,-1,6
 1223 777 1223 777 1278 724.5 c 128,-1,7
 1333 672 1333 672 1333 602 c 0,8,9
 1333 574 1333 574 1324 543 c 0,10,11
 1310 496 1310 496 1282 450.5 c 128,-1,12
 1254 405 1254 405 1205.5 358.5 c 128,-1,13
 1157 312 1157 312 1077 275.5 c 128,-1,14
 997 239 997 239 896 223 c 1,15,-1
 813 -65 l 1,16,-1
 564 -65 l 1,17,-1
 644 212 l 1,18,19
 496 220 496 220 346 285 c 1,20,-1
 313 299 l 1,21,-1
 443 490 l 1,22,-1
 477 475 l 2,23,24
 559 438 559 438 618 424.5 c 128,-1,25
 677 411 677 411 752 411 c 0,26,27
 899 411 899 411 969 439 c 128,-1,28
 1039 467 1039 467 1055 525 c 0,29,30
 1056 528 1056 528 1056 533 c 0,31,32
 1056 559 1056 559 1016.5 580 c 128,-1,33
 977 601 977 601 918 615 c 128,-1,34
 859 629 859 629 790 651.5 c 128,-1,35
 721 674 721 674 662 700 c 128,-1,36
 603 726 603 726 563.5 773 c 128,-1,37
 524 820 524 820 524 882 c 0,38,39
 524 914 524 914 534 948 c 0,40,41
 546 990 546 990 574 1032 c 128,-1,42
 602 1074 602 1074 648.5 1116.5 c 128,-1,43
 695 1159 695 1159 770.5 1194 c 128,-1,44
 846 1229 846 1229 940 1246 c 1,45,-1
 1016 1511 l 1,46,-1
 1265 1511 l 1,47,-1
 1194 1263 l 1,48,49
 1272 1261 1272 1261 1319.5 1252.5 c 128,-1,50
 1367 1244 1367 1244 1435 1224 c 2,51,-1
 1473 1213 l 1,52,-1
 1350 1021 l 1,53,-1
 1314 1030 l 1,54,55
 1194 1064 1194 1064 1071 1064 c 0,56,57
 952 1064 952 1064 882 1034 c 128,-1,58
 812 1004 812 1004 801 968 c 0,0,1
EndSplineSet
EndChar

StartChar: percent
Encoding: 37 37 8
Width: 1493
Flags: W
LayerCount: 2
Fore
SplineSet
763 1227 m 0,0,1
 667 1227 667 1227 629 1094 c 0,2,3
 615 1045 615 1045 615 1014 c 0,4,5
 615 941 615 941 682 941 c 0,6,7
 779 941 779 941 822 1089 c 0,8,9
 834 1131 834 1131 834 1158 c 0,10,11
 834 1227 834 1227 763 1227 c 0,0,1
815 1404 m 0,12,13
 856 1404 856 1404 893 1395 c 128,-1,14
 930 1386 930 1386 964.5 1365.5 c 128,-1,15
 999 1345 999 1345 1019.5 1305 c 128,-1,16
 1040 1265 1040 1265 1040 1209 c 0,17,18
 1040 1158 1040 1158 1021 1092 c 0,19,20
 978 944 978 944 868 854.5 c 128,-1,21
 758 765 758 765 630 765 c 0,22,23
 539 765 539 765 482.5 811 c 128,-1,24
 426 857 426 857 426 957 c 0,25,26
 426 1015 426 1015 448 1093 c 0,27,28
 491 1241 491 1241 595.5 1322.5 c 128,-1,29
 700 1404 700 1404 815 1404 c 0,12,13
1275 486 m 0,30,31
 1177 486 1177 486 1139 353 c 0,32,33
 1126 309 1126 309 1126 275 c 0,34,35
 1126 200 1126 200 1194 200 c 0,36,37
 1291 200 1291 200 1334 348 c 0,38,39
 1346 390 1346 390 1346 417 c 0,40,41
 1346 486 1346 486 1275 486 c 0,30,31
1327 664 m 0,42,43
 1414 664 1414 664 1474.5 620 c 128,-1,44
 1535 576 1535 576 1535 475 c 0,45,46
 1535 420 1535 420 1515 351 c 0,47,48
 1472 202 1472 202 1368.5 113.5 c 128,-1,49
 1265 25 1265 25 1143 25 c 0,50,51
 1046 25 1046 25 984 72.5 c 128,-1,52
 922 120 922 120 922 224 c 0,53,54
 922 282 922 282 942 352 c 0,55,56
 985 500 985 500 1095.5 582 c 128,-1,57
 1206 664 1206 664 1327 664 c 0,42,43
1597 1421 m 1,58,-1
 1868 1421 l 1,59,-1
 357 0 l 1,60,-1
 85 0 l 1,61,-1
 1597 1421 l 1,58,-1
EndSplineSet
EndChar

StartChar: ampersand
Encoding: 38 38 9
Width: 1589
Flags: W
LayerCount: 2
Fore
SplineSet
1418 1175 m 0,0,1
 1407 1138 1407 1138 1386 1100.5 c 128,-1,2
 1365 1063 1365 1063 1343.5 1034.5 c 128,-1,3
 1322 1006 1322 1006 1284.5 971.5 c 128,-1,4
 1247 937 1247 937 1222.5 916 c 128,-1,5
 1198 895 1198 895 1149.5 861.5 c 128,-1,6
 1101 828 1101 828 1080 814.5 c 128,-1,7
 1059 801 1059 801 1008 768 c 1,8,-1
 1208 461 l 1,9,-1
 1631 813 l 1,10,-1
 1738 661 l 1,11,-1
 1313 302 l 1,12,-1
 1536 -41 l 1,13,-1
 1221 -41 l 1,14,-1
 1096 143 l 1,15,16
 1034 97 1034 97 980.5 63 c 128,-1,17
 927 29 927 29 851 -9 c 128,-1,18
 775 -47 775 -47 688 -67.5 c 128,-1,19
 601 -88 601 -88 511 -88 c 0,20,21
 362 -88 362 -88 282.5 -17 c 128,-1,22
 203 54 203 54 203 171 c 0,23,24
 203 222 203 222 220 282 c 0,25,26
 241 354 241 354 283 423 c 128,-1,27
 325 492 325 492 369 541 c 128,-1,28
 413 590 413 590 474 640 c 128,-1,29
 535 690 535 690 574 716.5 c 128,-1,30
 613 743 613 743 664 775 c 1,31,32
 619 841 619 841 594 899 c 128,-1,33
 569 957 569 957 569 1025 c 0,34,35
 569 1074 569 1074 583 1123 c 0,36,37
 629 1281 629 1281 787 1381 c 128,-1,38
 945 1481 945 1481 1132 1481 c 0,39,40
 1271 1481 1271 1481 1350.5 1418.5 c 128,-1,41
 1430 1356 1430 1356 1430 1254 c 0,42,43
 1430 1217 1430 1217 1418 1175 c 0,0,1
1050 1256 m 0,44,45
 975 1256 975 1256 910 1213 c 128,-1,46
 845 1170 845 1170 829 1114 c 0,47,48
 824 1096 824 1096 824 1083 c 0,49,50
 824 1068 824 1068 827.5 1054 c 128,-1,51
 831 1040 831 1040 841 1022.5 c 128,-1,52
 851 1005 851 1005 857.5 995 c 128,-1,53
 864 985 864 985 881 960.5 c 128,-1,54
 898 936 898 936 905 926 c 1,55,56
 1056 1021 1056 1021 1093 1051 c 0,57,58
 1148 1097 1148 1097 1161 1143 c 0,59,60
 1164 1155 1164 1155 1164 1168 c 0,61,62
 1164 1205 1164 1205 1135 1230.5 c 128,-1,63
 1106 1256 1106 1256 1050 1256 c 0,44,45
774 616 m 1,64,65
 710 575 710 575 673 548.5 c 128,-1,66
 636 522 636 522 591.5 484.5 c 128,-1,67
 547 447 547 447 520.5 408.5 c 128,-1,68
 494 370 494 370 482 327 c 0,69,70
 475 303 475 303 475 278 c 0,71,72
 475 218 475 218 517 179.5 c 128,-1,73
 559 141 559 141 633 141 c 0,74,75
 717 141 717 141 803.5 184.5 c 128,-1,76
 890 228 890 228 988 300 c 1,77,-1
 774 616 l 1,64,65
EndSplineSet
EndChar

StartChar: quotesingle
Encoding: 39 39 10
Width: 405
Flags: W
LayerCount: 2
Fore
SplineSet
514 1552 m 1,0,-1
 781 1552 l 1,1,-1
 635 1042 l 1,2,-1
 368 1042 l 1,3,-1
 514 1552 l 1,0,-1
EndSplineSet
EndChar

StartChar: parenleft
Encoding: 40 40 11
Width: 742
Flags: W
LayerCount: 2
Fore
SplineSet
974 1602 m 1,0,-1
 1148 1495 l 1,1,-1
 1115 1458 l 2,2,3
 833 1141 833 1141 686.5 807 c 128,-1,4
 540 473 540 473 540 142 c 0,5,6
 540 -86 540 -86 610 -303 c 2,7,-1
 621 -337 l 1,8,-1
 387 -465 l 1,9,-1
 375 -429 l 1,10,11
 284 -148 284 -148 284 140 c 0,12,13
 284 365 284 365 344 576 c 0,14,15
 385 717 385 717 456 864 c 128,-1,16
 527 1011 527 1011 614 1141 c 128,-1,17
 701 1271 701 1271 780.5 1372.5 c 128,-1,18
 860 1474 860 1474 945 1569 c 1,19,-1
 974 1602 l 1,0,-1
EndSplineSet
EndChar

StartChar: parenright
Encoding: 41 41 12
Width: 742
Flags: W
LayerCount: 2
Fore
SplineSet
728 576 m 0,0,1
 687 432 687 432 613.5 281.5 c 128,-1,2
 540 131 540 131 451.5 -1 c 128,-1,3
 363 -133 363 -133 283.5 -235 c 128,-1,4
 204 -337 204 -337 121 -429 c 2,5,-1
 89 -465 l 1,6,-1
 -73 -337 l 1,7,-1
 -42 -303 l 2,8,9
 37 -215 37 -215 106.5 -124.5 c 128,-1,10
 176 -34 176 -34 257.5 99.5 c 128,-1,11
 339 233 339 233 396.5 367 c 128,-1,12
 454 501 454 501 493 670.5 c 128,-1,13
 532 840 532 840 532 1008 c 0,14,15
 532 1234 532 1234 463 1458 c 1,16,-1
 452 1495 l 1,17,-1
 686 1602 l 1,18,-1
 697 1569 l 1,19,20
 787 1291 787 1291 787 1007 c 0,21,22
 787 780 787 780 728 576 c 0,0,1
EndSplineSet
EndChar

StartChar: asterisk
Encoding: 42 42 13
Width: 1196
Flags: W
LayerCount: 2
Fore
SplineSet
889 1462 m 1,0,-1
 1145 1462 l 1,1,-1
 1050 1181 l 1,2,-1
 1328 1335 l 1,3,-1
 1392 1112 l 1,4,-1
 1106 987 l 1,5,-1
 1320 860 l 1,6,-1
 1128 637 l 1,7,-1
 938 791 l 1,8,-1
 873 511 l 1,9,-1
 617 511 l 1,10,-1
 712 791 l 1,11,-1
 434 637 l 1,12,-1
 370 860 l 1,13,-1
 657 987 l 1,14,-1
 442 1112 l 1,15,-1
 634 1335 l 1,16,-1
 824 1181 l 1,17,-1
 889 1462 l 1,0,-1
EndSplineSet
EndChar

StartChar: plus
Encoding: 43 43 14
Width: 1400
Flags: W
LayerCount: 2
Fore
SplineSet
950 1274 m 1,0,-1
 1180 1274 l 1,1,-1
 1035 768 l 1,2,-1
 1536 768 l 1,3,-1
 1473 548 l 1,4,-1
 972 548 l 1,5,-1
 827 42 l 1,6,-1
 597 42 l 1,7,-1
 742 548 l 1,8,-1
 241 548 l 1,9,-1
 304 768 l 1,10,-1
 805 768 l 1,11,-1
 950 1274 l 1,0,-1
EndSplineSet
EndChar

StartChar: comma
Encoding: 44 44 15
Width: 570
Flags: W
LayerCount: 2
Fore
SplineSet
233 211 m 1,0,-1
 502 211 l 1,1,-1
 175 -261 l 1,2,-1
 -94 -261 l 1,3,-1
 233 211 l 1,0,-1
EndSplineSet
EndChar

StartChar: hyphen
Encoding: 45 45 16
Width: 1210
Flags: W
LayerCount: 2
Fore
SplineSet
355 769 m 1,0,-1
 1297 769 l 1,1,-1
 1233 548 l 1,2,-1
 291 548 l 1,3,-1
 355 769 l 1,0,-1
EndSplineSet
EndChar

StartChar: period
Encoding: 46 46 17
Width: 570
Flags: W
LayerCount: 2
Fore
SplineSet
211 251 m 1,0,-1
 503 251 l 1,1,-1
 419 -41 l 1,2,-1
 127 -41 l 1,3,-1
 211 251 l 1,0,-1
EndSplineSet
EndChar

StartChar: slash
Encoding: 47 47 18
Width: 726
Flags: W
LayerCount: 2
Fore
SplineSet
925 1462 m 1,0,-1
 1182 1462 l 1,1,-1
 202 -131 l 1,2,-1
 -55 -131 l 1,3,-1
 925 1462 l 1,0,-1
EndSplineSet
EndChar

StartChar: zero
Encoding: 48 48 19
Width: 1464
Flags: W
LayerCount: 2
Fore
SplineSet
1077 1205 m 128,-1,1
 1029 1205 1029 1205 977.5 1191 c 128,-1,2
 926 1177 926 1177 865.5 1142.5 c 128,-1,3
 805 1108 805 1108 752 1055.5 c 128,-1,4
 699 1003 699 1003 650 918.5 c 128,-1,5
 601 834 601 834 571 728 c 0,6,7
 536 608 536 608 536 508 c 0,8,9
 536 428 536 428 559.5 367.5 c 128,-1,10
 583 307 583 307 622 275 c 128,-1,11
 661 243 661 243 704.5 227.5 c 128,-1,12
 748 212 748 212 795 212 c 128,-1,13
 842 212 842 212 894 226.5 c 128,-1,14
 946 241 946 241 1006.5 278 c 128,-1,15
 1067 315 1067 315 1121 370.5 c 128,-1,16
 1175 426 1175 426 1225.5 516.5 c 128,-1,17
 1276 607 1276 607 1309 721 c 0,18,19
 1341 833 1341 833 1341 919 c 0,20,21
 1341 997 1341 997 1317 1055 c 128,-1,22
 1293 1113 1293 1113 1253 1144 c 128,-1,23
 1213 1175 1213 1175 1169 1190 c 128,-1,0
 1125 1205 1125 1205 1077 1205 c 128,-1,1
1144 1440 m 0,24,25
 1211 1440 1211 1440 1274 1426.5 c 128,-1,26
 1337 1413 1337 1413 1398 1380 c 128,-1,27
 1459 1347 1459 1347 1504 1297.5 c 128,-1,28
 1549 1248 1549 1248 1576.5 1170.5 c 128,-1,29
 1604 1093 1604 1093 1604 996 c 0,30,31
 1604 874 1604 874 1561 725 c 0,32,33
 1521 586 1521 586 1461 470 c 128,-1,34
 1401 354 1401 354 1330.5 275 c 128,-1,35
 1260 196 1260 196 1182.5 137 c 128,-1,36
 1105 78 1105 78 1024.5 44.5 c 128,-1,37
 944 11 944 11 871 -4.5 c 128,-1,38
 798 -20 798 -20 728 -20 c 0,39,40
 661 -20 661 -20 598.5 -6 c 128,-1,41
 536 8 536 8 475.5 42 c 128,-1,42
 415 76 415 76 371 126.5 c 128,-1,43
 327 177 327 177 300 256.5 c 128,-1,44
 273 336 273 336 273 435 c 0,45,46
 273 566 273 566 319 727 c 0,47,48
 357 860 357 860 416 970.5 c 128,-1,49
 475 1081 475 1081 545 1157 c 128,-1,50
 615 1233 615 1233 691.5 1289.5 c 128,-1,51
 768 1346 768 1346 848.5 1378 c 128,-1,52
 929 1410 929 1410 1002 1425 c 128,-1,53
 1075 1440 1075 1440 1144 1440 c 0,24,25
EndSplineSet
EndChar

StartChar: one
Encoding: 49 49 20
Width: 1464
Flags: W
LayerCount: 2
Fore
SplineSet
1072 1421 m 1,0,-1
 1360 1421 l 1,1,-1
 1019 231 l 1,2,-1
 1363 231 l 1,3,-1
 1297 0 l 1,4,-1
 305 0 l 1,5,-1
 371 231 l 1,6,-1
 730 231 l 1,7,-1
 1000 1173 l 1,8,-1
 652 1065 l 1,9,-1
 615 1272 l 1,10,-1
 1072 1421 l 1,0,-1
EndSplineSet
EndChar

StartChar: two
Encoding: 50 50 21
Width: 1464
Flags: W
LayerCount: 2
Fore
SplineSet
274 131 m 1,0,1
 347 248 347 248 442 350 c 128,-1,2
 537 452 537 452 629 523 c 128,-1,3
 721 594 721 594 816 655.5 c 128,-1,4
 911 717 911 717 993.5 762.5 c 128,-1,5
 1076 808 1076 808 1143.5 848.5 c 128,-1,6
 1211 889 1211 889 1255.5 928.5 c 128,-1,7
 1300 968 1300 968 1311 1007 c 0,8,9
 1316 1025 1316 1025 1316 1039 c 0,10,11
 1316 1107 1316 1107 1240.5 1154.5 c 128,-1,12
 1165 1202 1165 1202 1045 1202 c 0,13,14
 881 1202 881 1202 625 1122 c 2,15,-1
 583 1109 l 1,16,-1
 565 1315 l 1,17,-1
 606 1331 l 1,18,19
 869 1431 869 1431 1147 1431 c 0,20,21
 1361 1431 1361 1431 1478 1350 c 128,-1,22
 1595 1269 1595 1269 1595 1138 c 0,23,24
 1595 1093 1595 1093 1582 1050 c 0,25,26
 1554 953 1554 953 1477 872 c 128,-1,27
 1400 791 1400 791 1294 724.5 c 128,-1,28
 1188 658 1188 658 1076 593 c 128,-1,29
 964 528 964 528 839 433.5 c 128,-1,30
 714 339 714 339 627 232 c 1,31,-1
 1374 232 l 1,32,-1
 1307 0 l 1,33,-1
 236 0 l 1,34,-1
 274 131 l 1,0,1
EndSplineSet
EndChar

StartChar: three
Encoding: 51 51 22
Width: 1464
Flags: W
LayerCount: 2
Fore
SplineSet
620 1332 m 2,0,1
 864 1438 864 1438 1108 1438 c 0,2,3
 1305 1438 1305 1438 1418.5 1362.5 c 128,-1,4
 1532 1287 1532 1287 1532 1162 c 0,5,6
 1532 1124 1532 1124 1520 1080 c 0,7,8
 1493 988 1493 988 1428.5 909.5 c 128,-1,9
 1364 831 1364 831 1276 781 c 1,10,11
 1417 710 1417 710 1417 559 c 0,12,13
 1417 504 1417 504 1401 450 c 0,14,15
 1337 227 1337 227 1121.5 91 c 128,-1,16
 906 -45 906 -45 613 -45 c 0,17,18
 392 -45 392 -45 222 35 c 2,19,-1
 190 50 l 1,20,-1
 324 261 l 1,21,-1
 358 251 l 1,22,23
 554 195 554 195 684 195 c 0,24,25
 845 195 845 195 976 257.5 c 128,-1,26
 1107 320 1107 320 1136 419 c 0,27,28
 1142 438 1142 438 1142 461 c 0,29,30
 1142 488 1142 488 1131.5 512.5 c 128,-1,31
 1121 537 1121 537 1092 561.5 c 128,-1,32
 1063 586 1063 586 1017.5 603.5 c 128,-1,33
 972 621 972 621 896.5 632 c 128,-1,34
 821 643 821 643 723 643 c 2,35,-1
 676 643 l 1,36,-1
 742 871 l 1,37,-1
 789 871 l 2,38,39
 904 871 904 871 993.5 888.5 c 128,-1,40
 1083 906 1083 906 1133.5 935 c 128,-1,41
 1184 964 1184 964 1211 993 c 128,-1,42
 1238 1022 1238 1022 1247 1052 c 0,43,44
 1251 1064 1251 1064 1251 1079 c 0,45,46
 1251 1134 1251 1134 1188 1168 c 128,-1,47
 1125 1202 1125 1202 1016 1202 c 0,48,49
 853 1202 853 1202 651 1123 c 1,50,-1
 607 1105 l 1,51,-1
 581 1315 l 1,52,-1
 620 1332 l 2,0,1
EndSplineSet
EndChar

StartChar: four
Encoding: 52 52 23
Width: 1546
Flags: W
LayerCount: 2
Fore
SplineSet
1162 1421 m 1,0,-1
 1503 1421 l 1,1,-1
 1249 535 l 1,2,-1
 1497 535 l 1,3,-1
 1431 303 l 1,4,-1
 1183 303 l 1,5,-1
 1096 0 l 1,6,-1
 850 0 l 1,7,-1
 937 303 l 1,8,-1
 207 303 l 1,9,-1
 252 461 l 1,10,-1
 1162 1421 l 1,0,-1
972 535 m 1,11,-1
 1137 1109 l 1,12,-1
 590 535 l 1,13,-1
 972 535 l 1,11,-1
EndSplineSet
EndChar

StartChar: five
Encoding: 53 53 24
Width: 1464
Flags: W
LayerCount: 2
Fore
SplineSet
650 1421 m 1,0,-1
 1670 1421 l 1,1,-1
 1604 1189 l 1,2,-1
 839 1189 l 1,3,-1
 764 929 l 1,4,5
 868 937 868 937 952 937 c 0,6,7
 1070 937 1070 937 1161 917.5 c 128,-1,8
 1252 898 1252 898 1308.5 865.5 c 128,-1,9
 1365 833 1365 833 1401 788 c 128,-1,10
 1437 743 1437 743 1450.5 697 c 128,-1,11
 1464 651 1464 651 1464 598 c 0,12,13
 1464 536 1464 536 1446 474 c 0,14,15
 1427 409 1427 409 1392.5 346.5 c 128,-1,16
 1358 284 1358 284 1290.5 216 c 128,-1,17
 1223 148 1223 148 1133.5 97 c 128,-1,18
 1044 46 1044 46 907 13 c 128,-1,19
 770 -20 770 -20 606 -20 c 0,20,21
 399 -20 399 -20 219 16 c 2,22,-1
 180 24 l 1,23,-1
 295 256 l 1,24,-1
 333 247 l 1,25,26
 473 216 473 216 659 216 c 0,27,28
 765 216 765 216 852 232 c 128,-1,29
 939 248 939 248 994.5 273 c 128,-1,30
 1050 298 1050 298 1090 331.5 c 128,-1,31
 1130 365 1130 365 1150 395.5 c 128,-1,32
 1170 426 1170 426 1179 458 c 0,33,34
 1186 484 1186 484 1186 505 c 0,35,36
 1186 542 1186 542 1169 574.5 c 128,-1,37
 1152 607 1152 607 1113.5 637.5 c 128,-1,38
 1075 668 1075 668 1000 685.5 c 128,-1,39
 925 703 925 703 821 703 c 0,40,41
 699 703 699 703 484 679 c 1,42,-1
 436 674 l 1,43,-1
 650 1421 l 1,0,-1
EndSplineSet
EndChar

StartChar: six
Encoding: 54 54 25
Width: 1464
Flags: W
LayerCount: 2
Fore
SplineSet
1438 1432 m 0,0,1
 1494 1432 1494 1432 1566 1425 c 2,2,-1
 1604 1421 l 1,3,-1
 1520 1191 l 1,4,-1
 1479 1195 l 1,5,6
 1428 1201 1428 1201 1376 1201 c 0,7,8
 1262 1201 1262 1201 1166 1184 c 128,-1,9
 1070 1167 1070 1167 1002 1139 c 128,-1,10
 934 1111 934 1111 877.5 1070.5 c 128,-1,11
 821 1030 821 1030 785 989 c 128,-1,12
 749 948 749 948 719 898 c 1,13,14
 874 973 874 973 1049 973 c 0,15,16
 1252 973 1252 973 1354 878.5 c 128,-1,17
 1456 784 1456 784 1456 635 c 0,18,19
 1456 548 1456 548 1422 455.5 c 128,-1,20
 1388 363 1388 363 1321.5 277.5 c 128,-1,21
 1255 192 1255 192 1166 124 c 128,-1,22
 1077 56 1077 56 957.5 15.5 c 128,-1,23
 838 -25 838 -25 708 -25 c 0,24,25
 646 -25 646 -25 592 -16 c 128,-1,26
 538 -7 538 -7 482 17.5 c 128,-1,27
 426 42 426 42 386 81 c 128,-1,28
 346 120 346 120 321 186 c 128,-1,29
 296 252 296 252 296 337 c 0,30,31
 296 447 296 447 336 584 c 0,32,33
 580 1432 580 1432 1438 1432 c 0,0,1
940 751 m 0,34,35
 810 751 810 751 701.5 679 c 128,-1,36
 593 607 593 607 560 495 c 0,37,38
 550 461 550 461 550 424 c 0,39,40
 550 329 550 329 615.5 263 c 128,-1,41
 681 197 681 197 793 197 c 0,42,43
 918 197 918 197 1034 282 c 128,-1,44
 1150 367 1150 367 1184 484 c 0,45,46
 1194 518 1194 518 1194 552 c 0,47,48
 1194 643 1194 643 1121.5 697 c 128,-1,49
 1049 751 1049 751 940 751 c 0,34,35
EndSplineSet
EndChar

StartChar: seven
Encoding: 55 55 26
Width: 1464
Flags: W
LayerCount: 2
Fore
SplineSet
538 1421 m 1,0,-1
 1740 1421 l 1,1,-1
 1698 1272 l 1,2,-1
 572 0 l 1,3,-1
 282 0 l 1,4,-1
 1344 1179 l 1,5,-1
 469 1179 l 1,6,-1
 538 1421 l 1,0,-1
EndSplineSet
EndChar

StartChar: eight
Encoding: 56 56 27
Width: 1464
Flags: W
LayerCount: 2
Fore
SplineSet
1072 1215 m 0,0,1
 972 1215 972 1215 891.5 1166 c 128,-1,2
 811 1117 811 1117 794 1056 c 0,3,4
 789 1038 789 1038 789 1024 c 0,5,6
 789 997 789 997 805 973 c 128,-1,7
 821 949 821 949 842.5 932.5 c 128,-1,8
 864 916 864 916 900 900 c 128,-1,9
 936 884 936 884 961.5 875.5 c 128,-1,10
 987 867 987 867 1025 856 c 1,11,12
 1151 917 1151 917 1207 957.5 c 128,-1,13
 1263 998 1263 998 1277 1047 c 0,14,15
 1283 1068 1283 1068 1283 1086 c 0,16,17
 1283 1148 1283 1148 1223.5 1181.5 c 128,-1,18
 1164 1215 1164 1215 1072 1215 c 0,0,1
1181 438 m 0,19,20
 1190 470 1190 470 1190 497 c 0,21,22
 1190 541 1190 541 1168.5 577.5 c 128,-1,23
 1147 614 1147 614 1106 641 c 128,-1,24
 1065 668 1065 668 1017 687.5 c 128,-1,25
 969 707 969 707 906 724 c 1,26,27
 760 686 760 686 660 608.5 c 128,-1,28
 560 531 560 531 535 446 c 0,29,30
 528 424 528 424 528 399 c 0,31,32
 528 319 528 319 601.5 265.5 c 128,-1,33
 675 212 675 212 808 212 c 0,34,35
 948 212 948 212 1051 277.5 c 128,-1,36
 1154 343 1154 343 1181 438 c 0,19,20
1137 1440 m 0,37,38
 1349 1440 1349 1440 1454 1372.5 c 128,-1,39
 1559 1305 1559 1305 1559 1181 c 0,40,41
 1559 1132 1559 1132 1542 1073 c 0,42,43
 1519 991 1519 991 1458.5 924.5 c 128,-1,44
 1398 858 1398 858 1297 794 c 1,45,46
 1452 695 1452 695 1452 533 c 0,47,48
 1452 484 1452 484 1436 425 c 0,49,50
 1412 340 1412 340 1352 261.5 c 128,-1,51
 1292 183 1292 183 1204.5 119.5 c 128,-1,52
 1117 56 1117 56 993.5 18 c 128,-1,53
 870 -20 870 -20 732 -20 c 0,54,55
 514 -20 514 -20 383 69.5 c 128,-1,56
 252 159 252 159 252 307 c 0,57,58
 252 354 252 354 267 407 c 0,59,60
 299 518 299 518 394 619.5 c 128,-1,61
 489 721 489 721 619 788 c 1,62,63
 526 866 526 866 526 987 c 0,64,65
 526 1031 526 1031 539 1077 c 0,66,67
 584 1232 584 1232 745.5 1336 c 128,-1,68
 907 1440 907 1440 1137 1440 c 0,37,38
EndSplineSet
EndChar

StartChar: nine
Encoding: 57 57 28
Width: 1464
Flags: W
LayerCount: 2
Fore
SplineSet
1163 1441 m 0,0,1
 1224 1441 1224 1441 1277.5 1432 c 128,-1,2
 1331 1423 1331 1423 1386.5 1398.5 c 128,-1,3
 1442 1374 1442 1374 1481.5 1335 c 128,-1,4
 1521 1296 1521 1296 1546 1230.5 c 128,-1,5
 1571 1165 1571 1165 1571 1080 c 0,6,7
 1571 972 1571 972 1530 828 c 0,8,9
 1484 668 1484 668 1416 538 c 128,-1,10
 1348 408 1348 408 1263.5 317.5 c 128,-1,11
 1179 227 1179 227 1083 161 c 128,-1,12
 987 95 987 95 878 57.5 c 128,-1,13
 769 20 769 20 660 2.5 c 128,-1,14
 551 -15 551 -15 431 -15 c 0,15,16
 364 -15 364 -15 302 -9 c 2,17,-1
 264 -5 l 1,18,-1
 349 225 l 1,19,-1
 389 221 l 2,20,21
 430 216 430 216 493 216 c 0,22,23
 616 216 616 216 716.5 235.5 c 128,-1,24
 817 255 817 255 885.5 285 c 128,-1,25
 954 315 954 315 1009 362 c 128,-1,26
 1064 409 1064 409 1097 454 c 128,-1,27
 1130 499 1130 499 1160 557 c 1,28,29
 1002 483 1002 483 832 483 c 0,30,31
 640 483 640 483 530.5 573.5 c 128,-1,32
 421 664 421 664 421 814 c 0,33,34
 421 875 421 875 440 939 c 0,35,36
 479 1075 479 1075 582.5 1189 c 128,-1,37
 686 1303 686 1303 839.5 1372 c 128,-1,38
 993 1441 993 1441 1163 1441 c 0,0,1
1075 1219 m 0,39,40
 954 1219 954 1219 837 1137 c 128,-1,41
 720 1055 720 1055 691 955 c 0,42,43
 683 926 683 926 683 902 c 0,44,45
 683 817 683 817 756.5 761 c 128,-1,46
 830 705 830 705 939 705 c 0,47,48
 1066 705 1066 705 1176.5 775.5 c 128,-1,49
 1287 846 1287 846 1315 944 c 0,50,51
 1322 968 1322 968 1322 997 c 0,52,53
 1322 1086 1322 1086 1253.5 1152.5 c 128,-1,54
 1185 1219 1185 1219 1075 1219 c 0,39,40
EndSplineSet
EndChar

StartChar: colon
Encoding: 58 58 29
Width: 570
Flags: W
LayerCount: 2
Fore
SplineSet
211 251 m 1,0,-1
 503 251 l 1,1,-1
 419 -41 l 1,2,-1
 127 -41 l 1,3,-1
 211 251 l 1,0,-1
435 1034 m 1,4,-1
 727 1034 l 1,5,-1
 644 742 l 1,6,-1
 352 742 l 1,7,-1
 435 1034 l 1,4,-1
EndSplineSet
EndChar

StartChar: semicolon
Encoding: 59 59 30
Width: 570
Flags: W
LayerCount: 2
Fore
SplineSet
233 211 m 1,0,-1
 502 211 l 1,1,-1
 175 -261 l 1,2,-1
 -94 -261 l 1,3,-1
 233 211 l 1,0,-1
435 1034 m 1,4,-1
 727 1034 l 1,5,-1
 644 742 l 1,6,-1
 352 742 l 1,7,-1
 435 1034 l 1,4,-1
EndSplineSet
EndChar

StartChar: less
Encoding: 60 60 31
Width: 1073
Flags: W
LayerCount: 2
Fore
SplineSet
1356 1194 m 1,0,-1
 1286 948 l 1,1,-1
 545 622 l 1,2,-1
 1103 311 l 1,3,-1
 1030 55 l 1,4,-1
 204 507 l 1,5,-1
 267 724 l 1,6,-1
 1356 1194 l 1,0,-1
EndSplineSet
EndChar

StartChar: equal
Encoding: 61 61 32
Width: 1400
Flags: W
LayerCount: 2
Fore
SplineSet
334 542 m 1,0,-1
 1376 542 l 1,1,-1
 1310 310 l 1,2,-1
 268 310 l 1,3,-1
 334 542 l 1,0,-1
464 995 m 1,4,-1
 1506 995 l 1,5,-1
 1440 763 l 1,6,-1
 398 763 l 1,7,-1
 464 995 l 1,4,-1
EndSplineSet
EndChar

StartChar: greater
Encoding: 62 62 33
Width: 1073
Flags: W
LayerCount: 2
Fore
SplineSet
401 1194 m 1,0,-1
 1222 724 l 1,1,-1
 1159 507 l 1,2,-1
 75 55 l 1,3,-1
 148 311 l 1,4,-1
 884 622 l 1,5,-1
 331 948 l 1,6,-1
 401 1194 l 1,0,-1
EndSplineSet
EndChar

StartChar: question
Encoding: 63 63 34
Width: 1046
Flags: W
LayerCount: 2
Fore
SplineSet
339 241 m 1,0,-1
 621 241 l 1,1,-1
 540 -41 l 1,2,-1
 258 -41 l 1,3,-1
 339 241 l 1,0,-1
1232 1097 m 0,4,5
 1207 1011 1207 1011 1166.5 942.5 c 128,-1,6
 1126 874 1126 874 1079.5 829.5 c 128,-1,7
 1033 785 1033 785 981.5 747.5 c 128,-1,8
 930 710 930 710 880 676 c 128,-1,9
 830 642 830 642 785.5 605 c 128,-1,10
 741 568 741 568 704.5 514 c 128,-1,11
 668 460 668 460 649 392 c 2,12,-1
 638 351 l 1,13,-1
 386 351 l 1,14,-1
 397 392 l 1,15,16
 423 482 423 482 465 555 c 128,-1,17
 507 628 507 628 555 676.5 c 128,-1,18
 603 725 603 725 656 765.5 c 128,-1,19
 709 806 709 806 759.5 838.5 c 128,-1,20
 810 871 810 871 853 903 c 128,-1,21
 896 935 896 935 929.5 977 c 128,-1,22
 963 1019 963 1019 977 1069 c 0,23,24
 984 1094 984 1094 984 1116 c 0,25,26
 984 1174 984 1174 933 1213.5 c 128,-1,27
 882 1253 882 1253 755 1253 c 0,28,29
 701 1253 701 1253 632 1240 c 128,-1,30
 563 1227 563 1227 515 1209 c 2,31,-1
 472 1193 l 1,32,-1
 445 1389 l 1,33,-1
 485 1406 l 1,34,35
 651 1478 651 1478 847 1478 c 0,36,37
 1038 1478 1038 1478 1144 1410.5 c 128,-1,38
 1250 1343 1250 1343 1250 1211 c 0,39,40
 1250 1158 1250 1158 1232 1097 c 0,4,5
EndSplineSet
EndChar

StartChar: at
Encoding: 64 64 35
Width: 2100
Flags: W
LayerCount: 2
Fore
SplineSet
1551 959 m 1,0,-1
 1583 1009 l 1,1,-1
 1766 1009 l 1,2,-1
 1549 252 l 2,3,4
 1523 163 1523 163 1523 122 c 0,5,6
 1523 61 1523 61 1582 61 c 0,7,8
 1606 61 1606 61 1640.5 81 c 128,-1,9
 1675 101 1675 101 1720.5 146.5 c 128,-1,10
 1766 192 1766 192 1814.5 286.5 c 128,-1,11
 1863 381 1863 381 1900 510 c 0,12,13
 1948 675 1948 675 1948 800 c 0,14,15
 1948 891 1948 891 1922 961 c 128,-1,16
 1896 1031 1896 1031 1838.5 1085.5 c 128,-1,17
 1781 1140 1781 1140 1681.5 1168.5 c 128,-1,18
 1582 1197 1582 1197 1443 1197 c 0,19,20
 1324 1197 1324 1197 1216 1170.5 c 128,-1,21
 1108 1144 1108 1144 1023.5 1099 c 128,-1,22
 939 1054 939 1054 864.5 991.5 c 128,-1,23
 790 929 790 929 736 862 c 128,-1,24
 682 795 682 795 637 718.5 c 128,-1,25
 592 642 592 642 563.5 574 c 128,-1,26
 535 506 535 506 516 438 c 0,27,28
 480 310 480 310 480 206 c 0,29,30
 480 -9 480 -9 611.5 -126.5 c 128,-1,31
 743 -244 743 -244 947 -244 c 0,32,33
 1094 -244 1094 -244 1239 -181 c 1,34,-1
 1280 -164 l 1,35,-1
 1326 -354 l 1,36,-1
 1284 -373 l 2,37,38
 1073 -468 1073 -468 858 -468 c 0,39,40
 804 -468 804 -468 748.5 -462 c 128,-1,41
 693 -456 693 -456 627.5 -438.5 c 128,-1,42
 562 -421 562 -421 504 -394.5 c 128,-1,43
 446 -368 446 -368 390.5 -324 c 128,-1,44
 335 -280 335 -280 295 -223 c 128,-1,45
 255 -166 255 -166 231 -84 c 128,-1,46
 207 -2 207 -2 207 95 c 0,47,48
 207 234 207 234 256 404 c 0,49,50
 287 511 287 511 329 611.5 c 128,-1,51
 371 712 371 712 434.5 817 c 128,-1,52
 498 922 498 922 574.5 1012 c 128,-1,53
 651 1102 651 1102 754 1182 c 128,-1,54
 857 1262 857 1262 974.5 1318.5 c 128,-1,55
 1092 1375 1092 1375 1241 1407.5 c 128,-1,56
 1390 1440 1390 1440 1555 1440 c 0,57,58
 2218 1440 2218 1440 2218 907 c 0,59,60
 2218 744 2218 744 2156 530 c 0,61,62
 2109 366 2109 366 2039 239 c 128,-1,63
 1969 112 1969 112 1899 39.5 c 128,-1,64
 1829 -33 1829 -33 1750.5 -79 c 128,-1,65
 1672 -125 1672 -125 1612.5 -140.5 c 128,-1,66
 1553 -156 1553 -156 1500 -156 c 0,67,68
 1413 -156 1413 -156 1355 -114.5 c 128,-1,69
 1297 -73 1297 -73 1279 -1 c 1,70,71
 1141 -61 1141 -61 1012 -61 c 0,72,73
 838 -61 838 -61 751 34.5 c 128,-1,74
 664 130 664 130 664 283 c 0,75,76
 664 376 664 376 695.5 477 c 128,-1,77
 727 578 727 578 788 671 c 128,-1,78
 849 764 849 764 929.5 838.5 c 128,-1,79
 1010 913 1010 913 1118 958 c 128,-1,80
 1226 1003 1226 1003 1342 1003 c 0,81,82
 1454 1003 1454 1003 1551 959 c 1,0,-1
1306 799 m 0,83,84
 1179 799 1179 799 1077 714 c 128,-1,85
 975 629 975 629 930 475 c 0,86,87
 911 409 911 409 911 354 c 0,88,89
 911 255 911 255 969 202.5 c 128,-1,90
 1027 150 1027 150 1125 150 c 0,91,92
 1206 150 1206 150 1293 186 c 1,93,-1
 1460 767 l 1,94,95
 1384 799 1384 799 1306 799 c 0,83,84
EndSplineSet
EndChar

StartChar: A
Encoding: 65 65 36
Width: 1547
Flags: W
LayerCount: 2
Fore
SplineSet
1100 1421 m 1,0,-1
 1376 1421 l 1,1,-1
 1531 0 l 1,2,-1
 1272 0 l 1,3,-1
 1220 372 l 1,4,-1
 640 372 l 1,5,-1
 374 0 l 1,6,-1
 130 0 l 1,7,-1
 1100 1421 l 1,0,-1
1198 603 m 1,8,-1
 1147 1130 l 1,9,-1
 793 603 l 1,10,-1
 1198 603 l 1,8,-1
EndSplineSet
EndChar

StartChar: B
Encoding: 66 66 37
Width: 1588
Flags: W
LayerCount: 2
Fore
SplineSet
1122 1209 m 2,0,-1
 889 1209 l 1,1,-1
 776 815 l 1,2,3
 995 820 995 820 1087 836 c 0,4,5
 1319 877 1319 877 1363 1030 c 0,6,7
 1370 1056 1370 1056 1370 1077 c 0,8,9
 1370 1209 1370 1209 1122 1209 c 2,0,-1
979 655 m 0,10,11
 971 655 971 655 727 644 c 1,12,-1
 609 232 l 1,13,-1
 833 232 l 2,14,15
 873 232 873 232 901.5 232.5 c 128,-1,16
 930 233 930 233 981.5 237 c 128,-1,17
 1033 241 1033 241 1071 248.5 c 128,-1,18
 1109 256 1109 256 1155.5 271 c 128,-1,19
 1202 286 1202 286 1235 307 c 128,-1,20
 1268 328 1268 328 1295.5 360.5 c 128,-1,21
 1323 393 1323 393 1335 434 c 0,22,23
 1342 456 1342 456 1342 479 c 0,24,25
 1342 562 1342 562 1246 608.5 c 128,-1,26
 1150 655 1150 655 979 655 c 0,10,11
697 1421 m 1,27,-1
 1239 1421 l 2,28,29
 1339 1421 1339 1421 1416 1404 c 128,-1,30
 1493 1387 1493 1387 1538.5 1360.5 c 128,-1,31
 1584 1334 1584 1334 1613 1297 c 128,-1,32
 1642 1260 1642 1260 1652.5 1224 c 128,-1,33
 1663 1188 1663 1188 1663 1148 c 0,34,35
 1663 1105 1663 1105 1650 1059 c 0,36,37
 1631 991 1631 991 1573.5 921 c 128,-1,38
 1516 851 1516 851 1446 803 c 1,39,40
 1522 768 1522 768 1564 700 c 128,-1,41
 1606 632 1606 632 1606 547 c 0,42,43
 1606 498 1606 498 1591 446 c 0,44,45
 1582 413 1582 413 1565.5 378.5 c 128,-1,46
 1549 344 1549 344 1517 299 c 128,-1,47
 1485 254 1485 254 1443 213.5 c 128,-1,48
 1401 173 1401 173 1337 133 c 128,-1,49
 1273 93 1273 93 1197.5 64.5 c 128,-1,50
 1122 36 1122 36 1017 18 c 128,-1,51
 912 0 912 0 793 0 c 2,52,-1
 290 0 l 1,53,-1
 697 1421 l 1,27,-1
EndSplineSet
EndChar

StartChar: C
Encoding: 67 67 38
Width: 1615
Flags: W
LayerCount: 2
Fore
SplineSet
1495 1431 m 0,0,1
 1720 1431 1720 1431 1898 1352 c 1,2,-1
 1930 1337 l 1,3,-1
 1789 1121 l 1,4,-1
 1755 1134 l 1,5,6
 1580 1199 1580 1199 1423 1199 c 0,7,8
 1299 1199 1299 1199 1182 1158.5 c 128,-1,9
 1065 1118 1065 1118 976 1050 c 128,-1,10
 887 982 887 982 823 894 c 128,-1,11
 759 806 759 806 732 710 c 0,12,13
 713 642 713 642 713 584 c 0,14,15
 713 423 713 423 836 320.5 c 128,-1,16
 959 218 959 218 1183 218 c 0,17,18
 1347 218 1347 218 1527 276 c 2,19,-1
 1568 289 l 1,20,-1
 1593 89 l 1,21,-1
 1551 73 l 2,22,23
 1308 -20 1308 -20 1066 -20 c 0,24,25
 764 -20 764 -20 604.5 120.5 c 128,-1,26
 445 261 445 261 445 492 c 0,27,28
 445 596 445 596 478 709 c 0,29,30
 522 863 522 863 615 995 c 128,-1,31
 708 1127 708 1127 838 1224 c 128,-1,32
 968 1321 968 1321 1137.5 1376 c 128,-1,33
 1307 1431 1307 1431 1495 1431 c 0,0,1
EndSplineSet
EndChar

StartChar: D
Encoding: 68 68 39
Width: 1770
Flags: W
LayerCount: 2
Fore
SplineSet
1150 1189 m 2,0,-1
 891 1189 l 1,1,-1
 617 232 l 1,2,-1
 800 232 l 2,3,4
 869 232 869 232 915 234 c 128,-1,5
 961 236 961 236 1036.5 248 c 128,-1,6
 1112 260 1112 260 1170 281.5 c 128,-1,7
 1228 303 1228 303 1296 346.5 c 128,-1,8
 1364 390 1364 390 1419 452 c 0,9,10
 1520 567 1520 567 1563 719 c 0,11,12
 1585 798 1585 798 1585 864 c 0,13,14
 1585 937 1585 937 1559.5 995.5 c 128,-1,15
 1534 1054 1534 1054 1490.5 1091 c 128,-1,16
 1447 1128 1447 1128 1396 1150.5 c 128,-1,17
 1345 1173 1345 1173 1286 1182 c 0,18,19
 1238 1189 1238 1189 1150 1189 c 2,0,-1
1209 1421 m 2,20,21
 1355 1421 1355 1421 1468.5 1396.5 c 128,-1,22
 1582 1372 1582 1372 1654.5 1330.5 c 128,-1,23
 1727 1289 1727 1289 1774 1229.5 c 128,-1,24
 1821 1170 1821 1170 1840 1105 c 128,-1,25
 1859 1040 1859 1040 1859 964 c 0,26,27
 1859 868 1859 868 1826 752 c 0,28,29
 1800 660 1800 660 1760.5 574.5 c 128,-1,30
 1721 489 1721 489 1657 400.5 c 128,-1,31
 1593 312 1593 312 1513.5 241.5 c 128,-1,32
 1434 171 1434 171 1322.5 114.5 c 128,-1,33
 1211 58 1211 58 1080 31 c 0,34,35
 1013 17 1013 17 934 9.5 c 128,-1,36
 855 2 855 2 805 1 c 128,-1,37
 755 0 755 0 666 0 c 2,38,-1
 298 0 l 1,39,-1
 705 1421 l 1,40,-1
 1209 1421 l 2,20,21
EndSplineSet
EndChar

StartChar: E
Encoding: 69 69 40
Width: 1447
Flags: W
LayerCount: 2
Fore
SplineSet
290 0 m 1,0,-1
 697 1421 l 1,1,-1
 1694 1421 l 1,2,-1
 1628 1189 l 1,3,-1
 884 1189 l 1,4,-1
 786 848 l 1,5,-1
 1475 848 l 1,6,-1
 1409 616 l 1,7,-1
 720 616 l 1,8,-1
 610 232 l 1,9,-1
 1354 232 l 1,10,-1
 1287 0 l 1,11,-1
 290 0 l 1,0,-1
EndSplineSet
EndChar

StartChar: F
Encoding: 70 70 41
Width: 1412
Flags: W
LayerCount: 2
Fore
SplineSet
884 1189 m 1,0,-1
 786 848 l 1,1,-1
 1460 848 l 1,2,-1
 1394 616 l 1,3,-1
 720 616 l 1,4,-1
 543 0 l 1,5,-1
 290 0 l 1,6,-1
 697 1421 l 1,7,-1
 1684 1421 l 1,8,-1
 1618 1189 l 1,9,-1
 884 1189 l 1,0,-1
EndSplineSet
EndChar

StartChar: G
Encoding: 71 71 42
Width: 1755
Flags: W
LayerCount: 2
Fore
SplineSet
1664 206 m 1,0,1
 1391 -20 1391 -20 1007 -20 c 0,2,3
 875 -20 875 -20 769.5 7.5 c 128,-1,4
 664 35 664 35 593.5 82 c 128,-1,5
 523 129 523 129 476 195 c 128,-1,6
 429 261 429 261 408 335.5 c 128,-1,7
 387 410 387 410 387 495 c 0,8,9
 387 599 387 599 418 709 c 0,10,11
 450 822 450 822 511.5 927 c 128,-1,12
 573 1032 573 1032 665 1124 c 128,-1,13
 757 1216 757 1216 869 1284.5 c 128,-1,14
 981 1353 981 1353 1123.5 1392.5 c 128,-1,15
 1266 1432 1266 1432 1421 1432 c 0,16,17
 1703 1432 1703 1432 1893 1306 c 2,18,-1
 1923 1286 l 1,19,-1
 1761 1088 l 1,20,-1
 1730 1107 l 1,21,22
 1668 1143 1668 1143 1570 1171.5 c 128,-1,23
 1472 1200 1472 1200 1364 1200 c 0,24,25
 1221 1200 1221 1200 1080.5 1144.5 c 128,-1,26
 940 1089 940 1089 828 977 c 128,-1,27
 716 865 716 865 674 719 c 0,28,29
 654 652 654 652 654 584 c 0,30,31
 654 416 654 416 780 314.5 c 128,-1,32
 906 213 906 213 1118 213 c 0,33,34
 1302 213 1302 213 1443 296 c 1,35,-1
 1521 569 l 1,36,-1
 1076 569 l 1,37,-1
 1140 791 l 1,38,-1
 1832 791 l 1,39,-1
 1664 206 l 1,0,1
EndSplineSet
EndChar

StartChar: H
Encoding: 72 72 43
Width: 1764
Flags: W
LayerCount: 2
Fore
SplineSet
1709 1421 m 1,0,-1
 1961 1421 l 1,1,-1
 1554 0 l 1,2,-1
 1302 0 l 1,3,-1
 1479 617 l 1,4,-1
 719 617 l 1,5,-1
 542 0 l 1,6,-1
 290 0 l 1,7,-1
 697 1421 l 1,8,-1
 949 1421 l 1,9,-1
 785 849 l 1,10,-1
 1545 849 l 1,11,-1
 1709 1421 l 1,0,-1
EndSplineSet
EndChar

StartChar: I
Encoding: 73 73 44
Width: 812
Flags: W
LayerCount: 2
Fore
SplineSet
727 1421 m 1,0,-1
 979 1421 l 1,1,-1
 572 0 l 1,2,-1
 320 0 l 1,3,-1
 727 1421 l 1,0,-1
EndSplineSet
EndChar

StartChar: J
Encoding: 74 74 45
Width: 1117
Flags: W
LayerCount: 2
Fore
SplineSet
1069 1421 m 1,0,-1
 1321 1421 l 1,1,-1
 1061 511 l 2,2,3
 1046 457 1046 457 1028 411 c 128,-1,4
 1010 365 1010 365 979.5 309.5 c 128,-1,5
 949 254 949 254 912 209.5 c 128,-1,6
 875 165 875 165 819.5 121 c 128,-1,7
 764 77 764 77 698.5 48 c 128,-1,8
 633 19 633 19 543 1 c 128,-1,9
 453 -17 453 -17 349 -17 c 0,10,11
 241 -17 241 -17 150 8 c 2,12,-1
 115 18 l 1,13,-1
 221 240 l 1,14,-1
 260 230 l 2,15,16
 318 215 318 215 388 215 c 0,17,18
 454 215 454 215 511 227.5 c 128,-1,19
 568 240 568 240 607.5 258.5 c 128,-1,20
 647 277 647 277 680.5 305 c 128,-1,21
 714 333 714 333 734 358 c 128,-1,22
 754 383 754 383 770.5 415.5 c 128,-1,23
 787 448 787 448 794.5 468 c 128,-1,24
 802 488 802 488 809 513 c 2,25,-1
 1069 1421 l 1,0,-1
EndSplineSet
EndChar

StartChar: K
Encoding: 75 75 46
Width: 1581
Flags: W
LayerCount: 2
Fore
SplineSet
763 770 m 1,0,-1
 1597 1421 l 1,1,-1
 1920 1421 l 1,2,-1
 1042 741 l 1,3,-1
 1549 0 l 1,4,-1
 1222 0 l 1,5,-1
 739 688 l 1,6,-1
 542 0 l 1,7,-1
 290 0 l 1,8,-1
 697 1421 l 1,9,-1
 949 1421 l 1,10,-1
 763 770 l 1,0,-1
EndSplineSet
EndChar

StartChar: L
Encoding: 76 76 47
Width: 1297
Flags: W
LayerCount: 2
Fore
SplineSet
697 1421 m 1,0,-1
 949 1421 l 1,1,-1
 608 231 l 1,2,-1
 1328 231 l 1,3,-1
 1262 0 l 1,4,-1
 290 0 l 1,5,-1
 697 1421 l 1,0,-1
EndSplineSet
EndChar

StartChar: M
Encoding: 77 77 48
Width: 2048
Flags: W
LayerCount: 2
Fore
SplineSet
697 1421 m 1,0,-1
 1003 1421 l 1,1,-1
 1241 605 l 1,2,-1
 1954 1421 l 1,3,-1
 2245 1421 l 1,4,-1
 1838 0 l 1,5,-1
 1586 0 l 1,6,-1
 1891 1063 l 1,7,-1
 1299 407 l 1,8,-1
 1061 407 l 1,9,-1
 847 1063 l 1,10,-1
 542 0 l 1,11,-1
 290 0 l 1,12,-1
 697 1421 l 1,0,-1
EndSplineSet
EndChar

StartChar: N
Encoding: 78 78 49
Width: 1823
Flags: W
LayerCount: 2
Fore
SplineSet
697 1421 m 1,0,-1
 975 1421 l 1,1,-1
 1455 329 l 1,2,-1
 1768 1421 l 1,3,-1
 2020 1421 l 1,4,-1
 1613 0 l 1,5,-1
 1332 0 l 1,6,-1
 856 1094 l 1,7,-1
 542 0 l 1,8,-1
 290 0 l 1,9,-1
 697 1421 l 1,0,-1
EndSplineSet
EndChar

StartChar: O
Encoding: 79 79 50
Width: 1850
Flags: W
LayerCount: 2
Fore
SplineSet
1378 1436 m 0,0,1
 1646 1436 1646 1436 1801.5 1306 c 128,-1,2
 1957 1176 1957 1176 1957 947 c 0,3,4
 1957 843 1957 843 1923 726 c 0,5,6
 1861 508 1861 508 1717.5 339.5 c 128,-1,7
 1574 171 1574 171 1375.5 78 c 128,-1,8
 1177 -15 1177 -15 954 -15 c 0,9,10
 833 -15 833 -15 730 16 c 128,-1,11
 627 47 627 47 549 107 c 128,-1,12
 471 167 471 167 427 262 c 128,-1,13
 383 357 383 357 383 477 c 0,14,15
 383 584 383 584 418 707 c 0,16,17
 481 926 481 926 624.5 1092.5 c 128,-1,18
 768 1259 768 1259 963.5 1347.5 c 128,-1,19
 1159 1436 1159 1436 1378 1436 c 0,0,1
1302 1205 m 0,20,21
 1211 1205 1211 1205 1119 1176.5 c 128,-1,22
 1027 1148 1027 1148 940.5 1092 c 128,-1,23
 854 1036 854 1036 785 941.5 c 128,-1,24
 716 847 716 847 681 727 c 0,25,26
 656 640 656 640 656 564 c 0,27,28
 656 402 656 402 759.5 309 c 128,-1,29
 863 216 863 216 1035 216 c 0,30,31
 1124 216 1124 216 1216 245 c 128,-1,32
 1308 274 1308 274 1395 331 c 128,-1,33
 1482 388 1482 388 1553 486 c 128,-1,34
 1624 584 1624 584 1660 709 c 0,35,36
 1685 796 1685 796 1685 869 c 0,37,38
 1685 954 1685 954 1652.5 1020.5 c 128,-1,39
 1620 1087 1620 1087 1565.5 1126 c 128,-1,40
 1511 1165 1511 1165 1444 1185 c 128,-1,41
 1377 1205 1377 1205 1302 1205 c 0,20,21
EndSplineSet
EndChar

StartChar: P
Encoding: 80 80 51
Width: 1503
Flags: W
LayerCount: 2
Fore
SplineSet
697 1421 m 1,0,-1
 1207 1421 l 2,1,2
 1258 1421 1258 1421 1292.5 1420 c 128,-1,3
 1327 1419 1327 1419 1384 1413.5 c 128,-1,4
 1441 1408 1441 1408 1481 1398 c 128,-1,5
 1521 1388 1521 1388 1567 1367.5 c 128,-1,6
 1613 1347 1613 1347 1641.5 1319 c 128,-1,7
 1670 1291 1670 1291 1689.5 1247 c 128,-1,8
 1709 1203 1709 1203 1709 1148 c 0,9,10
 1709 1090 1709 1090 1689 1021 c 0,11,12
 1663 931 1663 931 1619 858.5 c 128,-1,13
 1575 786 1575 786 1523.5 737.5 c 128,-1,14
 1472 689 1472 689 1403 653.5 c 128,-1,15
 1334 618 1334 618 1269 598 c 128,-1,16
 1204 578 1204 578 1121.5 566.5 c 128,-1,17
 1039 555 1039 555 972.5 551.5 c 128,-1,18
 906 548 906 548 822 548 c 0,19,20
 780 548 780 548 700 552 c 1,21,-1
 542 0 l 1,22,-1
 290 0 l 1,23,-1
 697 1421 l 1,0,-1
883 1189 m 1,24,-1
 767 784 l 1,25,26
 844 779 844 779 906 779 c 0,27,28
 989 779 989 779 1047.5 782.5 c 128,-1,29
 1106 786 1106 786 1174 798.5 c 128,-1,30
 1242 811 1242 811 1287.5 833.5 c 128,-1,31
 1333 856 1333 856 1370.5 896.5 c 128,-1,32
 1408 937 1408 937 1424 994 c 0,33,34
 1432 1021 1432 1021 1432 1048 c 0,35,36
 1432 1084 1432 1084 1413 1110.5 c 128,-1,37
 1394 1137 1394 1137 1364.5 1152 c 128,-1,38
 1335 1167 1335 1167 1287.5 1175.5 c 128,-1,39
 1240 1184 1240 1184 1195.5 1186.5 c 128,-1,40
 1151 1189 1151 1189 1090 1189 c 2,41,-1
 883 1189 l 1,24,-1
EndSplineSet
EndChar

StartChar: Q
Encoding: 81 81 52
Width: 1870
Flags: W
LayerCount: 2
Fore
SplineSet
1378 1436 m 0,0,1
 1529 1436 1529 1436 1642.5 1396.5 c 128,-1,2
 1756 1357 1756 1357 1822.5 1287 c 128,-1,3
 1889 1217 1889 1217 1921 1129 c 128,-1,4
 1953 1041 1953 1041 1953 936 c 0,5,6
 1953 758 1953 758 1869.5 570.5 c 128,-1,7
 1786 383 1786 383 1649 248 c 1,8,-1
 1784 75 l 1,9,-1
 1594 -73 l 1,10,-1
 1446 109 l 1,11,12
 1220 -15 1220 -15 964 -15 c 0,13,14
 697 -15 697 -15 539.5 114.5 c 128,-1,15
 382 244 382 244 382 477 c 0,16,17
 382 585 382 585 417 705 c 0,18,19
 513 1038 513 1038 778.5 1237 c 128,-1,20
 1044 1436 1044 1436 1378 1436 c 0,0,1
1297 1205 m 0,21,22
 1209 1205 1209 1205 1119 1177 c 128,-1,23
 1029 1149 1029 1149 942.5 1093.5 c 128,-1,24
 856 1038 856 1038 785.5 942 c 128,-1,25
 715 846 715 846 680 723 c 0,26,27
 655 636 655 636 655 561 c 0,28,29
 655 396 655 396 765.5 306 c 128,-1,30
 876 216 876 216 1052 216 c 0,31,32
 1183 216 1183 216 1303 269 c 1,33,-1
 1046 538 l 1,34,-1
 1268 693 l 1,35,-1
 1512 422 l 1,36,37
 1604 528 1604 528 1650 687 c 0,38,39
 1679 788 1679 788 1679 871 c 0,40,41
 1679 946 1679 946 1655 1006 c 128,-1,42
 1631 1066 1631 1066 1593 1102.5 c 128,-1,43
 1555 1139 1555 1139 1503.5 1162.5 c 128,-1,44
 1452 1186 1452 1186 1401.5 1195.5 c 128,-1,45
 1351 1205 1351 1205 1297 1205 c 0,21,22
EndSplineSet
EndChar

StartChar: R
Encoding: 82 82 53
Width: 1601
Flags: W
LayerCount: 2
Fore
SplineSet
1682 1014 m 0,0,1
 1641 870 1641 870 1533.5 756.5 c 128,-1,2
 1426 643 1426 643 1250 594 c 1,3,-1
 1509 0 l 1,4,-1
 1181 0 l 1,5,-1
 941 551 l 1,6,-1
 700 551 l 1,7,-1
 542 0 l 1,8,-1
 290 0 l 1,9,-1
 697 1421 l 1,10,-1
 1302 1421 l 2,11,12
 1704 1421 1704 1421 1704 1155 c 0,13,14
 1704 1093 1704 1093 1682 1014 c 0,0,1
883 1190 m 1,15,-1
 767 783 l 1,16,-1
 999 783 l 2,17,18
 1076 783 1076 783 1133 790 c 128,-1,19
 1190 797 1190 797 1250.5 817.5 c 128,-1,20
 1311 838 1311 838 1352 881.5 c 128,-1,21
 1393 925 1393 925 1412 991 c 0,22,23
 1421 1022 1421 1022 1421 1049 c 0,24,25
 1421 1190 1421 1190 1162 1190 c 2,26,-1
 883 1190 l 1,15,-1
EndSplineSet
EndChar

StartChar: S
Encoding: 83 83 54
Width: 1525
Flags: W
LayerCount: 2
Fore
SplineSet
1338 1434 m 0,0,1
 1537 1434 1537 1434 1714 1375 c 1,2,-1
 1752 1363 l 1,3,-1
 1603 1131 l 1,4,-1
 1568 1142 l 1,5,6
 1400 1192 1400 1192 1253 1192 c 128,-1,7
 1106 1192 1106 1192 988 1144 c 128,-1,8
 870 1096 870 1096 848 1021 c 0,9,10
 844 1008 844 1008 844 994 c 0,11,12
 844 955 844 955 881.5 923.5 c 128,-1,13
 919 892 919 892 979.5 869.5 c 128,-1,14
 1040 847 1040 847 1113 825 c 128,-1,15
 1186 803 1186 803 1258.5 775 c 128,-1,16
 1331 747 1331 747 1391.5 712 c 128,-1,17
 1452 677 1452 677 1489.5 622 c 128,-1,18
 1527 567 1527 567 1527 498 c 0,19,20
 1527 459 1527 459 1513 409 c 0,21,22
 1496 349 1496 349 1458.5 290.5 c 128,-1,23
 1421 232 1421 232 1356.5 175 c 128,-1,24
 1292 118 1292 118 1208.5 75.5 c 128,-1,25
 1125 33 1125 33 1006.5 6.5 c 128,-1,26
 888 -20 888 -20 751 -20 c 128,-1,27
 614 -20 614 -20 512 5.5 c 128,-1,28
 410 31 410 31 300 79 c 1,29,-1
 267 93 l 1,30,-1
 421 335 l 1,31,-1
 456 320 l 1,32,33
 684 230 684 230 847 230 c 0,34,35
 1001 230 1001 230 1110 277 c 128,-1,36
 1219 324 1219 324 1241 401 c 0,37,38
 1246 421 1246 421 1246 434 c 0,39,40
 1246 477 1246 477 1208 510 c 128,-1,41
 1170 543 1170 543 1109 566 c 128,-1,42
 1048 589 1048 589 975 610 c 128,-1,43
 902 631 902 631 828.5 657.5 c 128,-1,44
 755 684 755 684 694 717 c 128,-1,45
 633 750 633 750 595 803 c 128,-1,46
 557 856 557 856 557 924 c 0,47,48
 557 965 557 965 570 1010 c 0,49,50
 622 1190 622 1190 833 1312 c 128,-1,51
 1044 1434 1044 1434 1338 1434 c 0,0,1
EndSplineSet
EndChar

StartChar: T
Encoding: 84 84 55
Width: 1374
Flags: W
LayerCount: 2
Fore
SplineSet
492 1421 m 1,0,-1
 1776 1421 l 1,1,-1
 1710 1189 l 1,2,-1
 1194 1189 l 1,3,-1
 853 0 l 1,4,-1
 601 0 l 1,5,-1
 942 1189 l 1,6,-1
 426 1189 l 1,7,-1
 492 1421 l 1,0,-1
EndSplineSet
EndChar

StartChar: U
Encoding: 85 85 56
Width: 1737
Flags: W
LayerCount: 2
Fore
SplineSet
903 -20 m 0,0,1
 396 -20 396 -20 396 292 c 0,2,3
 396 315 396 315 398.5 338.5 c 128,-1,4
 401 362 401 362 406 387 c 128,-1,5
 411 412 411 412 414.5 427 c 128,-1,6
 418 442 418 442 425 467.5 c 128,-1,7
 432 493 432 493 433 498 c 2,8,-1
 697 1421 l 1,9,-1
 949 1421 l 1,10,-1
 691 520 l 1,11,12
 670 443 670 443 670 401 c 0,13,14
 670 342 670 342 702 302 c 0,15,16
 774 209 774 209 969 209 c 0,17,18
 1076 209 1076 209 1160 237 c 128,-1,19
 1244 265 1244 265 1289.5 301.5 c 128,-1,20
 1335 338 1335 338 1366.5 386.5 c 128,-1,21
 1398 435 1398 435 1407.5 462.5 c 128,-1,22
 1417 490 1417 490 1423 514 c 0,23,24
 1424 519 1424 519 1424 520 c 2,25,-1
 1682 1421 l 1,26,-1
 1932 1421 l 1,27,-1
 1674 511 l 2,28,29
 1660 464 1660 464 1646.5 426.5 c 128,-1,30
 1633 389 1633 389 1603 331 c 128,-1,31
 1573 273 1573 273 1536.5 228.5 c 128,-1,32
 1500 184 1500 184 1440 135 c 128,-1,33
 1380 86 1380 86 1307 54 c 128,-1,34
 1234 22 1234 22 1130 1 c 128,-1,35
 1026 -20 1026 -20 903 -20 c 0,0,1
EndSplineSet
EndChar

StartChar: V
Encoding: 86 86 57
Width: 1565
Flags: W
LayerCount: 2
Fore
SplineSet
547 1421 m 1,0,-1
 836 1421 l 1,1,-1
 925 271 l 1,2,-1
 1671 1421 l 1,3,-1
 1945 1421 l 1,4,-1
 988 0 l 1,5,-1
 689 0 l 1,6,-1
 547 1421 l 1,0,-1
EndSplineSet
EndChar

StartChar: W
Encoding: 87 87 58
Width: 2411
Flags: W
LayerCount: 2
Fore
SplineSet
547 1421 m 1,0,-1
 813 1421 l 1,1,-1
 827 329 l 1,2,-1
 1551 1421 l 1,3,-1
 1783 1421 l 1,4,-1
 1808 329 l 1,5,-1
 2521 1421 l 1,6,-1
 2787 1421 l 1,7,-1
 1835 0 l 1,8,-1
 1594 0 l 1,9,-1
 1564 1087 l 1,10,-1
 850 0 l 1,11,-1
 609 0 l 1,12,-1
 547 1421 l 1,0,-1
EndSplineSet
EndChar

StartChar: X
Encoding: 88 88 59
Width: 1532
Flags: W
LayerCount: 2
Fore
SplineSet
1632 1421 m 1,0,-1
 1927 1421 l 1,1,-1
 1233 744 l 1,2,-1
 1575 0 l 1,3,-1
 1256 0 l 1,4,-1
 1000 566 l 1,5,-1
 420 0 l 1,6,-1
 110 0 l 1,7,-1
 885 741 l 1,8,-1
 579 1421 l 1,9,-1
 883 1421 l 1,10,-1
 1121 919 l 1,11,-1
 1632 1421 l 1,0,-1
EndSplineSet
EndChar

StartChar: Y
Encoding: 89 89 60
Width: 1427
Flags: W
LayerCount: 2
Fore
SplineSet
507 1421 m 1,0,-1
 805 1421 l 1,1,-1
 1027 870 l 1,2,-1
 1573 1421 l 1,3,-1
 1861 1421 l 1,4,-1
 1099 664 l 1,5,-1
 909 0 l 1,6,-1
 626 0 l 1,7,-1
 816 664 l 1,8,-1
 507 1421 l 1,0,-1
EndSplineSet
EndChar

StartChar: Z
Encoding: 90 90 61
Width: 1522
Flags: W
LayerCount: 2
Fore
SplineSet
592 1421 m 1,0,-1
 1842 1421 l 1,1,-1
 1799 1268 l 1,2,-1
 584 232 l 1,3,-1
 1529 232 l 1,4,-1
 1462 0 l 1,5,-1
 155 0 l 1,6,-1
 199 155 l 1,7,-1
 1393 1189 l 1,8,-1
 526 1189 l 1,9,-1
 592 1421 l 1,0,-1
EndSplineSet
EndChar

StartChar: bracketleft
Encoding: 91 91 62
Width: 788
Flags: W
LayerCount: 2
Fore
SplineSet
654 1552 m 1,0,-1
 1194 1552 l 1,1,-1
 1128 1321 l 1,2,-1
 834 1321 l 1,3,-1
 392 -220 l 1,4,-1
 686 -220 l 1,5,-1
 620 -451 l 1,6,-1
 80 -451 l 1,7,-1
 654 1552 l 1,0,-1
EndSplineSet
EndChar

StartChar: backslash
Encoding: 92 92 63
Width: 726
Flags: W
LayerCount: 2
Fore
SplineSet
382 1462 m 1,0,-1
 639 1462 l 1,1,-1
 705 -131 l 1,2,-1
 448 -131 l 1,3,-1
 382 1462 l 1,0,-1
EndSplineSet
EndChar

StartChar: bracketright
Encoding: 93 93 64
Width: 778
Flags: W
LayerCount: 2
Fore
SplineSet
484 1552 m 1,0,-1
 1024 1552 l 1,1,-1
 450 -451 l 1,2,-1
 -90 -451 l 1,3,-1
 -24 -220 l 1,4,-1
 270 -220 l 1,5,-1
 712 1321 l 1,6,-1
 418 1321 l 1,7,-1
 484 1552 l 1,0,-1
EndSplineSet
EndChar

StartChar: asciicircum
Encoding: 94 94 65
Width: 1479
Flags: W
LayerCount: 2
Fore
SplineSet
1185 1601 m 1,0,-1
 1397 1253 l 1,1,-1
 1204 1108 l 1,2,-1
 1085 1302 l 1,3,-1
 852 1109 l 1,4,-1
 741 1244 l 1,5,-1
 1185 1601 l 1,0,-1
EndSplineSet
EndChar

StartChar: underscore
Encoding: 95 95 66
Width: 1160
Flags: W
LayerCount: 2
Fore
SplineSet
164 191 m 1,0,-1
 1106 191 l 1,1,-1
 1039 -41 l 1,2,-1
 97 -41 l 1,3,-1
 164 191 l 1,0,-1
EndSplineSet
EndChar

StartChar: grave
Encoding: 96 96 67
Width: 1122
Flags: W
LayerCount: 2
Fore
SplineSet
802 1643 m 1,0,-1
 1275 1290 l 1,1,-1
 1120 1112 l 1,2,-1
 633 1448 l 1,3,-1
 802 1643 l 1,0,-1
EndSplineSet
EndChar

StartChar: a
Encoding: 97 97 68
Width: 1222
Flags: W
LayerCount: 2
Fore
SplineSet
871 982 m 0,0,1
 1241 982 1241 982 1241 753 c 0,2,3
 1241 702 1241 702 1221 632 c 2,4,-1
 1039 0 l 1,5,-1
 855 0 l 1,6,-1
 846 65 l 1,7,8
 691 -20 691 -20 523 -20 c 0,9,10
 366 -20 366 -20 277 45 c 128,-1,11
 188 110 188 110 188 208 c 0,12,13
 188 239 188 239 196 266 c 0,14,15
 222 355 222 355 292.5 416 c 128,-1,16
 363 477 363 477 472 508.5 c 128,-1,17
 581 540 581 540 695 553 c 128,-1,18
 809 566 809 566 955 568 c 1,19,-1
 964 600 l 2,20,21
 975 638 975 638 975 662 c 0,22,23
 975 764 975 764 776 764 c 0,24,25
 666 764 666 764 472 720 c 1,26,-1
 429 709 l 1,27,-1
 435 906 l 1,28,-1
 473 918 l 2,29,30
 674 982 674 982 871 982 c 0,0,1
864 251 m 1,31,-1
 902 382 l 1,32,-1
 878 382 l 2,33,34
 680 382 680 382 578 359.5 c 128,-1,35
 476 337 476 337 461 284 c 0,36,37
 460 281 460 281 460 274 c 0,38,39
 460 242 460 242 509.5 216.5 c 128,-1,40
 559 191 559 191 637 191 c 0,41,42
 755 191 755 191 864 251 c 1,31,-1
EndSplineSet
EndChar

StartChar: b
Encoding: 98 98 69
Width: 1333
Flags: W
LayerCount: 2
Fore
SplineSet
619 1511 m 1,0,-1
 865 1511 l 1,1,-1
 701 939 l 1,2,3
 840 983 840 983 972 983 c 0,4,5
 1034 983 1034 983 1089 973 c 128,-1,6
 1144 963 1144 963 1196 939.5 c 128,-1,7
 1248 916 1248 916 1285.5 880 c 128,-1,8
 1323 844 1323 844 1345.5 788.5 c 128,-1,9
 1368 733 1368 733 1368 662 c 0,10,11
 1368 588 1368 588 1341 492 c 0,12,13
 1273 252 1273 252 1087 116 c 128,-1,14
 901 -20 901 -20 650 -20 c 0,15,16
 501 -20 501 -20 390 32 c 1,17,-1
 367 0 l 1,18,-1
 185 0 l 1,19,-1
 619 1511 l 1,0,-1
843 765 m 0,20,21
 744 765 744 765 642 734 c 1,22,-1
 494 219 l 1,23,24
 588 191 588 191 682 191 c 0,25,26
 727 191 727 191 770.5 197.5 c 128,-1,27
 814 204 814 204 865.5 223 c 128,-1,28
 917 242 917 242 959 271.5 c 128,-1,29
 1001 301 1001 301 1037 351.5 c 128,-1,30
 1073 402 1073 402 1092 467 c 0,31,32
 1108 524 1108 524 1108 569 c 0,33,34
 1108 616 1108 616 1091 652 c 128,-1,35
 1074 688 1074 688 1047.5 709 c 128,-1,36
 1021 730 1021 730 984.5 743 c 128,-1,37
 948 756 948 756 914 760.5 c 128,-1,38
 880 765 880 765 843 765 c 0,20,21
EndSplineSet
EndChar

StartChar: c
Encoding: 99 99 70
Width: 1147
Flags: W
LayerCount: 2
Fore
SplineSet
259 461 m 0,0,1
 292 575 292 575 349 665 c 128,-1,2
 406 755 406 755 476 813.5 c 128,-1,3
 546 872 546 872 631.5 910.5 c 128,-1,4
 717 949 717 949 802.5 965 c 128,-1,5
 888 981 888 981 980 981 c 0,6,7
 1147 981 1147 981 1269 919 c 2,8,-1
 1299 904 l 1,9,-1
 1180 711 l 1,10,-1
 1146 724 l 2,11,12
 1056 758 1056 758 943 758 c 0,13,14
 585 758 585 758 509 491 c 0,15,16
 494 437 494 437 494 395 c 0,17,18
 494 197 494 197 804 197 c 0,19,20
 896 197 896 197 991 227 c 1,21,-1
 1033 239 l 1,22,-1
 1045 52 l 1,23,-1
 1004 38 l 1,24,25
 841 -20 841 -20 671 -20 c 0,26,27
 599 -20 599 -20 537 -10.5 c 128,-1,28
 475 -1 475 -1 418 21.5 c 128,-1,29
 361 44 361 44 321 79.5 c 128,-1,30
 281 115 281 115 257 170 c 128,-1,31
 233 225 233 225 233 296 c 0,32,33
 233 371 233 371 259 461 c 0,0,1
EndSplineSet
EndChar

StartChar: d
Encoding: 100 100 71
Width: 1338
Flags: W
LayerCount: 2
Fore
SplineSet
260 466 m 0,0,1
 331 714 331 714 518 848.5 c 128,-1,2
 705 983 705 983 952 983 c 0,3,4
 1067 983 1067 983 1171 949 c 1,5,-1
 1332 1511 l 1,6,-1
 1578 1511 l 1,7,-1
 1145 0 l 1,8,-1
 963 0 l 1,9,-1
 956 46 l 1,10,11
 795 -20 795 -20 632 -20 c 0,12,13
 552 -20 552 -20 483 -3 c 128,-1,14
 414 14 414 14 357 50.5 c 128,-1,15
 300 87 300 87 267 150.5 c 128,-1,16
 234 214 234 214 234 300 c 0,17,18
 234 376 234 376 260 466 c 0,0,1
758 197 m 0,19,20
 855 197 855 197 965 231 c 1,21,-1
 1112 744 l 1,22,23
 1016 772 1016 772 921 772 c 0,24,25
 877 772 877 772 834.5 766 c 128,-1,26
 792 760 792 760 740 741 c 128,-1,27
 688 722 688 722 645.5 692 c 128,-1,28
 603 662 603 662 565.5 609.5 c 128,-1,29
 528 557 528 557 509 489 c 0,30,31
 494 435 494 435 494 393 c 0,32,33
 494 336 494 336 518.5 295.5 c 128,-1,34
 543 255 543 255 584 234.5 c 128,-1,35
 625 214 625 214 667.5 205.5 c 128,-1,36
 710 197 710 197 758 197 c 0,19,20
EndSplineSet
EndChar

StartChar: e
Encoding: 101 101 72
Width: 1240
Flags: W
LayerCount: 2
Fore
SplineSet
966 982 m 0,0,1
 1288 982 1288 982 1288 721 c 0,2,3
 1288 632 1288 632 1244 475 c 1,4,-1
 1212 365 l 1,5,-1
 488 365 l 1,6,7
 489 295 489 295 569.5 244 c 128,-1,8
 650 193 650 193 806 193 c 0,9,10
 917 193 917 193 1040 227 c 1,11,-1
 1083 238 l 1,12,-1
 1077 49 l 1,13,-1
 1038 37 l 1,14,15
 859 -20 859 -20 675 -20 c 0,16,17
 552 -20 552 -20 463 5 c 128,-1,18
 374 30 374 30 325 75 c 128,-1,19
 276 120 276 120 254 174.5 c 128,-1,20
 232 229 232 229 232 296 c 0,21,22
 232 369 232 369 256 452 c 0,23,24
 294 586 294 586 371 690 c 128,-1,25
 448 794 448 794 545.5 856.5 c 128,-1,26
 643 919 643 919 749.5 950.5 c 128,-1,27
 856 982 856 982 966 982 c 0,0,1
862 758 m 0,28,29
 750 758 750 758 667 704.5 c 128,-1,30
 584 651 584 651 549 571 c 1,31,-1
 1036 571 l 1,32,33
 1043 608 1043 608 1043 627 c 0,34,35
 1043 758 1043 758 862 758 c 0,28,29
EndSplineSet
EndChar

StartChar: f
Encoding: 102 102 73
Width: 960
Flags: W
LayerCount: 2
Fore
SplineSet
585 1026 m 2,0,1
 595 1061 595 1061 601.5 1082 c 128,-1,2
 608 1103 608 1103 622.5 1140 c 128,-1,3
 637 1177 637 1177 651 1201 c 128,-1,4
 665 1225 665 1225 689 1258 c 128,-1,5
 713 1291 713 1291 739.5 1313 c 128,-1,6
 766 1335 766 1335 804.5 1359 c 128,-1,7
 843 1383 843 1383 887 1397 c 128,-1,8
 931 1411 931 1411 989 1420 c 128,-1,9
 1047 1429 1047 1429 1113 1429 c 0,10,11
 1236 1429 1236 1429 1359 1388 c 2,12,-1
 1392 1377 l 1,13,-1
 1293 1173 l 1,14,-1
 1255 1184 l 1,15,16
 1170 1210 1170 1210 1118 1210 c 0,17,18
 884 1210 884 1210 834 1037 c 2,19,-1
 813 963 l 1,20,-1
 1198 963 l 1,21,-1
 1137 752 l 1,22,-1
 752 752 l 1,23,-1
 492 -156 l 2,24,25
 455 -286 455 -286 407 -353 c 0,26,27
 281 -531 281 -531 -29 -531 c 0,28,29
 -152 -531 -152 -531 -275 -491 c 1,30,-1
 -307 -480 l 1,31,-1
 -211 -284 l 1,32,-1
 -173 -294 l 2,33,34
 -91 -316 -91 -316 -35 -316 c 0,35,36
 201 -316 201 -316 244 -163 c 2,37,-1
 506 752 l 1,38,-1
 347 752 l 1,39,-1
 408 963 l 1,40,-1
 567 963 l 1,41,-1
 585 1026 l 2,0,1
EndSplineSet
EndChar

StartChar: g
Encoding: 103 103 74
Width: 1326
Flags: W
LayerCount: 2
Fore
SplineSet
949 983 m 0,0,1
 1077 983 1077 983 1207 920 c 1,2,-1
 1235 963 l 1,3,-1
 1420 963 l 1,4,-1
 1135 -29 l 2,5,6
 1113 -104 1113 -104 1080 -171 c 128,-1,7
 1047 -238 1047 -238 988.5 -308 c 128,-1,8
 930 -378 930 -378 855.5 -427.5 c 128,-1,9
 781 -477 781 -477 670 -509 c 128,-1,10
 559 -541 559 -541 427 -541 c 0,11,12
 239 -541 239 -541 89 -474 c 1,13,-1
 57 -458 l 1,14,-1
 188 -264 l 1,15,-1
 224 -279 l 1,16,17
 340 -322 340 -322 464 -322 c 0,18,19
 775 -322 775 -322 878 -55 c 0,20,21
 882 -46 882 -46 905 25 c 1,22,23
 768 -20 768 -20 643 -20 c 0,24,25
 561 -20 561 -20 490.5 -1.5 c 128,-1,26
 420 17 420 17 361.5 55 c 128,-1,27
 303 93 303 93 269.5 159.5 c 128,-1,28
 236 226 236 226 236 313 c 0,29,30
 236 389 236 389 262 479 c 0,31,32
 294 589 294 589 355.5 678 c 128,-1,33
 417 767 417 767 489.5 822.5 c 128,-1,34
 562 878 562 878 646.5 915.5 c 128,-1,35
 731 953 731 953 805.5 968 c 128,-1,36
 880 983 880 983 949 983 c 0,0,1
900 768 m 0,37,38
 764 768 764 768 660.5 694 c 128,-1,39
 557 620 557 620 521 495 c 0,40,41
 507 444 507 444 507 401 c 0,42,43
 507 308 507 308 570 252.5 c 128,-1,44
 633 197 633 197 759 197 c 0,45,46
 853 197 853 197 964 232 c 1,47,-1
 1107 732 l 1,48,49
 993 768 993 768 900 768 c 0,37,38
EndSplineSet
EndChar

StartChar: h
Encoding: 104 104 75
Width: 1328
Flags: W
LayerCount: 2
Fore
SplineSet
901 753 m 0,0,1
 786 753 786 753 632 700 c 1,2,-1
 431 0 l 1,3,-1
 185 0 l 1,4,-1
 619 1511 l 1,5,-1
 865 1511 l 1,6,-1
 693 912 l 1,7,8
 890 981 890 981 1042 981 c 0,9,10
 1336 981 1336 981 1336 743 c 0,11,12
 1336 666 1336 666 1301 548 c 1,13,-1
 1144 0 l 1,14,-1
 900 0 l 1,15,-1
 1060 559 l 1,16,17
 1072 597 1072 597 1072 629 c 0,18,19
 1072 753 1072 753 901 753 c 0,0,1
EndSplineSet
EndChar

StartChar: i
Encoding: 105 105 76
Width: 606
Flags: W
LayerCount: 2
Fore
SplineSet
572 1421 m 1,0,-1
 848 1421 l 1,1,-1
 771 1150 l 1,2,-1
 495 1150 l 1,3,-1
 572 1421 l 1,0,-1
463 988 m 1,4,-1
 709 988 l 1,5,-1
 426 0 l 1,6,-1
 180 0 l 1,7,-1
 463 988 l 1,4,-1
EndSplineSet
EndChar

StartChar: j
Encoding: 106 106 77
Width: 601
Flags: W
LayerCount: 2
Fore
SplineSet
582 1421 m 1,0,-1
 858 1421 l 1,1,-1
 780 1150 l 1,2,-1
 504 1150 l 1,3,-1
 582 1421 l 1,0,-1
473 988 m 1,4,-1
 719 988 l 1,5,-1
 408 -96 l 2,6,7
 394 -146 394 -146 381 -181.5 c 128,-1,8
 368 -217 368 -217 336 -273.5 c 128,-1,9
 304 -330 304 -330 263 -372 c 128,-1,10
 222 -414 222 -414 152 -458.5 c 128,-1,11
 82 -503 82 -503 -7 -532 c 2,12,-1
 -44 -544 l 1,13,-1
 -83 -350 l 1,14,-1
 -41 -332 l 2,15,16
 114 -266 114 -266 157 -113 c 2,17,-1
 473 988 l 1,4,-1
EndSplineSet
EndChar

StartChar: k
Encoding: 107 107 78
Width: 1225
Flags: W
LayerCount: 2
Fore
SplineSet
591 591 m 1,0,-1
 1173 1008 l 1,1,-1
 1470 1008 l 1,2,-1
 835 556 l 1,3,-1
 1196 0 l 1,4,-1
 894 0 l 1,5,-1
 563 492 l 1,6,-1
 422 0 l 1,7,-1
 176 0 l 1,8,-1
 609 1511 l 1,9,-1
 855 1511 l 1,10,-1
 591 591 l 1,0,-1
EndSplineSet
EndChar

StartChar: l
Encoding: 108 108 79
Width: 646
Flags: W
LayerCount: 2
Fore
SplineSet
633 1511 m 1,0,-1
 879 1511 l 1,1,-1
 446 0 l 1,2,-1
 200 0 l 1,3,-1
 633 1511 l 1,0,-1
EndSplineSet
EndChar

StartChar: m
Encoding: 109 109 80
Width: 1958
Flags: W
LayerCount: 2
Fore
SplineSet
865 749 m 0,0,1
 778 749 778 749 621 697 c 1,2,-1
 422 0 l 1,3,-1
 176 0 l 1,4,-1
 452 963 l 1,5,-1
 635 963 l 1,6,-1
 644 898 l 1,7,8
 842 982 842 982 1011 982 c 0,9,10
 1181 982 1181 982 1247 883 c 1,11,12
 1457 981 1457 981 1666 981 c 0,13,14
 1825 981 1825 981 1894 921 c 128,-1,15
 1963 861 1963 861 1963 751 c 0,16,17
 1963 679 1963 679 1933 572 c 2,18,-1
 1770 0 l 1,19,-1
 1524 0 l 1,20,-1
 1685 564 l 2,21,22
 1696 605 1696 605 1696 635 c 0,23,24
 1696 749 1696 749 1535 749 c 0,25,26
 1443 749 1443 749 1285 697 c 1,27,28
 1280 648 1280 648 1255 561 c 2,29,-1
 1095 0 l 1,30,-1
 849 0 l 1,31,-1
 1011 568 l 2,32,33
 1022 609 1022 609 1022 635 c 0,34,35
 1022 749 1022 749 865 749 c 0,0,1
EndSplineSet
EndChar

StartChar: n
Encoding: 110 110 81
Width: 1314
Flags: W
LayerCount: 2
Fore
SplineSet
452 963 m 1,0,-1
 624 963 l 1,1,-1
 638 895 l 1,2,3
 867 983 867 983 1040 983 c 0,4,5
 1325 983 1325 983 1325 756 c 0,6,7
 1325 681 1325 681 1293 569 c 2,8,-1
 1130 0 l 1,9,-1
 884 0 l 1,10,-1
 1045 562 l 2,11,12
 1058 610 1058 610 1058 638 c 0,13,14
 1058 753 1058 753 891 753 c 0,15,16
 779 753 779 753 622 700 c 1,17,-1
 422 0 l 1,18,-1
 176 0 l 1,19,-1
 452 963 l 1,0,-1
EndSplineSet
EndChar

StartChar: o
Encoding: 111 111 82
Width: 1359
Flags: W
LayerCount: 2
Fore
SplineSet
964 982 m 0,0,1
 1163 982 1163 982 1277.5 895.5 c 128,-1,2
 1392 809 1392 809 1392 649 c 0,3,4
 1392 577 1392 577 1369 499 c 0,5,6
 1300 259 1300 259 1107.5 119.5 c 128,-1,7
 915 -20 915 -20 658 -20 c 0,8,9
 460 -20 460 -20 349 68.5 c 128,-1,10
 238 157 238 157 238 316 c 0,11,12
 238 388 238 388 262 472 c 0,13,14
 330 707 330 707 518.5 844.5 c 128,-1,15
 707 982 707 982 964 982 c 0,0,1
885 760 m 0,16,17
 766 760 766 760 656.5 690.5 c 128,-1,18
 547 621 547 621 511 496 c 0,19,20
 499 452 499 452 499 413 c 0,21,22
 499 319 499 319 564 260.5 c 128,-1,23
 629 202 629 202 743 202 c 0,24,25
 871 202 871 202 977.5 275.5 c 128,-1,26
 1084 349 1084 349 1119 471 c 0,27,28
 1132 514 1132 514 1132 554 c 0,29,30
 1132 652 1132 652 1059.5 706 c 128,-1,31
 987 760 987 760 885 760 c 0,16,17
EndSplineSet
EndChar

StartChar: p
Encoding: 112 112 83
Width: 1327
Flags: W
LayerCount: 2
Fore
SplineSet
971 982 m 0,0,1
 1032 982 1032 982 1086.5 972 c 128,-1,2
 1141 962 1141 962 1192 938.5 c 128,-1,3
 1243 915 1243 915 1280 879.5 c 128,-1,4
 1317 844 1317 844 1339.5 788 c 128,-1,5
 1362 732 1362 732 1362 662 c 0,6,7
 1362 587 1362 587 1335 491 c 0,8,9
 1267 252 1267 252 1082 116 c 128,-1,10
 897 -20 897 -20 651 -20 c 0,11,12
 536 -20 536 -20 436 14 c 1,13,-1
 279 -531 l 1,14,-1
 23 -531 l 1,15,-1
 452 963 l 1,16,-1
 634 963 l 1,17,-1
 643 916 l 1,18,19
 813 982 813 982 971 982 c 0,0,1
844 764 m 0,20,21
 746 764 746 764 641 731 c 1,22,-1
 495 220 l 1,23,24
 592 191 592 191 682 191 c 0,25,26
 738 191 738 191 793 203 c 128,-1,27
 848 215 848 215 908 243.5 c 128,-1,28
 968 272 968 272 1015.5 329.5 c 128,-1,29
 1063 387 1063 387 1086 467 c 0,30,31
 1102 524 1102 524 1102 570 c 0,32,33
 1102 627 1102 627 1078 667.5 c 128,-1,34
 1054 708 1054 708 1013.5 728 c 128,-1,35
 973 748 973 748 932 756 c 128,-1,36
 891 764 891 764 844 764 c 0,20,21
EndSplineSet
EndChar

StartChar: q
Encoding: 113 113 84
Width: 1316
Flags: W
LayerCount: 2
Fore
SplineSet
938 983 m 0,0,1
 1066 983 1066 983 1204 920 c 1,2,-1
 1235 963 l 1,3,-1
 1410 963 l 1,4,-1
 981 -531 l 1,5,-1
 735 -531 l 1,6,-1
 895 26 l 1,7,8
 753 -20 753 -20 624 -20 c 0,9,10
 545 -20 545 -20 478 -3 c 128,-1,11
 411 14 411 14 355 50 c 128,-1,12
 299 86 299 86 266.5 150 c 128,-1,13
 234 214 234 214 234 301 c 0,14,15
 234 382 234 382 261 476 c 0,16,17
 297 600 297 600 369 699 c 128,-1,18
 441 798 441 798 533 859 c 128,-1,19
 625 920 625 920 728.5 951.5 c 128,-1,20
 832 983 832 983 938 983 c 0,0,1
889 768 m 0,21,22
 752 768 752 768 648 693.5 c 128,-1,23
 544 619 544 619 507 490 c 1,24,25
 492 434 492 434 492 393 c 0,26,27
 492 336 492 336 516 296 c 128,-1,28
 540 256 540 256 580.5 235.5 c 128,-1,29
 621 215 621 215 662.5 206.5 c 128,-1,30
 704 198 704 198 751 198 c 0,31,32
 846 198 846 198 954 232 c 1,33,-1
 1097 732 l 1,34,35
 982 768 982 768 889 768 c 0,21,22
EndSplineSet
EndChar

StartChar: r
Encoding: 114 114 85
Width: 933
Flags: W
LayerCount: 2
Fore
SplineSet
630 910 m 1,0,1
 803 982 803 982 976 982 c 0,2,3
 1086 982 1086 982 1165 939 c 2,4,-1
 1194 923 l 1,5,-1
 1060 720 l 1,6,-1
 1026 734 l 2,7,8
 963 760 963 760 885 760 c 0,9,10
 755 760 755 760 626 715 c 1,11,-1
 422 0 l 1,12,-1
 176 0 l 1,13,-1
 452 963 l 1,14,-1
 616 963 l 1,15,-1
 630 910 l 1,0,1
EndSplineSet
EndChar

StartChar: s
Encoding: 115 115 86
Width: 1169
Flags: W
LayerCount: 2
Fore
SplineSet
877 290 m 0,0,1
 877 291 877 291 877.5 293.5 c 128,-1,2
 878 296 878 296 878 297 c 0,3,4
 878 321 878 321 838.5 340.5 c 128,-1,5
 799 360 799 360 740.5 373 c 128,-1,6
 682 386 682 386 613 407.5 c 128,-1,7
 544 429 544 429 485.5 453.5 c 128,-1,8
 427 478 427 478 387.5 522.5 c 128,-1,9
 348 567 348 567 348 625 c 0,10,11
 348 652 348 652 357 683 c 0,12,13
 368 721 368 721 393 759.5 c 128,-1,14
 418 798 418 798 467.5 839 c 128,-1,15
 517 880 517 880 583.5 911 c 128,-1,16
 650 942 650 942 751.5 962 c 128,-1,17
 853 982 853 982 974 982 c 0,18,19
 1045 982 1045 982 1100 974.5 c 128,-1,20
 1155 967 1155 967 1177 961 c 128,-1,21
 1199 955 1199 955 1243 940 c 1,22,-1
 1281 928 l 1,23,-1
 1155 727 l 1,24,-1
 1120 736 l 1,25,26
 1002 772 1002 772 882 772 c 0,27,28
 807 772 807 772 751.5 760.5 c 128,-1,29
 696 749 696 749 669 731 c 128,-1,30
 642 713 642 713 630.5 699.5 c 128,-1,31
 619 686 619 686 615 674 c 0,32,33
 614 671 614 671 614 666 c 0,34,35
 614 641 614 641 669 619 c 128,-1,36
 724 597 724 597 802 576 c 128,-1,37
 880 555 880 555 958.5 528 c 128,-1,38
 1037 501 1037 501 1092 451.5 c 128,-1,39
 1147 402 1147 402 1147 336 c 0,40,41
 1147 313 1147 313 1139 284 c 0,42,43
 1127 242 1127 242 1103.5 203.5 c 128,-1,44
 1080 165 1080 165 1033 123 c 128,-1,45
 986 81 986 81 921.5 50.5 c 128,-1,46
 857 20 857 20 757.5 0 c 128,-1,47
 658 -20 658 -20 536 -20 c 0,48,49
 346 -20 346 -20 180 58 c 2,50,-1
 148 73 l 1,51,-1
 277 269 l 1,52,-1
 310 255 l 1,53,54
 467 191 467 191 604 191 c 0,55,56
 849 191 849 191 877 290 c 0,0,1
EndSplineSet
EndChar

StartChar: t
Encoding: 116 116 87
Width: 924
Flags: W
LayerCount: 2
Fore
SplineSet
828 18 m 2,0,1
 672 -20 672 -20 575 -20 c 0,2,3
 413 -20 413 -20 347 30 c 128,-1,4
 281 80 281 80 281 169 c 0,5,6
 281 225 281 225 305 307 c 2,7,-1
 433 752 l 1,8,-1
 284 752 l 1,9,-1
 344 963 l 1,10,-1
 494 963 l 1,11,-1
 582 1271 l 1,12,-1
 828 1271 l 1,13,-1
 740 963 l 1,14,-1
 1094 963 l 1,15,-1
 1033 752 l 1,16,-1
 679 752 l 1,17,-1
 557 328 l 2,18,19
 552 308 552 308 552 290 c 0,20,21
 552 247 552 247 585 218.5 c 128,-1,22
 618 190 618 190 696 190 c 0,23,24
 722 190 722 190 844 209 c 1,25,-1
 884 216 l 1,26,-1
 868 28 l 1,27,-1
 828 18 l 2,0,1
EndSplineSet
EndChar

StartChar: u
Encoding: 117 117 88
Width: 1328
Flags: W
LayerCount: 2
Fore
SplineSet
1174 963 m 1,0,-1
 1420 963 l 1,1,-1
 1144 0 l 1,2,-1
 961 0 l 1,3,-1
 951 67 l 1,4,5
 729 -20 729 -20 546 -20 c 0,6,7
 257 -20 257 -20 257 209 c 0,8,9
 257 287 257 287 288 394 c 2,10,-1
 452 963 l 1,11,-1
 698 963 l 1,12,-1
 536 400 l 2,13,14
 524 360 524 360 524 327 c 0,15,16
 524 209 524 209 697 209 c 0,17,18
 812 209 812 209 973 262 c 1,19,-1
 1174 963 l 1,0,-1
EndSplineSet
EndChar

StartChar: v
Encoding: 118 118 89
Width: 1144
Flags: W
LayerCount: 2
Fore
SplineSet
1388 963 m 1,0,-1
 726 0 l 1,1,-1
 467 0 l 1,2,-1
 340 963 l 1,3,-1
 624 963 l 1,4,-1
 676 254 l 1,5,-1
 1130 963 l 1,6,-1
 1388 963 l 1,0,-1
EndSplineSet
EndChar

StartChar: w
Encoding: 119 119 90
Width: 1891
Flags: W
LayerCount: 2
Fore
SplineSet
335 963 m 1,0,-1
 591 963 l 1,1,-1
 617 249 l 1,2,-1
 1122 963 l 1,3,-1
 1337 963 l 1,4,-1
 1360 247 l 1,5,-1
 1877 963 l 1,6,-1
 2141 963 l 1,7,-1
 1397 0 l 1,8,-1
 1179 0 l 1,9,-1
 1150 692 l 1,10,-1
 647 0 l 1,11,-1
 429 0 l 1,12,-1
 335 963 l 1,0,-1
EndSplineSet
EndChar

StartChar: x
Encoding: 120 120 91
Width: 1205
Flags: W
LayerCount: 2
Fore
SplineSet
340 963 m 1,0,-1
 630 963 l 1,1,-1
 821 611 l 1,2,-1
 1203 963 l 1,3,-1
 1480 963 l 1,4,-1
 934 473 l 1,5,-1
 1184 0 l 1,6,-1
 893 0 l 1,7,-1
 710 332 l 1,8,-1
 351 0 l 1,9,-1
 75 0 l 1,10,-1
 600 474 l 1,11,-1
 340 963 l 1,0,-1
EndSplineSet
EndChar

StartChar: y
Encoding: 121 121 92
Width: 1214
Flags: W
LayerCount: 2
Fore
SplineSet
325 963 m 1,0,-1
 607 963 l 1,1,-1
 716 217 l 1,2,-1
 1218 963 l 1,3,-1
 1477 963 l 1,4,-1
 416 -531 l 1,5,-1
 116 -531 l 1,6,-1
 508 -17 l 1,7,-1
 325 963 l 1,0,-1
EndSplineSet
EndChar

StartChar: z
Encoding: 122 122 93
Width: 1218
Flags: W
LayerCount: 2
Fore
SplineSet
422 963 m 1,0,-1
 1317 963 l 1,1,-1
 1280 836 l 1,2,-1
 550 211 l 1,3,-1
 1125 211 l 1,4,-1
 1065 0 l 1,5,-1
 146 0 l 1,6,-1
 183 127 l 1,7,-1
 905 752 l 1,8,-1
 362 752 l 1,9,-1
 422 963 l 1,0,-1
EndSplineSet
EndChar

StartChar: braceleft
Encoding: 123 123 94
Width: 828
Flags: W
LayerCount: 2
Fore
SplineSet
272 658 m 1,0,1
 314 665 314 665 352 683 c 128,-1,2
 390 701 390 701 418 723 c 128,-1,3
 446 745 446 745 472 779 c 128,-1,4
 498 813 498 813 515 841 c 128,-1,5
 532 869 532 869 550 909.5 c 128,-1,6
 568 950 568 950 577 974 c 128,-1,7
 586 998 586 998 599.5 1035 c 128,-1,8
 613 1072 613 1072 617 1084 c 0,9,10
 659 1195 659 1195 719.5 1281 c 128,-1,11
 780 1367 780 1367 837.5 1415 c 128,-1,12
 895 1463 895 1463 960 1495 c 128,-1,13
 1025 1527 1025 1527 1069 1538 c 128,-1,14
 1113 1549 1113 1549 1154 1552 c 2,15,-1
 1190 1555 l 1,16,-1
 1178 1347 l 1,17,-1
 1132 1341 l 2,18,19
 1081 1334 1081 1334 1032 1306.5 c 128,-1,20
 983 1279 983 1279 946 1240 c 0,21,22
 903 1194 903 1194 868.5 1122 c 128,-1,23
 834 1050 834 1050 808.5 976.5 c 128,-1,24
 783 903 783 903 751 827 c 128,-1,25
 719 751 719 751 662.5 677 c 128,-1,26
 606 603 606 603 528 549 c 1,27,28
 597 472 597 472 597 345 c 0,29,30
 597 273 597 273 567.5 132.5 c 128,-1,31
 538 -8 538 -8 538 -64 c 0,32,33
 538 -106 538 -106 550 -141 c 1,34,35
 565 -180 565 -180 598.5 -207.5 c 128,-1,36
 632 -235 632 -235 678 -242 c 2,37,-1
 721 -248 l 1,38,-1
 613 -456 l 1,39,-1
 579 -453 l 2,40,41
 549 -451 549 -451 517.5 -443 c 128,-1,42
 486 -435 486 -435 444 -412.5 c 128,-1,43
 402 -390 402 -390 370.5 -356 c 128,-1,44
 339 -322 339 -322 316.5 -261.5 c 128,-1,45
 294 -201 294 -201 294 -124 c 0,46,47
 294 -64 294 -64 307 2 c 0,48,49
 311 25 311 25 323.5 80.5 c 128,-1,50
 336 136 336 136 342.5 177 c 128,-1,51
 349 218 349 218 349 253 c 0,52,53
 349 349 349 349 294 399 c 0,54,55
 259 431 259 431 209 440 c 1,56,-1
 177 445 l 1,57,-1
 236 653 l 1,58,-1
 272 658 l 1,0,1
EndSplineSet
EndChar

StartChar: bar
Encoding: 124 124 95
Width: 884
Flags: W
LayerCount: 2
Fore
SplineSet
790 1642 m 1,0,-1
 1036 1642 l 1,1,-1
 465 -349 l 1,2,-1
 219 -349 l 1,3,-1
 790 1642 l 1,0,-1
EndSplineSet
EndChar

StartChar: braceright
Encoding: 125 125 96
Width: 828
Flags: W
LayerCount: 2
Fore
SplineSet
833 1084 m 0,0,1
 830 1070 830 1070 822 1032 c 128,-1,2
 814 994 814 994 809 969.5 c 128,-1,3
 804 945 804 945 799.5 909.5 c 128,-1,4
 795 874 795 874 795 845 c 0,5,6
 795 682 795 682 934 658 c 1,7,-1
 966 653 l 1,8,-1
 907 445 l 1,9,-1
 871 440 l 1,10,11
 822 432 822 432 779.5 411 c 128,-1,12
 737 390 737 390 705.5 357.5 c 128,-1,13
 674 325 674 325 650 293 c 128,-1,14
 626 261 626 261 605.5 215.5 c 128,-1,15
 585 170 585 170 572.5 139.5 c 128,-1,16
 560 109 560 109 545 64 c 128,-1,17
 530 19 530 19 523 2 c 0,18,19
 481 -106 481 -106 419 -190.5 c 128,-1,20
 357 -275 357 -275 299 -321.5 c 128,-1,21
 241 -368 241 -368 175.5 -399 c 128,-1,22
 110 -430 110 -430 68 -440 c 128,-1,23
 26 -450 26 -450 -11 -453 c 2,24,-1
 -47 -456 l 1,25,-1
 -35 -248 l 1,26,-1
 12 -242 l 2,27,28
 63 -235 63 -235 112 -207.5 c 128,-1,29
 161 -180 161 -180 198 -141 c 0,30,31
 241 -95 241 -95 274.5 -23.5 c 128,-1,32
 308 48 308 48 333.5 121 c 128,-1,33
 359 194 359 194 391 270 c 128,-1,34
 423 346 423 346 479 420.5 c 128,-1,35
 535 495 535 495 614 549 c 1,36,37
 546 626 546 626 546 749 c 0,38,39
 546 821 546 821 576 963 c 128,-1,40
 606 1105 606 1105 606 1161 c 0,41,42
 606 1208 606 1208 594 1240 c 0,43,44
 579 1279 579 1279 545.5 1306.5 c 128,-1,45
 512 1334 512 1334 466 1341 c 2,46,-1
 422 1347 l 1,47,-1
 530 1555 l 1,48,-1
 564 1552 l 2,49,50
 597 1549 597 1549 630 1540.5 c 128,-1,51
 663 1532 663 1532 704 1509 c 128,-1,52
 745 1486 745 1486 775 1452 c 128,-1,53
 805 1418 805 1418 826 1358.5 c 128,-1,54
 847 1299 847 1299 847 1223 c 0,55,56
 847 1157 847 1157 833 1084 c 0,0,1
EndSplineSet
EndChar

StartChar: asciitilde
Encoding: 126 126 97
Width: 1400
Flags: W
LayerCount: 2
Fore
SplineSet
1278 1401 m 0,0,1
 1293 1401 1293 1401 1310.5 1422.5 c 128,-1,2
 1328 1444 1328 1444 1341.5 1470 c 128,-1,3
 1355 1496 1355 1496 1373 1535 c 0,4,5
 1378 1547 1378 1547 1381 1553 c 2,6,-1
 1399 1592 l 1,7,-1
 1581 1562 l 1,8,-1
 1560 1520 l 2,9,10
 1556 1511 1556 1511 1543 1484 c 128,-1,11
 1530 1457 1530 1457 1523 1442.5 c 128,-1,12
 1516 1428 1516 1428 1501.5 1401 c 128,-1,13
 1487 1374 1487 1374 1476 1357.5 c 128,-1,14
 1465 1341 1465 1341 1447 1317 c 128,-1,15
 1429 1293 1429 1293 1413.5 1278.5 c 128,-1,16
 1398 1264 1398 1264 1376 1247 c 128,-1,17
 1354 1230 1354 1230 1332 1220.5 c 128,-1,18
 1310 1211 1310 1211 1282.5 1204.5 c 128,-1,19
 1255 1198 1255 1198 1226 1198 c 1,20,21
 1175 1200 1175 1200 1134 1220 c 128,-1,22
 1093 1240 1093 1240 1068.5 1266.5 c 128,-1,23
 1044 1293 1044 1293 1025 1319 c 128,-1,24
 1006 1345 1006 1345 990 1363 c 128,-1,25
 974 1381 974 1381 960 1381 c 0,26,27
 947 1381 947 1381 934.5 1370 c 128,-1,28
 922 1359 922 1359 906 1330 c 128,-1,29
 890 1301 890 1301 883.5 1287.5 c 128,-1,30
 877 1274 877 1274 858 1234 c 2,31,-1
 840 1195 l 1,32,-1
 657 1221 l 1,33,-1
 678 1264 l 2,34,35
 682 1272 682 1272 695 1300 c 128,-1,36
 708 1328 708 1328 715 1341.5 c 128,-1,37
 722 1355 722 1355 737 1382.5 c 128,-1,38
 752 1410 752 1410 762.5 1426 c 128,-1,39
 773 1442 773 1442 791 1466 c 128,-1,40
 809 1490 809 1490 824.5 1504.5 c 128,-1,41
 840 1519 840 1519 862 1536 c 128,-1,42
 884 1553 884 1553 906 1562 c 128,-1,43
 928 1571 928 1571 955.5 1577.5 c 128,-1,44
 983 1584 983 1584 1012 1584 c 1,45,46
 1063 1582 1063 1582 1104 1562 c 128,-1,47
 1145 1542 1145 1542 1170 1515.5 c 128,-1,48
 1195 1489 1195 1489 1214 1463 c 128,-1,49
 1233 1437 1233 1437 1248.5 1419 c 128,-1,50
 1264 1401 1264 1401 1278 1401 c 0,0,1
EndSplineSet
EndChar

StartChar: exclamdown
Encoding: 161 161 99
Width: 650
Flags: W
LayerCount: 2
Fore
SplineSet
458 904 m 1,0,-1
 710 904 l 1,1,-1
 322 -451 l 1,2,-1
 70 -451 l 1,3,-1
 458 904 l 1,0,-1
575 1362 m 1,4,-1
 857 1362 l 1,5,-1
 776 1080 l 1,6,-1
 494 1080 l 1,7,-1
 575 1362 l 1,4,-1
EndSplineSet
EndChar

StartChar: cent
Encoding: 162 162 100
Width: 1021
Flags: W
LayerCount: 2
Fore
SplineSet
866 1270 m 1,0,-1
 947 1552 l 1,1,-1
 1150 1552 l 1,2,-1
 1072 1280 l 1,3,4
 1167 1271 1167 1271 1272 1221 c 2,5,-1
 1303 1206 l 1,6,-1
 1182 1011 l 1,7,-1
 1147 1024 l 1,8,9
 1055 1060 1055 1060 953 1060 c 0,10,11
 804 1060 804 1060 705.5 979.5 c 128,-1,12
 607 899 607 899 564 747 c 0,13,14
 541 669 541 669 541 607 c 0,15,16
 541 547 541 547 562 504.5 c 128,-1,17
 583 462 583 462 620.5 440.5 c 128,-1,18
 658 419 658 419 697.5 410 c 128,-1,19
 737 401 737 401 784 401 c 0,20,21
 869 401 869 401 965 432 c 1,22,-1
 1008 445 l 1,23,-1
 1020 256 l 1,24,-1
 979 242 l 2,25,26
 853 198 853 198 759 190 c 1,27,-1
 675 -106 l 1,28,-1
 472 -106 l 1,29,-1
 558 194 l 1,30,31
 431 218 431 218 357 299.5 c 128,-1,32
 283 381 283 381 283 521 c 0,33,34
 283 610 283 610 313 713 c 0,35,36
 377 935 377 935 521.5 1082.5 c 128,-1,37
 666 1230 666 1230 866 1270 c 1,0,-1
EndSplineSet
EndChar

StartChar: sterling
Encoding: 163 163 101
Width: 1300
Flags: W
LayerCount: 2
Fore
SplineSet
405 176 m 1,0,-1
 533 621 l 1,1,-1
 357 621 l 1,2,-1
 419 838 l 1,3,-1
 595 838 l 1,4,-1
 624 938 l 2,5,6
 659 1059 659 1059 717.5 1153.5 c 128,-1,7
 776 1248 776 1248 844 1306.5 c 128,-1,8
 912 1365 912 1365 993 1403.5 c 128,-1,9
 1074 1442 1074 1442 1149.5 1457 c 128,-1,10
 1225 1472 1225 1472 1304 1472 c 0,11,12
 1425 1472 1425 1472 1540 1432 c 2,13,-1
 1578 1419 l 1,14,-1
 1444 1222 l 1,15,-1
 1411 1231 l 1,16,17
 1331 1254 1331 1254 1264 1254 c 0,18,19
 1190 1254 1190 1254 1130 1236 c 128,-1,20
 1070 1218 1070 1218 1028.5 1188 c 128,-1,21
 987 1158 987 1158 954 1112.5 c 128,-1,22
 921 1067 921 1067 900 1019.5 c 128,-1,23
 879 972 879 972 862 911 c 2,24,-1
 841 838 l 1,25,-1
 1371 838 l 1,26,-1
 1309 621 l 1,27,-1
 779 621 l 1,28,-1
 651 176 l 1,29,-1
 1239 176 l 1,30,-1
 1177 -41 l 1,31,-1
 99 -41 l 1,32,-1
 161 176 l 1,33,-1
 405 176 l 1,0,-1
EndSplineSet
EndChar

StartChar: currency
Encoding: 164 164 102
Width: 1300
Flags: W
LayerCount: 2
Fore
SplineSet
466 575 m 1,0,1
 460 606 460 606 460 637 c 0,2,3
 460 777 460 777 561 908 c 1,4,-1
 437 1082 l 1,5,-1
 673 1265 l 1,6,-1
 798 1090 l 1,7,8
 888 1128 888 1128 973 1128 c 0,9,10
 1061 1128 1061 1128 1129 1090 c 1,11,-1
 1351 1263 l 1,12,-1
 1482 1080 l 1,13,-1
 1258 907 l 1,14,15
 1264 876 1264 876 1264 845 c 0,16,17
 1264 706 1264 706 1164 576 c 1,18,-1
 1287 404 l 1,19,-1
 1051 221 l 1,20,-1
 929 393 l 1,21,22
 839 355 839 355 751 355 c 0,23,24
 661 355 661 355 596 392 c 1,25,-1
 374 219 l 1,26,-1
 243 402 l 1,27,-1
 466 575 l 1,0,1
910 905 m 0,28,29
 845 905 845 905 784 857.5 c 128,-1,30
 723 810 723 810 703 741 c 0,31,32
 696 719 696 719 696 695 c 0,33,34
 696 644 696 644 729 611 c 128,-1,35
 762 578 762 578 815 578 c 0,36,37
 880 578 880 578 940.5 626 c 128,-1,38
 1001 674 1001 674 1020 741 c 0,39,40
 1027 765 1027 765 1027 789 c 0,41,42
 1027 840 1027 840 994.5 872.5 c 128,-1,43
 962 905 962 905 910 905 c 0,28,29
EndSplineSet
EndChar

StartChar: yen
Encoding: 165 165 103
Width: 1300
Flags: W
LayerCount: 2
Fore
SplineSet
491 1462 m 1,0,-1
 772 1462 l 1,1,-1
 910 904 l 1,2,-1
 1377 1462 l 1,3,-1
 1648 1462 l 1,4,-1
 1014 740 l 1,5,-1
 1265 740 l 1,6,-1
 1206 533 l 1,7,-1
 917 533 l 1,8,-1
 883 415 l 1,9,-1
 1172 415 l 1,10,-1
 1113 208 l 1,11,-1
 824 208 l 1,12,-1
 752 -41 l 1,13,-1
 510 -41 l 1,14,-1
 582 208 l 1,15,-1
 307 208 l 1,16,-1
 366 415 l 1,17,-1
 641 415 l 1,18,-1
 675 533 l 1,19,-1
 400 533 l 1,20,-1
 459 740 l 1,21,-1
 697 740 l 1,22,-1
 491 1462 l 1,0,-1
EndSplineSet
EndChar

StartChar: brokenbar
Encoding: 166 166 104
Width: 884
Flags: W
LayerCount: 2
Fore
SplineSet
463 501 m 1,0,-1
 709 501 l 1,1,-1
 465 -349 l 1,2,-1
 219 -349 l 1,3,-1
 463 501 l 1,0,-1
790 1642 m 1,4,-1
 1036 1642 l 1,5,-1
 793 796 l 1,6,-1
 547 796 l 1,7,-1
 790 1642 l 1,4,-1
EndSplineSet
EndChar

StartChar: section
Encoding: 167 167 105
Width: 1136
Flags: W
LayerCount: 2
Fore
SplineSet
1343 1430 m 2,0,-1
 1382 1419 l 1,1,-1
 1250 1209 l 1,2,-1
 1215 1221 l 2,3,4
 1107 1258 1107 1258 987 1258 c 0,5,6
 894 1258 894 1258 826 1227.5 c 128,-1,7
 758 1197 758 1197 744 1148 c 0,8,9
 742 1143 742 1143 742 1132 c 0,10,11
 742 1103 742 1103 777.5 1077.5 c 128,-1,12
 813 1052 813 1052 866.5 1034 c 128,-1,13
 920 1016 920 1016 982 990 c 128,-1,14
 1044 964 1044 964 1097.5 935.5 c 128,-1,15
 1151 907 1151 907 1186.5 859 c 128,-1,16
 1222 811 1222 811 1222 751 c 0,17,18
 1222 718 1222 718 1212 682 c 0,19,20
 1178 566 1178 566 1085 477 c 1,21,22
 1114 431 1114 431 1114 376 c 0,23,24
 1114 347 1114 347 1103 306 c 0,25,26
 1089 258 1089 258 1063 211 c 128,-1,27
 1037 164 1037 164 988 113.5 c 128,-1,28
 939 63 939 63 875 25.5 c 128,-1,29
 811 -12 811 -12 715.5 -36.5 c 128,-1,30
 620 -61 620 -61 507 -61 c 2,31,-1
 494 -61 l 2,32,33
 301 -61 301 -61 147 7 c 1,34,-1
 114 22 l 1,35,-1
 245 221 l 1,36,-1
 280 208 l 1,37,38
 428 150 428 150 553 150 c 0,39,40
 787 150 787 150 827 286 c 0,41,42
 829 292 829 292 829 303 c 0,43,44
 829 333 829 333 794 356.5 c 128,-1,45
 759 380 759 380 707 396 c 128,-1,46
 655 412 655 412 593.5 435 c 128,-1,47
 532 458 532 458 480 485 c 128,-1,48
 428 512 428 512 393 560 c 128,-1,49
 358 608 358 608 358 671 c 0,50,51
 358 712 358 712 370 752 c 0,52,53
 400 855 400 855 495 942 c 1,54,55
 466 988 466 988 466 1049 c 0,56,57
 466 1104 466 1104 489 1162 c 128,-1,58
 512 1220 512 1220 561.5 1276.5 c 128,-1,59
 611 1333 611 1333 680.5 1377 c 128,-1,60
 750 1421 750 1421 852.5 1448 c 128,-1,61
 955 1475 955 1475 1074 1475 c 0,62,63
 1108 1475 1108 1475 1139 1472.5 c 128,-1,64
 1170 1470 1170 1470 1189.5 1468 c 128,-1,65
 1209 1466 1209 1466 1237 1459.5 c 128,-1,66
 1265 1453 1265 1453 1273.5 1451 c 128,-1,67
 1282 1449 1282 1449 1311 1440 c 128,-1,68
 1340 1431 1340 1431 1343 1430 c 2,0,-1
670 823 m 1,69,70
 643 798 643 798 636 771 c 0,71,72
 634 766 634 766 634 756 c 0,73,74
 634 736 634 736 648.5 719 c 128,-1,75
 663 702 663 702 694.5 686 c 128,-1,76
 726 670 726 670 753 659 c 128,-1,77
 780 648 780 648 828.5 630.5 c 128,-1,78
 877 613 877 613 903 603 c 1,79,80
 924 626 924 626 935 662 c 0,81,82
 938 671 938 671 938 679 c 0,83,84
 938 699 938 699 923.5 716 c 128,-1,85
 909 733 909 733 879 747 c 128,-1,86
 849 761 849 761 820.5 771.5 c 128,-1,87
 792 782 792 782 745 797 c 128,-1,88
 698 812 698 812 670 823 c 1,69,70
EndSplineSet
EndChar

StartChar: dieresis
Encoding: 168 168 106
Width: 1200
Flags: W
LayerCount: 2
Fore
SplineSet
661 1462 m 1,0,-1
 928 1462 l 1,1,-1
 851 1194 l 1,2,-1
 584 1194 l 1,3,-1
 661 1462 l 1,0,-1
1110 1462 m 1,4,-1
 1377 1462 l 1,5,-1
 1300 1194 l 1,6,-1
 1033 1194 l 1,7,-1
 1110 1462 l 1,4,-1
EndSplineSet
EndChar

StartChar: copyright
Encoding: 169 169 107
Width: 1760
Flags: W
LayerCount: 2
Fore
SplineSet
1425 1049 m 2,0,-1
 1454 1034 l 1,1,-1
 1352 873 l 1,2,-1
 1317 886 l 1,3,4
 1253 912 1253 912 1181 912 c 0,5,6
 978 912 978 912 915 694 c 0,7,8
 899 638 899 638 899 594 c 0,9,10
 899 457 899 457 1063 457 c 0,11,12
 1124 457 1124 457 1193 479 c 2,13,-1
 1235 492 l 1,14,-1
 1247 334 l 1,15,-1
 1206 320 l 2,16,17
 1086 278 1086 278 975 278 c 0,18,19
 920 278 920 278 871.5 291 c 128,-1,20
 823 304 823 304 780.5 332 c 128,-1,21
 738 360 738 360 713.5 410.5 c 128,-1,22
 689 461 689 461 689 529 c 0,23,24
 689 594 689 594 712 673 c 0,25,26
 745 787 745 787 803.5 872 c 128,-1,27
 862 957 862 957 933 1004 c 128,-1,28
 1004 1051 1004 1051 1076 1073.5 c 128,-1,29
 1148 1096 1148 1096 1220 1096 c 0,30,31
 1333 1096 1333 1096 1425 1049 c 2,0,-1
1226 1207 m 0,32,33
 1079 1207 1079 1207 934.5 1135 c 128,-1,34
 790 1063 790 1063 685 942.5 c 128,-1,35
 580 822 580 822 540 683 c 0,36,37
 520 614 520 614 520 543 c 0,38,39
 520 376 520 376 631 267.5 c 128,-1,40
 742 159 742 159 926 159 c 0,41,42
 1073 159 1073 159 1217.5 231 c 128,-1,43
 1362 303 1362 303 1467 423.5 c 128,-1,44
 1572 544 1572 544 1612 683 c 0,45,46
 1632 752 1632 752 1632 823 c 0,47,48
 1632 990 1632 990 1521 1098.5 c 128,-1,49
 1410 1207 1410 1207 1226 1207 c 0,32,33
1827 683 m 0,50,51
 1785 536 1785 536 1687.5 400 c 128,-1,52
 1590 264 1590 264 1461.5 164 c 128,-1,53
 1333 64 1333 64 1176 4.5 c 128,-1,54
 1019 -55 1019 -55 864 -55 c 0,55,56
 607 -55 607 -55 451.5 97.5 c 128,-1,57
 296 250 296 250 296 485 c 0,58,59
 296 584 296 584 325 683 c 0,60,61
 367 828 367 828 463 963 c 128,-1,62
 559 1098 559 1098 686.5 1199 c 128,-1,63
 814 1300 814 1300 972 1360.5 c 128,-1,64
 1130 1421 1130 1421 1287 1421 c 0,65,66
 1544 1421 1544 1421 1700 1268.5 c 128,-1,67
 1856 1116 1856 1116 1856 881 c 0,68,69
 1856 787 1856 787 1827 683 c 0,50,51
EndSplineSet
EndChar

StartChar: ordfeminine
Encoding: 170 170 108
Width: 760
Flags: W
LayerCount: 2
Fore
SplineSet
774 994 m 1,0,-1
 771 994 l 2,1,2
 671 994 671 994 619.5 976.5 c 128,-1,3
 568 959 568 959 556 917 c 0,4,5
 554 909 554 909 554 904 c 0,6,7
 554 882 554 882 573.5 864.5 c 128,-1,8
 593 847 593 847 631 847 c 0,9,10
 689 847 689 847 750 910 c 1,11,-1
 774 994 l 1,0,-1
812 1127 m 1,12,13
 819 1155 819 1155 819 1168 c 0,14,15
 819 1234 819 1234 728 1234 c 0,16,17
 648 1234 648 1234 560 1208 c 2,18,-1
 533 1200 l 1,19,-1
 537 1319 l 1,20,-1
 560 1326 l 1,21,22
 674 1364 674 1364 777 1364 c 0,23,24
 977 1364 977 1364 977 1222 c 0,25,26
 977 1187 977 1187 962 1131 c 1,27,-1
 848 735 l 1,28,-1
 736 735 l 1,29,-1
 732 771 l 1,30,31
 651 717 651 717 578 717 c 0,32,33
 497 717 497 717 448.5 753 c 128,-1,34
 400 789 400 789 400 855 c 0,35,36
 400 882 400 882 409 915 c 0,37,38
 427 978 427 978 460.5 1020 c 128,-1,39
 494 1062 494 1062 547 1085 c 128,-1,40
 600 1108 600 1108 662 1117 c 128,-1,41
 724 1126 724 1126 812 1127 c 1,12,13
EndSplineSet
EndChar

StartChar: guillemotleft
Encoding: 171 171 109
Width: 1078
Flags: W
LayerCount: 2
Fore
SplineSet
1075 1029 m 1,0,-1
 1363 1029 l 1,1,-1
 942 623 l 1,2,-1
 1130 217 l 1,3,-1
 842 217 l 1,4,-1
 675 623 l 1,5,-1
 1075 1029 l 1,0,-1
604 1029 m 1,6,-1
 892 1029 l 1,7,-1
 471 623 l 1,8,-1
 659 217 l 1,9,-1
 371 217 l 1,10,-1
 204 623 l 1,11,-1
 604 1029 l 1,6,-1
EndSplineSet
EndChar

StartChar: logicalnot
Encoding: 172 172 110
Width: 1400
Flags: W
LayerCount: 2
Fore
SplineSet
306 773 m 1,0,-1
 1538 773 l 1,1,-1
 1385 241 l 1,2,-1
 1155 241 l 1,3,-1
 1241 542 l 1,4,-1
 239 542 l 1,5,-1
 306 773 l 1,0,-1
EndSplineSet
EndChar

StartChar: uni00AD
Encoding: 173 173 111
Width: 1074
Flags: W
LayerCount: 2
Fore
SplineSet
400 769 m 1,0,-1
 1116 769 l 1,1,-1
 1052 548 l 1,2,-1
 336 548 l 1,3,-1
 400 769 l 1,0,-1
EndSplineSet
EndChar

StartChar: registered
Encoding: 174 174 112
Width: 1232
Flags: W
LayerCount: 2
Fore
SplineSet
964 1215 m 2,0,-1
 893 1215 l 1,1,-1
 856 1086 l 1,2,3
 885 1086 885 1086 897.5 1085.5 c 128,-1,4
 910 1085 910 1085 922 1085 c 0,5,6
 978 1085 978 1085 1005 1099.5 c 128,-1,7
 1032 1114 1032 1114 1042 1147 c 0,8,9
 1046 1160 1046 1160 1046 1172 c 0,10,11
 1046 1196 1046 1196 1026 1205.5 c 128,-1,12
 1006 1215 1006 1215 964 1215 c 2,0,-1
1035 1345 m 2,13,14
 1194 1345 1194 1345 1194 1225 c 0,15,16
 1194 1198 1194 1198 1183 1158 c 0,17,18
 1169 1107 1169 1107 1133 1059.5 c 128,-1,19
 1097 1012 1097 1012 1037 985 c 1,20,-1
 1088 755 l 1,21,22
 1202 834 1202 834 1260.5 937 c 128,-1,23
 1319 1040 1319 1040 1319 1143 c 0,24,25
 1319 1264 1319 1264 1241 1344.5 c 128,-1,26
 1163 1425 1163 1425 1025 1425 c 0,27,28
 863 1425 863 1425 716.5 1312 c 128,-1,29
 570 1199 570 1199 525 1043 c 0,30,31
 510 990 510 990 510 941 c 0,32,33
 510 819 510 819 591 740 c 128,-1,34
 672 661 672 661 806 661 c 0,35,36
 949 661 949 661 1082 751 c 1,37,-1
 932 751 l 1,38,-1
 891 959 l 1,39,-1
 820 959 l 1,40,-1
 760 751 l 1,41,-1
 617 751 l 1,42,-1
 788 1345 l 1,43,-1
 1035 1345 l 2,13,14
1466 1043 m 0,44,45
 1424 895 1424 895 1313.5 770 c 128,-1,46
 1203 645 1203 645 1055 572.5 c 128,-1,47
 907 500 907 500 759 500 c 0,48,49
 570 500 570 500 456.5 611.5 c 128,-1,50
 343 723 343 723 343 896 c 0,51,52
 343 966 343 966 364 1043 c 0,53,54
 406 1191 406 1191 516.5 1316 c 128,-1,55
 627 1441 627 1441 775 1513.5 c 128,-1,56
 923 1586 923 1586 1071 1586 c 0,57,58
 1257 1586 1257 1586 1372.5 1474.5 c 128,-1,59
 1488 1363 1488 1363 1488 1190 c 0,60,61
 1488 1118 1488 1118 1466 1043 c 0,44,45
EndSplineSet
EndChar

StartChar: macron
Encoding: 175 175 113
Width: 1400
Flags: W
LayerCount: 2
Fore
SplineSet
726 1681 m 1,0,-1
 1638 1681 l 1,1,-1
 1572 1450 l 1,2,-1
 660 1450 l 1,3,-1
 726 1681 l 1,0,-1
EndSplineSet
EndChar

StartChar: degree
Encoding: 176 176 114
Width: 589
Flags: W
LayerCount: 2
Fore
SplineSet
676 1327 m 0,0,1
 625 1327 625 1327 591 1288 c 128,-1,2
 557 1249 557 1249 557 1205 c 0,3,4
 557 1177 557 1177 573 1159.5 c 128,-1,5
 589 1142 589 1142 622 1142 c 0,6,7
 658 1142 658 1142 691 1170 c 128,-1,8
 724 1198 724 1198 735 1235 c 0,9,10
 739 1247 739 1247 739 1262 c 0,11,12
 739 1291 739 1291 722 1309 c 128,-1,13
 705 1327 705 1327 676 1327 c 0,0,1
909 1235 m 0,14,15
 878 1125 878 1125 779 1047 c 128,-1,16
 680 969 680 969 573 969 c 0,17,18
 486 969 486 969 431.5 1023 c 128,-1,19
 377 1077 377 1077 377 1161 c 0,20,21
 377 1194 377 1194 388 1235 c 0,22,23
 419 1344 419 1344 518 1422 c 128,-1,24
 617 1500 617 1500 724 1500 c 0,25,26
 811 1500 811 1500 865.5 1446.5 c 128,-1,27
 920 1393 920 1393 920 1309 c 0,28,29
 920 1276 920 1276 909 1235 c 0,14,15
EndSplineSet
EndChar

StartChar: plusminus
Encoding: 177 177 115
Width: 1400
Flags: W
LayerCount: 2
Fore
SplineSet
273 328 m 1,0,-1
 1315 328 l 1,1,-1
 1252 109 l 1,2,-1
 210 109 l 1,3,-1
 273 328 l 1,0,-1
1005 1462 m 1,4,-1
 1233 1462 l 1,5,-1
 1115 1050 l 1,6,-1
 1522 1050 l 1,7,-1
 1459 831 l 1,8,-1
 1052 831 l 1,9,-1
 934 420 l 1,10,-1
 706 420 l 1,11,-1
 824 831 l 1,12,-1
 417 831 l 1,13,-1
 480 1050 l 1,14,-1
 887 1050 l 1,15,-1
 1005 1462 l 1,4,-1
EndSplineSet
EndChar

StartChar: uni00B2
Encoding: 178 178 116
Width: 800
Flags: W
LayerCount: 2
Fore
SplineSet
359 827 m 1,0,1
 409 911 409 911 476.5 984.5 c 128,-1,2
 544 1058 544 1058 604 1105 c 128,-1,3
 664 1152 664 1152 717.5 1190 c 128,-1,4
 771 1228 771 1228 807 1258 c 128,-1,5
 843 1288 843 1288 849 1311 c 0,6,7
 851 1321 851 1321 851 1326 c 0,8,9
 851 1354 851 1354 825.5 1375 c 128,-1,10
 800 1396 800 1396 754 1396 c 0,11,12
 698 1396 698 1396 562 1347 c 2,13,-1
 537 1338 l 1,14,-1
 520 1473 l 1,15,-1
 544 1483 l 1,16,17
 694 1549 694 1549 814 1549 c 0,18,19
 911 1549 911 1549 970 1503.5 c 128,-1,20
 1029 1458 1029 1458 1029 1382 c 0,21,22
 1029 1352 1029 1352 1021 1325 c 0,23,24
 1006 1272 1006 1272 969.5 1226 c 128,-1,25
 933 1180 933 1180 884.5 1142.5 c 128,-1,26
 836 1105 836 1105 785 1069.5 c 128,-1,27
 734 1034 734 1034 677 986 c 128,-1,28
 620 938 620 938 580 888 c 1,29,-1
 909 888 l 1,30,-1
 864 733 l 1,31,-1
 332 733 l 1,32,-1
 359 827 l 1,0,1
EndSplineSet
EndChar

StartChar: uni00B3
Encoding: 179 179 117
Width: 800
Flags: W
LayerCount: 2
Fore
SplineSet
802 1546 m 0,0,1
 900 1546 900 1546 952 1500.5 c 128,-1,2
 1004 1455 1004 1455 1004 1386 c 0,3,4
 1004 1334 1004 1334 974.5 1280 c 128,-1,5
 945 1226 945 1226 889 1184 c 1,6,7
 942 1144 942 1144 942 1069 c 0,8,9
 942 1014 942 1014 912.5 954 c 128,-1,10
 883 894 883 894 832 842.5 c 128,-1,11
 781 791 781 791 702.5 758 c 128,-1,12
 624 725 624 725 535 725 c 0,13,14
 437 725 437 725 337 771 c 1,15,-1
 318 780 l 1,16,-1
 406 920 l 1,17,-1
 427 914 l 1,18,19
 527 884 527 884 583 884 c 0,20,21
 643 884 643 884 695.5 913.5 c 128,-1,22
 748 943 748 943 761 988 c 0,23,24
 765 1001 765 1001 765 1014 c 0,25,26
 765 1089 765 1089 589 1089 c 2,27,-1
 564 1089 l 1,28,-1
 608 1242 l 1,29,-1
 633 1242 l 2,30,31
 804 1242 804 1242 828 1324 c 0,32,33
 830 1332 830 1332 830 1336 c 0,34,35
 830 1358 830 1358 809 1373.5 c 128,-1,36
 788 1389 788 1389 746 1389 c 0,37,38
 683 1389 683 1389 574 1345 c 1,39,-1
 548 1334 l 1,40,-1
 530 1474 l 1,41,-1
 554 1485 l 1,42,43
 699 1546 699 1546 802 1546 c 0,0,1
EndSplineSet
EndChar

StartChar: acute
Encoding: 180 180 118
Width: 1122
Flags: W
LayerCount: 2
Fore
SplineSet
1264 1642 m 1,0,-1
 1319 1447 l 1,1,-1
 640 1111 l 1,2,-1
 589 1289 l 1,3,-1
 1264 1642 l 1,0,-1
EndSplineSet
EndChar

StartChar: uni00B5
Encoding: 181 181 119
Width: 1176
Flags: W
LayerCount: 2
Fore
SplineSet
440 1029 m 1,0,-1
 686 1029 l 1,1,-1
 515 430 l 2,2,3
 492 349 492 349 492 292 c 0,4,5
 492 153 492 153 632 153 c 0,6,7
 706 153 706 153 850 215 c 1,8,-1
 1083 1029 l 1,9,-1
 1329 1029 l 1,10,-1
 1022 -41 l 1,11,-1
 839 -41 l 1,12,-1
 832 8 l 1,13,14
 675 -68 675 -68 543 -68 c 0,15,16
 451 -68 451 -68 384 -25 c 1,17,-1
 262 -451 l 1,18,-1
 16 -451 l 1,19,-1
 440 1029 l 1,0,-1
EndSplineSet
EndChar

StartChar: paragraph
Encoding: 182 182 120
Width: 1326
Flags: W
LayerCount: 2
Fore
SplineSet
1046 1552 m 2,0,-1
 1622 1552 l 1,1,-1
 1165 -41 l 1,2,-1
 919 -41 l 1,3,-1
 1310 1320 l 1,4,-1
 1152 1320 l 1,5,-1
 761 -41 l 1,6,-1
 514 -41 l 1,7,-1
 711 646 l 1,8,9
 650 650 650 650 596.5 668.5 c 128,-1,10
 543 687 543 687 494 721.5 c 128,-1,11
 445 756 445 756 416 817.5 c 128,-1,12
 387 879 387 879 387 961 c 0,13,14
 387 1041 387 1041 414 1133 c 0,15,16
 438 1217 438 1217 478.5 1284.5 c 128,-1,17
 519 1352 519 1352 562.5 1395 c 128,-1,18
 606 1438 606 1438 663.5 1469.5 c 128,-1,19
 721 1501 721 1501 767.5 1516.5 c 128,-1,20
 814 1532 814 1532 873.5 1540.5 c 128,-1,21
 933 1549 933 1549 967 1550.5 c 128,-1,22
 1001 1552 1001 1552 1046 1552 c 2,0,-1
EndSplineSet
EndChar

StartChar: periodcentered
Encoding: 183 183 121
Width: 590
Flags: W
LayerCount: 2
Fore
SplineSet
401 879 m 1,0,-1
 693 879 l 1,1,-1
 609 587 l 1,2,-1
 317 587 l 1,3,-1
 401 879 l 1,0,-1
EndSplineSet
EndChar

StartChar: cedilla
Encoding: 184 184 122
Width: 1101
Flags: W
LayerCount: 2
Fore
SplineSet
514 -361 m 0,0,1
 546 -361 546 -361 563 -349.5 c 128,-1,2
 580 -338 580 -338 584 -324 c 0,3,4
 585 -321 585 -321 585 -316 c 128,-1,5
 585 -311 585 -311 583 -306.5 c 128,-1,6
 581 -302 581 -302 576 -298 c 128,-1,7
 571 -294 571 -294 565.5 -290.5 c 128,-1,8
 560 -287 560 -287 550 -282.5 c 128,-1,9
 540 -278 540 -278 531 -274.5 c 128,-1,10
 522 -271 522 -271 507 -266 c 128,-1,11
 492 -261 492 -261 479.5 -257 c 128,-1,12
 467 -253 467 -253 446.5 -246 c 128,-1,13
 426 -239 426 -239 410 -234 c 2,14,-1
 375 -223 l 1,15,-1
 534 63 l 1,16,-1
 745 63 l 1,17,-1
 653 -107 l 1,18,19
 778 -153 778 -153 778 -255 c 0,20,21
 778 -281 778 -281 769 -314 c 0,22,23
 744 -401 744 -401 657.5 -469.5 c 128,-1,24
 571 -538 571 -538 460 -538 c 0,25,26
 442 -538 442 -538 422 -535.5 c 128,-1,27
 402 -533 402 -533 387.5 -530.5 c 128,-1,28
 373 -528 373 -528 348.5 -521 c 128,-1,29
 324 -514 324 -514 313.5 -510.5 c 128,-1,30
 303 -507 303 -507 273 -497.5 c 128,-1,31
 243 -488 243 -488 235 -485 c 2,32,-1
 199 -474 l 1,33,-1
 297 -304 l 1,34,-1
 333 -316 l 2,35,36
 468 -361 468 -361 514 -361 c 0,0,1
EndSplineSet
EndChar

StartChar: uni00B9
Encoding: 185 185 123
Width: 543
Flags: W
LayerCount: 2
Fore
SplineSet
688 1536 m 1,0,-1
 808 1536 l 1,1,-1
 579 735 l 1,2,-1
 416 735 l 1,3,-1
 598 1370 l 1,4,-1
 449 1331 l 1,5,-1
 454 1477 l 1,6,-1
 688 1536 l 1,0,-1
EndSplineSet
EndChar

StartChar: ordmasculine
Encoding: 186 186 124
Width: 753
Flags: W
LayerCount: 2
Fore
SplineSet
773 1391 m 0,0,1
 743 1391 743 1391 714 1381.5 c 128,-1,2
 685 1372 685 1372 651 1348 c 128,-1,3
 617 1324 617 1324 586 1273 c 128,-1,4
 555 1222 555 1222 534 1149 c 0,5,6
 511 1067 511 1067 511 1011 c 0,7,8
 511 936 511 936 545.5 906.5 c 128,-1,9
 580 877 580 877 628 877 c 0,10,11
 651 877 651 877 673.5 882.5 c 128,-1,12
 696 888 696 888 725 905 c 128,-1,13
 754 922 754 922 779 950 c 128,-1,14
 804 978 804 978 829.5 1027.5 c 128,-1,15
 855 1077 855 1077 874 1142 c 0,16,17
 894 1212 894 1212 894 1263 c 0,18,19
 894 1391 894 1391 773 1391 c 0,0,1
1039 1145 m 0,20,21
 984 953 984 953 856 840 c 128,-1,22
 728 727 728 727 583 727 c 0,23,24
 475 727 475 727 408 783.5 c 128,-1,25
 341 840 341 840 341 965 c 0,26,27
 341 1043 341 1043 370 1146 c 0,28,29
 425 1335 425 1335 553.5 1439.5 c 128,-1,30
 682 1544 682 1544 819 1544 c 0,31,32
 864 1544 864 1544 903.5 1533.5 c 128,-1,33
 943 1523 943 1523 981.5 1498.5 c 128,-1,34
 1020 1474 1020 1474 1042.5 1425.5 c 128,-1,35
 1065 1377 1065 1377 1065 1309 c 0,36,37
 1065 1237 1065 1237 1039 1145 c 0,20,21
EndSplineSet
EndChar

StartChar: guillemotright
Encoding: 187 187 125
Width: 1078
Flags: W
LayerCount: 2
Fore
SplineSet
305 1029 m 1,0,-1
 593 1029 l 1,1,-1
 761 623 l 1,2,-1
 360 217 l 1,3,-1
 72 217 l 1,4,-1
 494 623 l 1,5,-1
 305 1029 l 1,0,-1
776 1029 m 1,6,-1
 1064 1029 l 1,7,-1
 1232 623 l 1,8,-1
 831 217 l 1,9,-1
 543 217 l 1,10,-1
 965 623 l 1,11,-1
 776 1029 l 1,6,-1
EndSplineSet
EndChar

StartChar: onequarter
Encoding: 188 188 126
Width: 1800
Flags: W
LayerCount: 2
Fore
SplineSet
1581 1446 m 1,0,-1
 1813 1446 l 1,1,-1
 542 -25 l 1,2,-1
 309 -25 l 1,3,-1
 1581 1446 l 1,0,-1
753 1446 m 1,4,-1
 893 1446 l 1,5,-1
 648 593 l 1,6,-1
 465 593 l 1,7,-1
 656 1258 l 1,8,-1
 512 1221 l 1,9,-1
 518 1387 l 1,10,-1
 753 1446 l 1,4,-1
1625 861 m 1,11,-1
 1820 861 l 1,12,-1
 1668 330 l 1,13,-1
 1775 330 l 1,14,-1
 1729 170 l 1,15,-1
 1622 170 l 1,16,-1
 1566 -25 l 1,17,-1
 1383 -25 l 1,18,-1
 1439 170 l 1,19,-1
 1049 170 l 1,20,-1
 1084 292 l 1,21,-1
 1625 861 l 1,11,-1
1562 601 m 1,22,-1
 1314 330 l 1,23,-1
 1485 330 l 1,24,-1
 1562 601 l 1,22,-1
EndSplineSet
EndChar

StartChar: onehalf
Encoding: 189 189 127
Width: 1897
Flags: W
LayerCount: 2
Fore
SplineSet
1581 1446 m 1,0,-1
 1813 1446 l 1,1,-1
 542 -25 l 1,2,-1
 309 -25 l 1,3,-1
 1581 1446 l 1,0,-1
753 1446 m 1,4,-1
 893 1446 l 1,5,-1
 645 583 l 1,6,-1
 462 583 l 1,7,-1
 656 1258 l 1,8,-1
 512 1221 l 1,9,-1
 518 1387 l 1,10,-1
 753 1446 l 1,4,-1
1203 76 m 1,11,12
 1249 154 1249 154 1309.5 223.5 c 128,-1,13
 1370 293 1370 293 1425 340.5 c 128,-1,14
 1480 388 1480 388 1536 431 c 128,-1,15
 1592 474 1592 474 1634.5 502.5 c 128,-1,16
 1677 531 1677 531 1706.5 558.5 c 128,-1,17
 1736 586 1736 586 1742 608 c 0,18,19
 1744 613 1744 613 1744 624 c 0,20,21
 1744 655 1744 655 1715.5 679 c 128,-1,22
 1687 703 1687 703 1636 703 c 0,23,24
 1573 703 1573 703 1425 650 c 2,25,-1
 1400 641 l 1,26,-1
 1381 785 l 1,27,-1
 1405 796 l 1,28,29
 1574 867 1574 867 1701 867 c 0,30,31
 1806 867 1806 867 1871 818 c 128,-1,32
 1936 769 1936 769 1936 686 c 0,33,34
 1936 657 1936 657 1927 624 c 0,35,36
 1910 566 1910 566 1870 515.5 c 128,-1,37
 1830 465 1830 465 1776 423.5 c 128,-1,38
 1722 382 1722 382 1665.5 342.5 c 128,-1,39
 1609 303 1609 303 1546 250 c 128,-1,40
 1483 197 1483 197 1438 141 c 1,41,-1
 1802 141 l 1,42,-1
 1755 -25 l 1,43,-1
 1174 -25 l 1,44,-1
 1203 76 l 1,11,12
EndSplineSet
EndChar

StartChar: threequarters
Encoding: 190 190 128
Width: 1950
Flags: W
LayerCount: 2
Fore
SplineSet
1741 1446 m 1,0,-1
 1973 1446 l 1,1,-1
 702 -25 l 1,2,-1
 469 -25 l 1,3,-1
 1741 1446 l 1,0,-1
1775 861 m 1,4,-1
 1970 861 l 1,5,-1
 1818 330 l 1,6,-1
 1925 330 l 1,7,-1
 1879 170 l 1,8,-1
 1772 170 l 1,9,-1
 1716 -25 l 1,10,-1
 1533 -25 l 1,11,-1
 1589 170 l 1,12,-1
 1199 170 l 1,13,-1
 1234 292 l 1,14,-1
 1775 861 l 1,4,-1
1712 601 m 1,15,-1
 1464 330 l 1,16,-1
 1635 330 l 1,17,-1
 1712 601 l 1,15,-1
875 1475 m 0,18,19
 981 1475 981 1475 1037.5 1426 c 128,-1,20
 1094 1377 1094 1377 1094 1301 c 0,21,22
 1094 1243 1094 1243 1060.5 1183.5 c 128,-1,23
 1027 1124 1027 1124 965 1078 c 1,24,25
 1027 1032 1027 1032 1027 952 c 0,26,27
 1027 920 1027 920 1016 882 c 0,28,29
 977 746 977 746 853.5 661 c 128,-1,30
 730 576 730 576 581 576 c 0,31,32
 479 576 479 576 365 627 c 2,33,-1
 345 636 l 1,34,-1
 440 786 l 1,35,-1
 462 780 l 1,36,37
 577 746 577 746 634 746 c 0,38,39
 701 746 701 746 759 778.5 c 128,-1,40
 817 811 817 811 832 862 c 0,41,42
 837 880 837 880 837 892 c 0,43,44
 837 977 837 977 641 977 c 2,45,-1
 616 977 l 1,46,-1
 663 1140 l 1,47,-1
 688 1140 l 2,48,49
 768 1140 768 1140 830 1161.5 c 128,-1,50
 892 1183 892 1183 906 1233 c 0,51,52
 908 1243 908 1243 908 1247 c 0,53,54
 908 1272 908 1272 885 1289.5 c 128,-1,55
 862 1307 862 1307 815 1307 c 0,56,57
 744 1307 744 1307 625 1258 c 2,58,-1
 598 1247 l 1,59,-1
 578 1397 l 1,60,-1
 601 1407 l 2,61,62
 759 1475 759 1475 875 1475 c 0,18,19
EndSplineSet
EndChar

StartChar: questiondown
Encoding: 191 191 129
Width: 1047
Flags: W
LayerCount: 2
Fore
SplineSet
608 1029 m 1,0,-1
 860 1029 l 1,1,-1
 848 988 l 2,2,3
 820 891 820 891 820 816 c 0,4,5
 820 750 820 750 842 697.5 c 128,-1,6
 864 645 864 645 895 610 c 128,-1,7
 926 575 926 575 957.5 542 c 128,-1,8
 989 509 989 509 1011 463.5 c 128,-1,9
 1033 418 1033 418 1033 361 c 0,10,11
 1033 310 1033 310 1014 241 c 1,12,13
 988 152 988 152 921.5 71 c 128,-1,14
 855 -10 855 -10 772.5 -64 c 128,-1,15
 690 -118 690 -118 601.5 -150 c 128,-1,16
 513 -182 513 -182 439 -182 c 0,17,18
 332 -182 332 -182 251 -159.5 c 128,-1,19
 170 -137 170 -137 84 -90 c 1,20,-1
 54 -73 l 1,21,-1
 193 122 l 1,22,-1
 226 107 l 2,23,24
 370 41 370 41 477 41 c 0,25,26
 589 41 589 41 665.5 95.5 c 128,-1,27
 742 150 742 150 763 225 c 0,28,29
 771 254 771 254 771 274 c 0,30,31
 771 313 771 313 748.5 347.5 c 128,-1,32
 726 382 726 382 694 413.5 c 128,-1,33
 662 445 662 445 630.5 483.5 c 128,-1,34
 599 522 599 522 576.5 585.5 c 128,-1,35
 554 649 554 649 554 730 c 0,36,37
 554 841 554 841 596 988 c 2,38,-1
 608 1029 l 1,0,-1
717 1462 m 1,39,-1
 999 1462 l 1,40,-1
 918 1179 l 1,41,-1
 636 1179 l 1,42,-1
 717 1462 l 1,39,-1
EndSplineSet
EndChar

StartChar: Agrave
Encoding: 192 192 130
Width: 1547
Flags: W
LayerCount: 2
Fore
SplineSet
1100 1421 m 1,0,-1
 1376 1421 l 1,1,-1
 1531 0 l 1,2,-1
 1272 0 l 1,3,-1
 1220 372 l 1,4,-1
 640 372 l 1,5,-1
 374 0 l 1,6,-1
 130 0 l 1,7,-1
 1100 1421 l 1,0,-1
1198 603 m 1,8,-1
 1147 1130 l 1,9,-1
 793 603 l 1,10,-1
 1198 603 l 1,8,-1
1147 1945 m 1,11,-1
 1677 1592 l 1,12,-1
 1513 1414 l 1,13,-1
 969 1750 l 1,14,-1
 1147 1945 l 1,11,-1
EndSplineSet
EndChar

StartChar: Aacute
Encoding: 193 193 131
Width: 1547
Flags: W
LayerCount: 2
Fore
SplineSet
1100 1421 m 1,0,-1
 1376 1421 l 1,1,-1
 1531 0 l 1,2,-1
 1272 0 l 1,3,-1
 1220 372 l 1,4,-1
 640 372 l 1,5,-1
 374 0 l 1,6,-1
 130 0 l 1,7,-1
 1100 1421 l 1,0,-1
1198 603 m 1,8,-1
 1147 1130 l 1,9,-1
 793 603 l 1,10,-1
 1198 603 l 1,8,-1
1628 1945 m 1,11,-1
 1695 1750 l 1,12,-1
 956 1414 l 1,13,-1
 895 1592 l 1,14,-1
 1628 1945 l 1,11,-1
EndSplineSet
EndChar

StartChar: Acircumflex
Encoding: 194 194 132
Width: 1547
Flags: W
LayerCount: 2
Fore
SplineSet
1100 1421 m 1,0,-1
 1376 1421 l 1,1,-1
 1531 0 l 1,2,-1
 1272 0 l 1,3,-1
 1220 372 l 1,4,-1
 640 372 l 1,5,-1
 374 0 l 1,6,-1
 130 0 l 1,7,-1
 1100 1421 l 1,0,-1
1198 603 m 1,8,-1
 1147 1130 l 1,9,-1
 793 603 l 1,10,-1
 1198 603 l 1,8,-1
1411 1943 m 1,11,-1
 1654 1595 l 1,12,-1
 1446 1450 l 1,13,-1
 1309 1644 l 1,14,-1
 1059 1453 l 1,15,-1
 932 1586 l 1,16,-1
 1411 1943 l 1,11,-1
EndSplineSet
EndChar

StartChar: Atilde
Encoding: 195 195 133
Width: 1547
Flags: W
LayerCount: 2
Fore
SplineSet
1640 1884 m 1,0,-1
 1837 1854 l 1,1,-1
 1816 1812 l 2,2,3
 1812 1804 1812 1804 1804 1787 c 0,4,5
 1787 1752 1787 1752 1777.5 1732.5 c 128,-1,6
 1768 1713 1768 1713 1747.5 1677.5 c 128,-1,7
 1727 1642 1727 1642 1709.5 1620.5 c 128,-1,8
 1692 1599 1692 1599 1664 1571.5 c 128,-1,9
 1636 1544 1636 1544 1608 1529 c 128,-1,10
 1580 1514 1580 1514 1541.5 1503 c 128,-1,11
 1503 1492 1503 1492 1461 1492 c 1,12,13
 1405 1494 1405 1494 1359 1513.5 c 128,-1,14
 1313 1533 1313 1533 1285 1559.5 c 128,-1,15
 1257 1586 1257 1586 1235.5 1612 c 128,-1,16
 1214 1638 1214 1638 1196 1656 c 128,-1,17
 1178 1674 1178 1674 1163 1674 c 0,18,19
 1150 1674 1150 1674 1137.5 1664.5 c 128,-1,20
 1125 1655 1125 1655 1110.5 1632 c 128,-1,21
 1096 1609 1096 1609 1088 1594.5 c 128,-1,22
 1080 1580 1080 1580 1063 1545 c 0,23,24
 1056 1532 1056 1532 1053 1525 c 2,25,-1
 1034 1487 l 1,26,-1
 834 1513 l 1,27,-1
 855 1556 l 2,28,29
 859 1563 859 1563 873 1592 c 128,-1,30
 887 1621 887 1621 893.5 1633.5 c 128,-1,31
 900 1646 900 1646 916 1674.5 c 128,-1,32
 932 1703 932 1703 943 1718 c 128,-1,33
 954 1733 954 1733 973.5 1758 c 128,-1,34
 993 1783 993 1783 1009.5 1796.5 c 128,-1,35
 1026 1810 1026 1810 1050 1827.5 c 128,-1,36
 1074 1845 1074 1845 1098 1854 c 128,-1,37
 1122 1863 1122 1863 1152 1869.5 c 128,-1,38
 1182 1876 1182 1876 1214 1876 c 1,39,40
 1270 1874 1270 1874 1316 1854.5 c 128,-1,41
 1362 1835 1362 1835 1390 1808.5 c 128,-1,42
 1418 1782 1418 1782 1439.5 1756.5 c 128,-1,43
 1461 1731 1461 1731 1479 1713 c 128,-1,44
 1497 1695 1497 1695 1512 1695 c 0,45,46
 1520 1695 1520 1695 1528 1698.5 c 128,-1,47
 1536 1702 1536 1702 1544 1711.5 c 128,-1,48
 1552 1721 1552 1721 1558 1729 c 128,-1,49
 1564 1737 1564 1737 1573 1753.5 c 128,-1,50
 1582 1770 1582 1770 1587.5 1780 c 128,-1,51
 1593 1790 1593 1790 1604 1812 c 128,-1,52
 1615 1834 1615 1834 1620 1845 c 2,53,-1
 1640 1884 l 1,0,-1
1198 603 m 1,54,-1
 1147 1130 l 1,55,-1
 793 603 l 1,56,-1
 1198 603 l 1,54,-1
1100 1421 m 1,57,-1
 1376 1421 l 1,58,-1
 1531 0 l 1,59,-1
 1272 0 l 1,60,-1
 1220 372 l 1,61,-1
 640 372 l 1,62,-1
 374 0 l 1,63,-1
 130 0 l 1,64,-1
 1100 1421 l 1,57,-1
EndSplineSet
EndChar

StartChar: Adieresis
Encoding: 196 196 134
Width: 1547
Flags: W
LayerCount: 2
Fore
SplineSet
1100 1421 m 1,0,-1
 1376 1421 l 1,1,-1
 1531 0 l 1,2,-1
 1272 0 l 1,3,-1
 1220 372 l 1,4,-1
 640 372 l 1,5,-1
 374 0 l 1,6,-1
 130 0 l 1,7,-1
 1100 1421 l 1,0,-1
1198 603 m 1,8,-1
 1147 1130 l 1,9,-1
 793 603 l 1,10,-1
 1198 603 l 1,8,-1
983 1897 m 1,11,-1
 1277 1897 l 1,12,-1
 1200 1630 l 1,13,-1
 906 1630 l 1,14,-1
 983 1897 l 1,11,-1
1476 1897 m 1,15,-1
 1770 1897 l 1,16,-1
 1693 1630 l 1,17,-1
 1399 1630 l 1,18,-1
 1476 1897 l 1,15,-1
EndSplineSet
EndChar

StartChar: Aring
Encoding: 197 197 135
Width: 1547
Flags: W
LayerCount: 2
Fore
SplineSet
1370 1873 m 0,0,1
 1493 1873 1493 1873 1562 1808 c 128,-1,2
 1631 1743 1631 1743 1631 1647 c 0,3,4
 1631 1558 1631 1558 1569.5 1472.5 c 128,-1,5
 1508 1387 1508 1387 1391 1335 c 1,6,-1
 1531 0 l 1,7,-1
 1272 0 l 1,8,-1
 1220 372 l 1,9,-1
 640 372 l 1,10,-1
 374 0 l 1,11,-1
 130 0 l 1,12,-1
 1038 1337 l 1,13,14
 940 1399 940 1399 940 1507 c 0,15,16
 940 1569 940 1569 974.5 1634.5 c 128,-1,17
 1009 1700 1009 1700 1066 1753 c 128,-1,18
 1123 1806 1123 1806 1204 1839.5 c 128,-1,19
 1285 1873 1285 1873 1370 1873 c 0,0,1
1319 1687 m 0,20,21
 1249 1687 1249 1687 1203 1642 c 128,-1,22
 1157 1597 1157 1597 1157 1545 c 0,23,24
 1157 1510 1157 1510 1181.5 1487.5 c 128,-1,25
 1206 1465 1206 1465 1255 1465 c 0,26,27
 1307 1465 1307 1465 1351.5 1498.5 c 128,-1,28
 1396 1532 1396 1532 1409 1577 c 0,29,30
 1413 1589 1413 1589 1413 1604 c 0,31,32
 1413 1640 1413 1640 1388 1663.5 c 128,-1,33
 1363 1687 1363 1687 1319 1687 c 0,20,21
1198 603 m 1,34,-1
 1147 1130 l 1,35,-1
 793 603 l 1,36,-1
 1198 603 l 1,34,-1
EndSplineSet
EndChar

StartChar: AE
Encoding: 198 198 136
Width: 2079
Flags: W
LayerCount: 2
Fore
SplineSet
1246 1189 m 1,0,-1
 820 603 l 1,1,-1
 1200 603 l 1,2,-1
 1368 1189 l 1,3,-1
 1246 1189 l 1,0,-1
1147 1421 m 1,4,-1
 2345 1421 l 1,5,-1
 2279 1189 l 1,6,-1
 1636 1189 l 1,7,-1
 1538 848 l 1,8,-1
 2126 848 l 1,9,-1
 2060 616 l 1,10,-1
 1472 616 l 1,11,-1
 1362 232 l 1,12,-1
 2005 232 l 1,13,-1
 1938 0 l 1,14,-1
 1027 0 l 1,15,-1
 1134 373 l 1,16,-1
 658 373 l 1,17,-1
 380 0 l 1,18,-1
 130 0 l 1,19,-1
 1147 1421 l 1,4,-1
EndSplineSet
EndChar

StartChar: Ccedilla
Encoding: 199 199 137
Width: 1615
Flags: W
LayerCount: 2
Fore
SplineSet
892 -317 m 0,0,1
 950 -317 950 -317 959 -286 c 0,2,3
 960 -284 960 -284 960 -281 c 0,4,5
 960 -260 960 -260 886 -236 c 0,6,7
 868 -230 868 -230 757 -199 c 2,8,-1
 717 -188 l 1,9,-1
 834 9 l 1,10,11
 643 58 643 58 545 185.5 c 128,-1,12
 447 313 447 313 447 493 c 0,13,14
 447 601 447 601 479 710 c 0,15,16
 523 864 523 864 617 996 c 128,-1,17
 711 1128 711 1128 841.5 1224.5 c 128,-1,18
 972 1321 972 1321 1141.5 1376 c 128,-1,19
 1311 1431 1311 1431 1497 1431 c 0,20,21
 1720 1431 1720 1431 1898 1352 c 1,22,-1
 1930 1337 l 1,23,-1
 1789 1121 l 1,24,-1
 1755 1134 l 1,25,26
 1581 1199 1581 1199 1426 1199 c 0,27,28
 1303 1199 1303 1199 1187 1158.5 c 128,-1,29
 1071 1118 1071 1118 982.5 1050 c 128,-1,30
 894 982 894 982 830 894 c 128,-1,31
 766 806 766 806 739 710 c 0,32,33
 720 642 720 642 720 584 c 0,34,35
 720 423 720 423 842 320.5 c 128,-1,36
 964 218 964 218 1185 218 c 0,37,38
 1347 218 1347 218 1527 276 c 2,39,-1
 1568 289 l 1,40,-1
 1593 89 l 1,41,-1
 1551 73 l 2,42,43
 1314 -18 1314 -18 1073 -20 c 1,44,-1
 1048 -66 l 1,45,46
 1186 -113 1186 -113 1186 -225 c 0,47,48
 1186 -327 1186 -327 1079.5 -416.5 c 128,-1,49
 973 -506 973 -506 832 -506 c 0,50,51
 787 -506 787 -506 745.5 -497.5 c 128,-1,52
 704 -489 704 -489 572 -451 c 1,53,-1
 532 -440 l 1,54,-1
 643 -257 l 1,55,-1
 683 -269 l 2,56,57
 842 -317 842 -317 892 -317 c 0,0,1
EndSplineSet
EndChar

StartChar: Egrave
Encoding: 200 200 138
Width: 1447
Flags: W
LayerCount: 2
Fore
SplineSet
697 1421 m 1,0,-1
 1694 1421 l 1,1,-1
 1628 1189 l 1,2,-1
 884 1189 l 1,3,-1
 786 848 l 1,4,-1
 1475 848 l 1,5,-1
 1409 616 l 1,6,-1
 720 616 l 1,7,-1
 610 232 l 1,8,-1
 1354 232 l 1,9,-1
 1287 0 l 1,10,-1
 290 0 l 1,11,-1
 697 1421 l 1,0,-1
1069 1965 m 1,12,-1
 1624 1612 l 1,13,-1
 1469 1434 l 1,14,-1
 901 1770 l 1,15,-1
 1069 1965 l 1,12,-1
EndSplineSet
EndChar

StartChar: Eacute
Encoding: 201 201 139
Width: 1447
Flags: W
LayerCount: 2
Fore
SplineSet
697 1421 m 1,0,-1
 1694 1421 l 1,1,-1
 1628 1189 l 1,2,-1
 884 1189 l 1,3,-1
 786 848 l 1,4,-1
 1475 848 l 1,5,-1
 1409 616 l 1,6,-1
 720 616 l 1,7,-1
 610 232 l 1,8,-1
 1354 232 l 1,9,-1
 1287 0 l 1,10,-1
 290 0 l 1,11,-1
 697 1421 l 1,0,-1
1653 1965 m 1,12,-1
 1709 1770 l 1,13,-1
 947 1434 l 1,14,-1
 896 1612 l 1,15,-1
 1653 1965 l 1,12,-1
EndSplineSet
EndChar

StartChar: Ecircumflex
Encoding: 202 202 140
Width: 1447
Flags: W
LayerCount: 2
Fore
SplineSet
697 1421 m 1,0,-1
 1694 1421 l 1,1,-1
 1628 1189 l 1,2,-1
 884 1189 l 1,3,-1
 786 848 l 1,4,-1
 1475 848 l 1,5,-1
 1409 616 l 1,6,-1
 720 616 l 1,7,-1
 610 232 l 1,8,-1
 1354 232 l 1,9,-1
 1287 0 l 1,10,-1
 290 0 l 1,11,-1
 697 1421 l 1,0,-1
1365 1951 m 1,12,-1
 1615 1602 l 1,13,-1
 1413 1458 l 1,14,-1
 1262 1652 l 1,15,-1
 995 1461 l 1,16,-1
 877 1594 l 1,17,-1
 1365 1951 l 1,12,-1
EndSplineSet
EndChar

StartChar: Edieresis
Encoding: 203 203 141
Width: 1447
Flags: W
LayerCount: 2
Fore
SplineSet
697 1421 m 1,0,-1
 1694 1421 l 1,1,-1
 1628 1189 l 1,2,-1
 884 1189 l 1,3,-1
 786 848 l 1,4,-1
 1475 848 l 1,5,-1
 1409 616 l 1,6,-1
 720 616 l 1,7,-1
 610 232 l 1,8,-1
 1354 232 l 1,9,-1
 1287 0 l 1,10,-1
 290 0 l 1,11,-1
 697 1421 l 1,0,-1
934 1898 m 1,12,-1
 1224 1898 l 1,13,-1
 1148 1631 l 1,14,-1
 858 1631 l 1,15,-1
 934 1898 l 1,12,-1
1441 1898 m 1,16,-1
 1731 1898 l 1,17,-1
 1655 1631 l 1,18,-1
 1365 1631 l 1,19,-1
 1441 1898 l 1,16,-1
EndSplineSet
EndChar

StartChar: Igrave
Encoding: 204 204 142
Width: 812
Flags: W
LayerCount: 2
Fore
SplineSet
742 1421 m 1,0,-1
 994 1421 l 1,1,-1
 587 0 l 1,2,-1
 335 0 l 1,3,-1
 742 1421 l 1,0,-1
806 1943 m 1,4,-1
 1279 1590 l 1,5,-1
 1124 1414 l 1,6,-1
 637 1748 l 1,7,-1
 806 1943 l 1,4,-1
EndSplineSet
EndChar

StartChar: Iacute
Encoding: 205 205 143
Width: 894
Flags: W
LayerCount: 2
Fore
SplineSet
823 1421 m 1,0,-1
 1075 1421 l 1,1,-1
 668 0 l 1,2,-1
 416 0 l 1,3,-1
 823 1421 l 1,0,-1
1341 1946 m 1,4,-1
 1396 1751 l 1,5,-1
 634 1414 l 1,6,-1
 584 1593 l 1,7,-1
 1341 1946 l 1,4,-1
EndSplineSet
EndChar

StartChar: Icircumflex
Encoding: 206 206 144
Width: 812
Flags: W
LayerCount: 2
Fore
SplineSet
745 1421 m 1,0,-1
 997 1421 l 1,1,-1
 590 0 l 1,2,-1
 338 0 l 1,3,-1
 745 1421 l 1,0,-1
1039 1943 m 1,4,-1
 1251 1594 l 1,5,-1
 1056 1450 l 1,6,-1
 938 1644 l 1,7,-1
 707 1453 l 1,8,-1
 595 1586 l 1,9,-1
 1039 1943 l 1,4,-1
EndSplineSet
EndChar

StartChar: Idieresis
Encoding: 207 207 145
Width: 752
Flags: W
LayerCount: 2
Fore
SplineSet
697 1421 m 1,0,-1
 949 1421 l 1,1,-1
 542 0 l 1,2,-1
 290 0 l 1,3,-1
 697 1421 l 1,0,-1
611 1824 m 1,4,-1
 878 1824 l 1,5,-1
 801 1557 l 1,6,-1
 534 1557 l 1,7,-1
 611 1824 l 1,4,-1
1000 1824 m 1,8,-1
 1267 1824 l 1,9,-1
 1190 1557 l 1,10,-1
 923 1557 l 1,11,-1
 1000 1824 l 1,8,-1
EndSplineSet
EndChar

StartChar: Eth
Encoding: 208 208 146
Width: 1769
Flags: W
LayerCount: 2
Fore
SplineSet
742 1421 m 1,0,-1
 1218 1421 l 2,1,2
 1257 1421 1257 1421 1292.5 1419.5 c 128,-1,3
 1328 1418 1328 1418 1381.5 1413 c 128,-1,4
 1435 1408 1435 1408 1481.5 1399 c 128,-1,5
 1528 1390 1528 1390 1582.5 1373 c 128,-1,6
 1637 1356 1637 1356 1681.5 1333 c 128,-1,7
 1726 1310 1726 1310 1768.5 1275 c 128,-1,8
 1811 1240 1811 1240 1840 1196.5 c 128,-1,9
 1869 1153 1869 1153 1886.5 1094 c 128,-1,10
 1904 1035 1904 1035 1904 965 c 0,11,12
 1904 867 1904 867 1871 752 c 0,13,14
 1656 0 1656 0 747 0 c 2,15,-1
 335 0 l 1,16,-1
 512 617 l 1,17,-1
 294 617 l 1,18,-1
 360 849 l 1,19,-1
 578 849 l 1,20,-1
 742 1421 l 1,0,-1
1165 1189 m 2,21,-1
 928 1189 l 1,22,-1
 830 849 l 1,23,-1
 1091 849 l 1,24,-1
 1025 617 l 1,25,-1
 764 617 l 1,26,-1
 654 232 l 1,27,-1
 820 232 l 2,28,29
 885 232 885 232 937.5 235 c 128,-1,30
 990 238 990 238 1063 249 c 128,-1,31
 1136 260 1136 260 1195.5 279.5 c 128,-1,32
 1255 299 1255 299 1321.5 336 c 128,-1,33
 1388 373 1388 373 1439 423 c 128,-1,34
 1490 473 1490 473 1535 548.5 c 128,-1,35
 1580 624 1580 624 1607 719 c 0,36,37
 1628 792 1628 792 1628 861 c 0,38,39
 1628 927 1628 927 1606 982.5 c 128,-1,40
 1584 1038 1584 1038 1534 1086 c 128,-1,41
 1484 1134 1484 1134 1390 1161.5 c 128,-1,42
 1296 1189 1296 1189 1165 1189 c 2,21,-1
EndSplineSet
EndChar

StartChar: Ntilde
Encoding: 209 209 147
Width: 1823
Flags: W
LayerCount: 2
Fore
SplineSet
1770 1884 m 1,0,-1
 1967 1854 l 1,1,-1
 1946 1812 l 2,2,3
 1942 1804 1942 1804 1934 1787 c 0,4,5
 1917 1752 1917 1752 1907.5 1732.5 c 128,-1,6
 1898 1713 1898 1713 1877.5 1677.5 c 128,-1,7
 1857 1642 1857 1642 1839.5 1620.5 c 128,-1,8
 1822 1599 1822 1599 1794 1571.5 c 128,-1,9
 1766 1544 1766 1544 1738 1529 c 128,-1,10
 1710 1514 1710 1514 1671.5 1503 c 128,-1,11
 1633 1492 1633 1492 1591 1492 c 1,12,13
 1535 1494 1535 1494 1489 1513.5 c 128,-1,14
 1443 1533 1443 1533 1415 1559.5 c 128,-1,15
 1387 1586 1387 1586 1365.5 1612 c 128,-1,16
 1344 1638 1344 1638 1326 1656 c 128,-1,17
 1308 1674 1308 1674 1293 1674 c 0,18,19
 1280 1674 1280 1674 1267.5 1664.5 c 128,-1,20
 1255 1655 1255 1655 1240.5 1632 c 128,-1,21
 1226 1609 1226 1609 1218 1594.5 c 128,-1,22
 1210 1580 1210 1580 1193 1545 c 0,23,24
 1186 1532 1186 1532 1183 1525 c 2,25,-1
 1164 1487 l 1,26,-1
 964 1513 l 1,27,-1
 985 1556 l 2,28,29
 989 1563 989 1563 1003 1592 c 128,-1,30
 1017 1621 1017 1621 1023.5 1633.5 c 128,-1,31
 1030 1646 1030 1646 1046 1674.5 c 128,-1,32
 1062 1703 1062 1703 1073 1718 c 128,-1,33
 1084 1733 1084 1733 1103.5 1758 c 128,-1,34
 1123 1783 1123 1783 1139.5 1796.5 c 128,-1,35
 1156 1810 1156 1810 1180 1827.5 c 128,-1,36
 1204 1845 1204 1845 1228 1854 c 128,-1,37
 1252 1863 1252 1863 1282 1869.5 c 128,-1,38
 1312 1876 1312 1876 1344 1876 c 1,39,40
 1400 1874 1400 1874 1446 1854.5 c 128,-1,41
 1492 1835 1492 1835 1520 1808.5 c 128,-1,42
 1548 1782 1548 1782 1569.5 1756.5 c 128,-1,43
 1591 1731 1591 1731 1609 1713 c 128,-1,44
 1627 1695 1627 1695 1642 1695 c 0,45,46
 1650 1695 1650 1695 1658 1698.5 c 128,-1,47
 1666 1702 1666 1702 1674 1711.5 c 128,-1,48
 1682 1721 1682 1721 1688 1729 c 128,-1,49
 1694 1737 1694 1737 1703 1753.5 c 128,-1,50
 1712 1770 1712 1770 1717.5 1780 c 128,-1,51
 1723 1790 1723 1790 1734 1812 c 128,-1,52
 1745 1834 1745 1834 1750 1845 c 2,53,-1
 1770 1884 l 1,0,-1
697 1421 m 1,54,-1
 975 1421 l 1,55,-1
 1455 329 l 1,56,-1
 1768 1421 l 1,57,-1
 2020 1421 l 1,58,-1
 1613 0 l 1,59,-1
 1332 0 l 1,60,-1
 856 1094 l 1,61,-1
 542 0 l 1,62,-1
 290 0 l 1,63,-1
 697 1421 l 1,54,-1
EndSplineSet
EndChar

StartChar: Ograve
Encoding: 210 210 148
Width: 1850
Flags: W
LayerCount: 2
Fore
SplineSet
1378 1436 m 0,0,1
 1646 1436 1646 1436 1801.5 1306 c 128,-1,2
 1957 1176 1957 1176 1957 947 c 0,3,4
 1957 843 1957 843 1923 726 c 0,5,6
 1861 508 1861 508 1717.5 339.5 c 128,-1,7
 1574 171 1574 171 1375.5 78 c 128,-1,8
 1177 -15 1177 -15 954 -15 c 0,9,10
 833 -15 833 -15 730 16 c 128,-1,11
 627 47 627 47 549 107 c 128,-1,12
 471 167 471 167 427 262 c 128,-1,13
 383 357 383 357 383 477 c 0,14,15
 383 584 383 584 418 707 c 0,16,17
 481 926 481 926 624.5 1092.5 c 128,-1,18
 768 1259 768 1259 963.5 1347.5 c 128,-1,19
 1159 1436 1159 1436 1378 1436 c 0,0,1
1660 709 m 0,20,21
 1685 796 1685 796 1685 869 c 0,22,23
 1685 954 1685 954 1653 1020.5 c 128,-1,24
 1621 1087 1621 1087 1565.5 1126 c 128,-1,25
 1510 1165 1510 1165 1442.5 1185 c 128,-1,26
 1375 1205 1375 1205 1299 1205 c 0,27,28
 1211 1205 1211 1205 1120 1176.5 c 128,-1,29
 1029 1148 1029 1148 942 1092.5 c 128,-1,30
 855 1037 855 1037 785 942.5 c 128,-1,31
 715 848 715 848 681 727 c 0,32,33
 656 640 656 640 656 564 c 0,34,35
 656 402 656 402 759.5 309 c 128,-1,36
 863 216 863 216 1035 216 c 0,37,38
 1124 216 1124 216 1216 245 c 128,-1,39
 1308 274 1308 274 1395 331 c 128,-1,40
 1482 388 1482 388 1553 486 c 128,-1,41
 1624 584 1624 584 1660 709 c 0,20,21
1349 1948 m 1,42,-1
 1872 1595 l 1,43,-1
 1708 1417 l 1,44,-1
 1171 1753 l 1,45,-1
 1349 1948 l 1,42,-1
EndSplineSet
EndChar

StartChar: Oacute
Encoding: 211 211 149
Width: 1850
Flags: W
LayerCount: 2
Fore
SplineSet
1378 1436 m 0,0,1
 1646 1436 1646 1436 1801.5 1306 c 128,-1,2
 1957 1176 1957 1176 1957 947 c 0,3,4
 1957 843 1957 843 1923 726 c 0,5,6
 1861 508 1861 508 1717.5 339.5 c 128,-1,7
 1574 171 1574 171 1375.5 78 c 128,-1,8
 1177 -15 1177 -15 954 -15 c 0,9,10
 833 -15 833 -15 730 16 c 128,-1,11
 627 47 627 47 549 107 c 128,-1,12
 471 167 471 167 427 262 c 128,-1,13
 383 357 383 357 383 477 c 0,14,15
 383 584 383 584 418 707 c 0,16,17
 481 926 481 926 624.5 1092.5 c 128,-1,18
 768 1259 768 1259 963.5 1347.5 c 128,-1,19
 1159 1436 1159 1436 1378 1436 c 0,0,1
1660 709 m 0,20,21
 1685 796 1685 796 1685 869 c 0,22,23
 1685 954 1685 954 1653 1020.5 c 128,-1,24
 1621 1087 1621 1087 1565.5 1126 c 128,-1,25
 1510 1165 1510 1165 1442.5 1185 c 128,-1,26
 1375 1205 1375 1205 1299 1205 c 0,27,28
 1211 1205 1211 1205 1120 1176.5 c 128,-1,29
 1029 1148 1029 1148 942 1092.5 c 128,-1,30
 855 1037 855 1037 785 942.5 c 128,-1,31
 715 848 715 848 681 727 c 0,32,33
 656 640 656 640 656 564 c 0,34,35
 656 402 656 402 759.5 309 c 128,-1,36
 863 216 863 216 1035 216 c 0,37,38
 1124 216 1124 216 1216 245 c 128,-1,39
 1308 274 1308 274 1395 331 c 128,-1,40
 1482 388 1482 388 1553 486 c 128,-1,41
 1624 584 1624 584 1660 709 c 0,20,21
1783 1946 m 1,42,-1
 1848 1751 l 1,43,-1
 1116 1414 l 1,44,-1
 1057 1593 l 1,45,-1
 1783 1946 l 1,42,-1
EndSplineSet
EndChar

StartChar: Ocircumflex
Encoding: 212 212 150
Width: 1850
Flags: W
LayerCount: 2
Fore
SplineSet
1378 1436 m 0,0,1
 1646 1436 1646 1436 1801.5 1306 c 128,-1,2
 1957 1176 1957 1176 1957 947 c 0,3,4
 1957 843 1957 843 1923 726 c 0,5,6
 1861 508 1861 508 1717.5 339.5 c 128,-1,7
 1574 171 1574 171 1375.5 78 c 128,-1,8
 1177 -15 1177 -15 954 -15 c 0,9,10
 833 -15 833 -15 730 16 c 128,-1,11
 627 47 627 47 549 107 c 128,-1,12
 471 167 471 167 427 262 c 128,-1,13
 383 357 383 357 383 477 c 0,14,15
 383 584 383 584 418 707 c 0,16,17
 481 926 481 926 624.5 1092.5 c 128,-1,18
 768 1259 768 1259 963.5 1347.5 c 128,-1,19
 1159 1436 1159 1436 1378 1436 c 0,0,1
1660 709 m 0,20,21
 1685 796 1685 796 1685 869 c 0,22,23
 1685 954 1685 954 1653 1020.5 c 128,-1,24
 1621 1087 1621 1087 1565.5 1126 c 128,-1,25
 1510 1165 1510 1165 1442.5 1185 c 128,-1,26
 1375 1205 1375 1205 1299 1205 c 0,27,28
 1211 1205 1211 1205 1120 1176.5 c 128,-1,29
 1029 1148 1029 1148 942 1092.5 c 128,-1,30
 855 1037 855 1037 785 942.5 c 128,-1,31
 715 848 715 848 681 727 c 0,32,33
 656 640 656 640 656 564 c 0,34,35
 656 402 656 402 759.5 309 c 128,-1,36
 863 216 863 216 1035 216 c 0,37,38
 1124 216 1124 216 1216 245 c 128,-1,39
 1308 274 1308 274 1395 331 c 128,-1,40
 1482 388 1482 388 1553 486 c 128,-1,41
 1624 584 1624 584 1660 709 c 0,20,21
1555 1943 m 1,42,-1
 1794 1595 l 1,43,-1
 1587 1450 l 1,44,-1
 1453 1644 l 1,45,-1
 1205 1453 l 1,46,-1
 1080 1586 l 1,47,-1
 1555 1943 l 1,42,-1
EndSplineSet
EndChar

StartChar: Otilde
Encoding: 213 213 151
Width: 1850
Flags: W
LayerCount: 2
Fore
SplineSet
1782 1884 m 1,0,-1
 1979 1854 l 1,1,-1
 1958 1812 l 2,2,3
 1954 1804 1954 1804 1946 1787 c 0,4,5
 1929 1752 1929 1752 1919.5 1732.5 c 128,-1,6
 1910 1713 1910 1713 1889.5 1677.5 c 128,-1,7
 1869 1642 1869 1642 1851.5 1620.5 c 128,-1,8
 1834 1599 1834 1599 1806 1571.5 c 128,-1,9
 1778 1544 1778 1544 1750 1529 c 128,-1,10
 1722 1514 1722 1514 1683.5 1503 c 128,-1,11
 1645 1492 1645 1492 1603 1492 c 1,12,13
 1547 1494 1547 1494 1501 1513.5 c 128,-1,14
 1455 1533 1455 1533 1427 1559.5 c 128,-1,15
 1399 1586 1399 1586 1377.5 1612 c 128,-1,16
 1356 1638 1356 1638 1338 1656 c 128,-1,17
 1320 1674 1320 1674 1305 1674 c 0,18,19
 1292 1674 1292 1674 1279.5 1664.5 c 128,-1,20
 1267 1655 1267 1655 1252.5 1632 c 128,-1,21
 1238 1609 1238 1609 1230 1594.5 c 128,-1,22
 1222 1580 1222 1580 1205 1545 c 0,23,24
 1198 1532 1198 1532 1195 1525 c 2,25,-1
 1176 1487 l 1,26,-1
 976 1513 l 1,27,-1
 997 1556 l 2,28,29
 1001 1563 1001 1563 1015 1592 c 128,-1,30
 1029 1621 1029 1621 1035.5 1633.5 c 128,-1,31
 1042 1646 1042 1646 1058 1674.5 c 128,-1,32
 1074 1703 1074 1703 1085 1718 c 128,-1,33
 1096 1733 1096 1733 1115.5 1758 c 128,-1,34
 1135 1783 1135 1783 1151.5 1796.5 c 128,-1,35
 1168 1810 1168 1810 1192 1827.5 c 128,-1,36
 1216 1845 1216 1845 1240 1854 c 128,-1,37
 1264 1863 1264 1863 1294 1869.5 c 128,-1,38
 1324 1876 1324 1876 1356 1876 c 1,39,40
 1412 1874 1412 1874 1458 1854.5 c 128,-1,41
 1504 1835 1504 1835 1532 1808.5 c 128,-1,42
 1560 1782 1560 1782 1581.5 1756.5 c 128,-1,43
 1603 1731 1603 1731 1621 1713 c 128,-1,44
 1639 1695 1639 1695 1654 1695 c 0,45,46
 1662 1695 1662 1695 1670 1698.5 c 128,-1,47
 1678 1702 1678 1702 1686 1711.5 c 128,-1,48
 1694 1721 1694 1721 1700 1729 c 128,-1,49
 1706 1737 1706 1737 1715 1753.5 c 128,-1,50
 1724 1770 1724 1770 1729.5 1780 c 128,-1,51
 1735 1790 1735 1790 1746 1812 c 128,-1,52
 1757 1834 1757 1834 1762 1845 c 2,53,-1
 1782 1884 l 1,0,-1
1660 709 m 0,54,55
 1685 796 1685 796 1685 869 c 0,56,57
 1685 954 1685 954 1653 1020 c 128,-1,58
 1621 1086 1621 1086 1566 1125.5 c 128,-1,59
 1511 1165 1511 1165 1443.5 1185 c 128,-1,60
 1376 1205 1376 1205 1299 1205 c 0,61,62
 1211 1205 1211 1205 1120 1176.5 c 128,-1,63
 1029 1148 1029 1148 942 1092.5 c 128,-1,64
 855 1037 855 1037 785 942.5 c 128,-1,65
 715 848 715 848 681 727 c 0,66,67
 656 640 656 640 656 564 c 0,68,69
 656 402 656 402 759.5 309 c 128,-1,70
 863 216 863 216 1035 216 c 0,71,72
 1124 216 1124 216 1216 245 c 128,-1,73
 1308 274 1308 274 1395 331 c 128,-1,74
 1482 388 1482 388 1553 486 c 128,-1,75
 1624 584 1624 584 1660 709 c 0,54,55
1378 1436 m 0,76,77
 1646 1436 1646 1436 1801.5 1306 c 128,-1,78
 1957 1176 1957 1176 1957 947 c 0,79,80
 1957 843 1957 843 1923 726 c 0,81,82
 1861 508 1861 508 1717.5 339.5 c 128,-1,83
 1574 171 1574 171 1375.5 78 c 128,-1,84
 1177 -15 1177 -15 954 -15 c 0,85,86
 833 -15 833 -15 730 16 c 128,-1,87
 627 47 627 47 549 107 c 128,-1,88
 471 167 471 167 427 262 c 128,-1,89
 383 357 383 357 383 477 c 0,90,91
 383 584 383 584 418 707 c 0,92,93
 481 926 481 926 624.5 1092.5 c 128,-1,94
 768 1259 768 1259 963.5 1347.5 c 128,-1,95
 1159 1436 1159 1436 1378 1436 c 0,76,77
EndSplineSet
EndChar

StartChar: Odieresis
Encoding: 214 214 152
Width: 1850
Flags: W
LayerCount: 2
Fore
SplineSet
1378 1436 m 0,0,1
 1646 1436 1646 1436 1801.5 1306 c 128,-1,2
 1957 1176 1957 1176 1957 947 c 0,3,4
 1957 843 1957 843 1923 726 c 0,5,6
 1861 508 1861 508 1717.5 339.5 c 128,-1,7
 1574 171 1574 171 1375.5 78 c 128,-1,8
 1177 -15 1177 -15 954 -15 c 0,9,10
 833 -15 833 -15 730 16 c 128,-1,11
 627 47 627 47 549 107 c 128,-1,12
 471 167 471 167 427 262 c 128,-1,13
 383 357 383 357 383 477 c 0,14,15
 383 584 383 584 418 707 c 0,16,17
 481 926 481 926 624.5 1092.5 c 128,-1,18
 768 1259 768 1259 963.5 1347.5 c 128,-1,19
 1159 1436 1159 1436 1378 1436 c 0,0,1
1660 709 m 0,20,21
 1685 796 1685 796 1685 869 c 0,22,23
 1685 954 1685 954 1653 1020.5 c 128,-1,24
 1621 1087 1621 1087 1565.5 1126 c 128,-1,25
 1510 1165 1510 1165 1442.5 1185 c 128,-1,26
 1375 1205 1375 1205 1299 1205 c 0,27,28
 1211 1205 1211 1205 1120 1176.5 c 128,-1,29
 1029 1148 1029 1148 942 1092.5 c 128,-1,30
 855 1037 855 1037 785 942.5 c 128,-1,31
 715 848 715 848 681 727 c 0,32,33
 656 640 656 640 656 564 c 0,34,35
 656 402 656 402 759.5 309 c 128,-1,36
 863 216 863 216 1035 216 c 0,37,38
 1124 216 1124 216 1216 245 c 128,-1,39
 1308 274 1308 274 1395 331 c 128,-1,40
 1482 388 1482 388 1553 486 c 128,-1,41
 1624 584 1624 584 1660 709 c 0,20,21
1130 1898 m 1,42,-1
 1421 1898 l 1,43,-1
 1345 1631 l 1,44,-1
 1054 1631 l 1,45,-1
 1130 1898 l 1,42,-1
1619 1898 m 1,46,-1
 1910 1898 l 1,47,-1
 1834 1631 l 1,48,-1
 1543 1631 l 1,49,-1
 1619 1898 l 1,46,-1
EndSplineSet
EndChar

StartChar: multiply
Encoding: 215 215 153
Width: 1463
Flags: W
LayerCount: 2
Fore
SplineSet
393 165 m 1,0,-1
 276 328 l 1,1,-1
 741 654 l 1,2,-1
 468 971 l 1,3,-1
 678 1134 l 1,4,-1
 986 802 l 1,5,-1
 1473 1128 l 1,6,-1
 1589 964 l 1,7,-1
 1127 639 l 1,8,-1
 1398 321 l 1,9,-1
 1188 158 l 1,10,-1
 881 490 l 1,11,-1
 393 165 l 1,0,-1
EndSplineSet
EndChar

StartChar: Oslash
Encoding: 216 216 154
Width: 1920
Flags: W
LayerCount: 2
Fore
SplineSet
1322 1205 m 0,0,1
 1231 1205 1231 1205 1139 1176.5 c 128,-1,2
 1047 1148 1047 1148 960.5 1092 c 128,-1,3
 874 1036 874 1036 805 941.5 c 128,-1,4
 736 847 736 847 701 727 c 0,5,6
 676 640 676 640 676 563 c 0,7,8
 676 511 676 511 689 461 c 1,9,-1
 1622 1093 l 1,10,11
 1514 1205 1514 1205 1322 1205 c 0,0,1
2102 1417 m 1,12,-1
 2174 1289 l 1,13,-1
 1944 1134 l 1,14,15
 1977 1046 1977 1046 1977 946 c 0,16,17
 1977 843 1977 843 1943 726 c 0,18,19
 1881 508 1881 508 1737.5 339.5 c 128,-1,20
 1594 171 1594 171 1395.5 78 c 128,-1,21
 1197 -15 1197 -15 974 -15 c 0,22,23
 827 -15 827 -15 706.5 30 c 128,-1,24
 586 75 586 75 510 163 c 1,25,-1
 267 -1 l 1,26,-1
 196 128 l 1,27,-1
 435 289 l 1,28,29
 403 371 403 371 403 476 c 0,30,31
 403 584 403 584 438 707 c 0,32,33
 501 926 501 926 644.5 1092.5 c 128,-1,34
 788 1259 788 1259 983.5 1347.5 c 128,-1,35
 1179 1436 1179 1436 1398 1436 c 0,36,37
 1715 1436 1715 1436 1869 1259 c 1,38,-1
 2102 1417 l 1,12,-1
1693 964 m 1,39,-1
 758 331 l 1,40,41
 862 216 862 216 1055 216 c 0,42,43
 1144 216 1144 216 1236 245 c 128,-1,44
 1328 274 1328 274 1415 331 c 128,-1,45
 1502 388 1502 388 1573 486 c 128,-1,46
 1644 584 1644 584 1680 709 c 0,47,48
 1705 796 1705 796 1705 869 c 0,49,50
 1705 920 1705 920 1693 964 c 1,39,-1
EndSplineSet
EndChar

StartChar: Ugrave
Encoding: 217 217 155
Width: 1744
Flags: W
LayerCount: 2
Fore
SplineSet
697 1421 m 1,0,-1
 949 1421 l 1,1,-1
 691 520 l 2,2,3
 672 451 672 451 672 402 c 0,4,5
 672 209 672 209 972 209 c 0,6,7
 1079 209 1079 209 1160.5 232 c 128,-1,8
 1242 255 1242 255 1294.5 299.5 c 128,-1,9
 1347 344 1347 344 1379 397 c 128,-1,10
 1411 450 1411 450 1431 520 c 2,11,-1
 1689 1421 l 1,12,-1
 1941 1421 l 1,13,-1
 1676 495 l 2,14,15
 1666 461 1666 461 1658.5 438 c 128,-1,16
 1651 415 1651 415 1632.5 371.5 c 128,-1,17
 1614 328 1614 328 1594 295.5 c 128,-1,18
 1574 263 1574 263 1539.5 220 c 128,-1,19
 1505 177 1505 177 1465.5 146 c 128,-1,20
 1426 115 1426 115 1368 81.5 c 128,-1,21
 1310 48 1310 48 1243 27.5 c 128,-1,22
 1176 7 1176 7 1087.5 -6.5 c 128,-1,23
 999 -20 999 -20 898 -20 c 0,24,25
 399 -20 399 -20 399 305 c 0,26,27
 399 384 399 384 432 495 c 1,28,-1
 697 1421 l 1,0,-1
1230 1973 m 1,29,-1
 1772 1620 l 1,30,-1
 1607 1444 l 1,31,-1
 1048 1778 l 1,32,-1
 1230 1973 l 1,29,-1
EndSplineSet
EndChar

StartChar: Uacute
Encoding: 218 218 156
Width: 1744
Flags: W
LayerCount: 2
Fore
SplineSet
697 1421 m 1,0,-1
 949 1421 l 1,1,-1
 691 520 l 2,2,3
 672 451 672 451 672 402 c 0,4,5
 672 209 672 209 972 209 c 0,6,7
 1079 209 1079 209 1160.5 232 c 128,-1,8
 1242 255 1242 255 1294.5 299.5 c 128,-1,9
 1347 344 1347 344 1379 397 c 128,-1,10
 1411 450 1411 450 1431 520 c 2,11,-1
 1689 1421 l 1,12,-1
 1941 1421 l 1,13,-1
 1676 495 l 2,14,15
 1666 461 1666 461 1658.5 438 c 128,-1,16
 1651 415 1651 415 1632.5 371.5 c 128,-1,17
 1614 328 1614 328 1594 295.5 c 128,-1,18
 1574 263 1574 263 1539.5 220 c 128,-1,19
 1505 177 1505 177 1465.5 146 c 128,-1,20
 1426 115 1426 115 1368 81.5 c 128,-1,21
 1310 48 1310 48 1243 27.5 c 128,-1,22
 1176 7 1176 7 1087.5 -6.5 c 128,-1,23
 999 -20 999 -20 898 -20 c 0,24,25
 399 -20 399 -20 399 305 c 0,26,27
 399 384 399 384 432 495 c 1,28,-1
 697 1421 l 1,0,-1
1759 1976 m 1,29,-1
 1824 1781 l 1,30,-1
 1075 1444 l 1,31,-1
 1011 1623 l 1,32,-1
 1759 1976 l 1,29,-1
EndSplineSet
EndChar

StartChar: Ucircumflex
Encoding: 219 219 157
Width: 1744
Flags: W
LayerCount: 2
Fore
SplineSet
697 1421 m 1,0,-1
 949 1421 l 1,1,-1
 691 520 l 2,2,3
 672 451 672 451 672 402 c 0,4,5
 672 209 672 209 972 209 c 0,6,7
 1079 209 1079 209 1160.5 232 c 128,-1,8
 1242 255 1242 255 1294.5 299.5 c 128,-1,9
 1347 344 1347 344 1379 397 c 128,-1,10
 1411 450 1411 450 1431 520 c 2,11,-1
 1689 1421 l 1,12,-1
 1941 1421 l 1,13,-1
 1676 495 l 2,14,15
 1666 461 1666 461 1658.5 438 c 128,-1,16
 1651 415 1651 415 1632.5 371.5 c 128,-1,17
 1614 328 1614 328 1594 295.5 c 128,-1,18
 1574 263 1574 263 1539.5 220 c 128,-1,19
 1505 177 1505 177 1465.5 146 c 128,-1,20
 1426 115 1426 115 1368 81.5 c 128,-1,21
 1310 48 1310 48 1243 27.5 c 128,-1,22
 1176 7 1176 7 1087.5 -6.5 c 128,-1,23
 999 -20 999 -20 898 -20 c 0,24,25
 399 -20 399 -20 399 305 c 0,26,27
 399 384 399 384 432 495 c 1,28,-1
 697 1421 l 1,0,-1
1486 1943 m 1,29,-1
 1737 1594 l 1,30,-1
 1523 1450 l 1,31,-1
 1383 1644 l 1,32,-1
 1130 1453 l 1,33,-1
 999 1586 l 1,34,-1
 1486 1943 l 1,29,-1
EndSplineSet
EndChar

StartChar: Udieresis
Encoding: 220 220 158
Width: 1744
Flags: W
LayerCount: 2
Fore
SplineSet
697 1421 m 1,0,-1
 949 1421 l 1,1,-1
 691 520 l 2,2,3
 672 451 672 451 672 402 c 0,4,5
 672 209 672 209 972 209 c 0,6,7
 1079 209 1079 209 1160.5 232 c 128,-1,8
 1242 255 1242 255 1294.5 299.5 c 128,-1,9
 1347 344 1347 344 1379 397 c 128,-1,10
 1411 450 1411 450 1431 520 c 2,11,-1
 1689 1421 l 1,12,-1
 1941 1421 l 1,13,-1
 1676 495 l 2,14,15
 1666 461 1666 461 1658.5 438 c 128,-1,16
 1651 415 1651 415 1632.5 371.5 c 128,-1,17
 1614 328 1614 328 1594 295.5 c 128,-1,18
 1574 263 1574 263 1539.5 220 c 128,-1,19
 1505 177 1505 177 1465.5 146 c 128,-1,20
 1426 115 1426 115 1368 81.5 c 128,-1,21
 1310 48 1310 48 1243 27.5 c 128,-1,22
 1176 7 1176 7 1087.5 -6.5 c 128,-1,23
 999 -20 999 -20 898 -20 c 0,24,25
 399 -20 399 -20 399 305 c 0,26,27
 399 384 399 384 432 495 c 1,28,-1
 697 1421 l 1,0,-1
1057 1898 m 1,29,-1
 1354 1898 l 1,30,-1
 1278 1631 l 1,31,-1
 981 1631 l 1,32,-1
 1057 1898 l 1,29,-1
1558 1898 m 1,33,-1
 1855 1898 l 1,34,-1
 1779 1631 l 1,35,-1
 1482 1631 l 1,36,-1
 1558 1898 l 1,33,-1
EndSplineSet
EndChar

StartChar: Yacute
Encoding: 221 221 159
Width: 1427
Flags: W
LayerCount: 2
Fore
SplineSet
507 1421 m 1,0,-1
 805 1421 l 1,1,-1
 1027 870 l 1,2,-1
 1573 1421 l 1,3,-1
 1861 1421 l 1,4,-1
 1099 664 l 1,5,-1
 909 0 l 1,6,-1
 626 0 l 1,7,-1
 816 664 l 1,8,-1
 507 1421 l 1,0,-1
1594 1976 m 1,9,-1
 1662 1781 l 1,10,-1
 913 1444 l 1,11,-1
 851 1623 l 1,12,-1
 1594 1976 l 1,9,-1
EndSplineSet
EndChar

StartChar: Thorn
Encoding: 222 222 160
Width: 1490
Flags: W
LayerCount: 2
Fore
SplineSet
1028 967 m 0,0,1
 915 967 915 967 817 960 c 1,2,-1
 691 521 l 1,3,4
 794 515 794 515 868 515 c 2,5,-1
 900 515 l 2,6,7
 956 515 956 515 998 517.5 c 128,-1,8
 1040 520 1040 520 1091 528 c 128,-1,9
 1142 536 1142 536 1180.5 552 c 128,-1,10
 1219 568 1219 568 1255.5 593.5 c 128,-1,11
 1292 619 1292 619 1318.5 659 c 128,-1,12
 1345 699 1345 699 1360 752 c 0,13,14
 1370 785 1370 785 1370 814 c 0,15,16
 1370 862 1370 862 1343.5 893.5 c 128,-1,17
 1317 925 1317 925 1265.5 940.5 c 128,-1,18
 1214 956 1214 956 1159 961.5 c 128,-1,19
 1104 967 1104 967 1028 967 c 0,0,1
697 1421 m 1,20,-1
 949 1421 l 1,21,-1
 875 1160 l 1,22,23
 1008 1169 1008 1169 1140 1169 c 0,24,25
 1255 1169 1255 1169 1341.5 1156.5 c 128,-1,26
 1428 1144 1428 1144 1498 1114.5 c 128,-1,27
 1568 1085 1568 1085 1605 1030.5 c 128,-1,28
 1642 976 1642 976 1642 898 c 0,29,30
 1642 845 1642 845 1622 773 c 0,31,32
 1607 721 1607 721 1584 670.5 c 128,-1,33
 1561 620 1561 620 1522 564 c 128,-1,34
 1483 508 1483 508 1435 461.5 c 128,-1,35
 1387 415 1387 415 1317.5 376 c 128,-1,36
 1248 337 1248 337 1167 317 c 1,37,38
 1027 285 1027 285 766 285 c 0,39,40
 694 285 694 285 625 288 c 1,41,-1
 542 0 l 1,42,-1
 290 0 l 1,43,-1
 697 1421 l 1,20,-1
EndSplineSet
EndChar

StartChar: germandbls
Encoding: 223 223 161
Width: 1412
Flags: W
LayerCount: 2
Fore
SplineSet
1064 1430 m 0,0,1
 1152 1430 1152 1430 1219.5 1406 c 128,-1,2
 1287 1382 1287 1382 1326.5 1341 c 128,-1,3
 1366 1300 1366 1300 1385.5 1251 c 128,-1,4
 1405 1202 1405 1202 1405 1147 c 0,5,6
 1405 1102 1405 1102 1393 1060 c 0,7,8
 1377 1005 1377 1005 1342 958.5 c 128,-1,9
 1307 912 1307 912 1266 881.5 c 128,-1,10
 1225 851 1225 851 1179 823.5 c 128,-1,11
 1133 796 1133 796 1095.5 777.5 c 128,-1,12
 1058 759 1058 759 1030 738 c 128,-1,13
 1002 717 1002 717 997 698 c 0,14,15
 995 690 995 690 995 686 c 0,16,17
 995 663 995 663 1023.5 645 c 128,-1,18
 1052 627 1052 627 1095 614.5 c 128,-1,19
 1138 602 1138 602 1188 581.5 c 128,-1,20
 1238 561 1238 561 1281 537 c 128,-1,21
 1324 513 1324 513 1352.5 468.5 c 128,-1,22
 1381 424 1381 424 1381 366 c 0,23,24
 1381 329 1381 329 1367 279 c 0,25,26
 1352 229 1352 229 1319.5 179.5 c 128,-1,27
 1287 130 1287 130 1232.5 82 c 128,-1,28
 1178 34 1178 34 1089.5 4 c 128,-1,29
 1001 -26 1001 -26 892 -26 c 0,30,31
 723 -26 723 -26 545 23 c 1,32,-1
 503 34 l 1,33,-1
 617 226 l 1,34,-1
 657 218 l 1,35,36
 819 188 819 188 913 188 c 0,37,38
 1010 188 1010 188 1055 213 c 128,-1,39
 1100 238 1100 238 1114 289 c 0,40,41
 1118 305 1118 305 1118 313 c 0,42,43
 1118 341 1118 341 1095.5 362 c 128,-1,44
 1073 383 1073 383 1037 397 c 128,-1,45
 1001 411 1001 411 957.5 424 c 128,-1,46
 914 437 914 437 871 454 c 128,-1,47
 828 471 828 471 792 492.5 c 128,-1,48
 756 514 756 514 733.5 549 c 128,-1,49
 711 584 711 584 711 630 c 0,50,51
 711 662 711 662 721 698 c 0,52,53
 738 759 738 759 782.5 807.5 c 128,-1,54
 827 856 827 856 879.5 886 c 128,-1,55
 932 916 932 916 982.5 941.5 c 128,-1,56
 1033 967 1033 967 1071.5 994 c 128,-1,57
 1110 1021 1110 1021 1118 1050 c 0,58,59
 1123 1070 1123 1070 1123 1083 c 0,60,61
 1123 1135 1123 1135 1079 1168 c 128,-1,62
 1035 1201 1035 1201 978 1201 c 0,63,64
 964 1201 964 1201 948 1198.5 c 128,-1,65
 932 1196 932 1196 906.5 1189 c 128,-1,66
 881 1182 881 1182 856 1166 c 128,-1,67
 831 1150 831 1150 805.5 1127.5 c 128,-1,68
 780 1105 780 1105 758 1067 c 128,-1,69
 736 1029 736 1029 722 981 c 2,70,-1
 441 0 l 1,71,-1
 195 0 l 1,72,-1
 477 982 l 2,73,74
 504 1075 504 1075 551.5 1151 c 128,-1,75
 599 1227 599 1227 657 1278 c 128,-1,76
 715 1329 715 1329 784 1364 c 128,-1,77
 853 1399 853 1399 923 1414.5 c 128,-1,78
 993 1430 993 1430 1064 1430 c 0,0,1
EndSplineSet
EndChar

StartChar: agrave
Encoding: 224 224 162
Width: 1222
Flags: W
LayerCount: 2
Fore
SplineSet
862 981 m 0,0,1
 1239 981 1239 981 1239 751 c 0,2,3
 1239 700 1239 700 1219 628 c 2,4,-1
 1039 0 l 1,5,-1
 855 0 l 1,6,-1
 846 65 l 1,7,8
 690 -20 690 -20 513 -20 c 0,9,10
 361 -20 361 -20 274.5 45.5 c 128,-1,11
 188 111 188 111 188 208 c 0,12,13
 188 240 188 240 196 267 c 0,14,15
 217 339 217 339 268 393 c 128,-1,16
 319 447 319 447 387 479.5 c 128,-1,17
 455 512 455 512 551 532 c 128,-1,18
 647 552 647 552 741.5 560 c 128,-1,19
 836 568 836 568 955 569 c 1,20,-1
 965 602 l 2,21,22
 975 635 975 635 975 662 c 0,23,24
 975 710 975 710 929.5 737 c 128,-1,25
 884 764 884 764 767 764 c 0,26,27
 645 764 645 764 472 723 c 2,28,-1
 430 713 l 1,29,-1
 435 906 l 1,30,-1
 473 918 l 1,31,32
 658 981 658 981 862 981 c 0,0,1
864 251 m 1,33,-1
 902 384 l 1,34,-1
 878 384 l 2,35,36
 675 384 675 384 569 361 c 128,-1,37
 463 338 463 338 448 285 c 0,38,39
 447 282 447 282 447 275 c 0,40,41
 447 242 447 242 497 216.5 c 128,-1,42
 547 191 547 191 628 191 c 0,43,44
 752 191 752 191 864 251 c 1,33,-1
948 1557 m 1,45,-1
 1307 1162 l 1,46,-1
 1128 992 l 1,47,-1
 728 1376 l 1,48,-1
 948 1557 l 1,45,-1
EndSplineSet
EndChar

StartChar: aacute
Encoding: 225 225 163
Width: 1222
Flags: W
LayerCount: 2
Fore
SplineSet
1237 1567 m 1,0,-1
 1333 1386 l 1,1,-1
 723 1002 l 1,2,-1
 630 1172 l 1,3,-1
 1237 1567 l 1,0,-1
864 251 m 1,4,-1
 902 384 l 1,5,-1
 878 384 l 2,6,7
 675 384 675 384 569 361 c 128,-1,8
 463 338 463 338 448 285 c 0,9,10
 447 282 447 282 447 275 c 0,11,12
 447 242 447 242 497 216.5 c 128,-1,13
 547 191 547 191 628 191 c 0,14,15
 752 191 752 191 864 251 c 1,4,-1
862 981 m 0,16,17
 1239 981 1239 981 1239 751 c 0,18,19
 1239 700 1239 700 1219 628 c 2,20,-1
 1039 0 l 1,21,-1
 855 0 l 1,22,-1
 846 65 l 1,23,24
 690 -20 690 -20 513 -20 c 0,25,26
 361 -20 361 -20 274.5 45.5 c 128,-1,27
 188 111 188 111 188 208 c 0,28,29
 188 240 188 240 196 267 c 0,30,31
 217 339 217 339 268 393 c 128,-1,32
 319 447 319 447 387 479.5 c 128,-1,33
 455 512 455 512 551 532 c 128,-1,34
 647 552 647 552 741.5 560 c 128,-1,35
 836 568 836 568 955 569 c 1,36,-1
 965 602 l 2,37,38
 975 635 975 635 975 662 c 0,39,40
 975 710 975 710 929.5 737 c 128,-1,41
 884 764 884 764 767 764 c 0,42,43
 645 764 645 764 472 723 c 2,44,-1
 430 713 l 1,45,-1
 435 906 l 1,46,-1
 473 918 l 1,47,48
 658 981 658 981 862 981 c 0,16,17
EndSplineSet
EndChar

StartChar: acircumflex
Encoding: 226 226 164
Width: 1222
Flags: W
LayerCount: 2
Fore
SplineSet
1059 1509 m 1,0,-1
 1294 1144 l 1,1,-1
 1098 992 l 1,2,-1
 952 1195 l 1,3,-1
 680 995 l 1,4,-1
 566 1134 l 1,5,-1
 1059 1509 l 1,0,-1
864 251 m 1,6,-1
 902 384 l 1,7,-1
 878 384 l 2,8,9
 675 384 675 384 569 361 c 128,-1,10
 463 338 463 338 448 285 c 0,11,12
 447 282 447 282 447 275 c 0,13,14
 447 242 447 242 497 216.5 c 128,-1,15
 547 191 547 191 628 191 c 0,16,17
 752 191 752 191 864 251 c 1,6,-1
862 981 m 0,18,19
 1239 981 1239 981 1239 751 c 0,20,21
 1239 700 1239 700 1219 628 c 2,22,-1
 1039 0 l 1,23,-1
 855 0 l 1,24,-1
 846 65 l 1,25,26
 690 -20 690 -20 513 -20 c 0,27,28
 361 -20 361 -20 274.5 45.5 c 128,-1,29
 188 111 188 111 188 208 c 0,30,31
 188 240 188 240 196 267 c 0,32,33
 217 339 217 339 268 393 c 128,-1,34
 319 447 319 447 387 479.5 c 128,-1,35
 455 512 455 512 551 532 c 128,-1,36
 647 552 647 552 741.5 560 c 128,-1,37
 836 568 836 568 955 569 c 1,38,-1
 965 602 l 2,39,40
 975 635 975 635 975 662 c 0,41,42
 975 710 975 710 929.5 737 c 128,-1,43
 884 764 884 764 767 764 c 0,44,45
 645 764 645 764 472 723 c 2,46,-1
 430 713 l 1,47,-1
 435 906 l 1,48,-1
 473 918 l 1,49,50
 658 981 658 981 862 981 c 0,18,19
EndSplineSet
EndChar

StartChar: atilde
Encoding: 227 227 165
Width: 1221
Flags: W
LayerCount: 2
Fore
SplineSet
1294 1450 m 1,0,-1
 1474 1417 l 1,1,-1
 1411 1290 l 2,2,3
 1360 1185 1360 1185 1303 1131 c 0,4,5
 1221 1055 1221 1055 1119 1055 c 1,6,7
 1059 1057 1059 1057 1009 1076.5 c 128,-1,8
 959 1096 959 1096 928.5 1122.5 c 128,-1,9
 898 1149 898 1149 874 1174.5 c 128,-1,10
 850 1200 850 1200 830.5 1218 c 128,-1,11
 811 1236 811 1236 794 1236 c 0,12,13
 755 1236 755 1236 709 1143 c 0,14,15
 707 1139 707 1139 706 1137 c 2,16,-1
 661 1048 l 1,17,-1
 479 1076 l 1,18,-1
 542 1204 l 1,19,20
 585 1289 585 1289 625 1334 c 0,21,22
 718 1439 718 1439 845 1439 c 1,23,24
 904 1437 904 1437 954 1417.5 c 128,-1,25
 1004 1398 1004 1398 1035 1371.5 c 128,-1,26
 1066 1345 1066 1345 1090.5 1319 c 128,-1,27
 1115 1293 1115 1293 1134.5 1275 c 128,-1,28
 1154 1257 1154 1257 1170 1257 c 0,29,30
 1181 1257 1181 1257 1192.5 1265.5 c 128,-1,31
 1204 1274 1204 1274 1214 1289 c 128,-1,32
 1224 1304 1224 1304 1230.5 1316 c 128,-1,33
 1237 1328 1237 1328 1244 1342 c 128,-1,34
 1251 1356 1251 1356 1251 1357 c 2,35,-1
 1294 1450 l 1,0,-1
858 251 m 1,36,-1
 896 384 l 1,37,-1
 872 384 l 2,38,39
 672 384 672 384 567.5 361 c 128,-1,40
 463 338 463 338 448 285 c 0,41,42
 447 282 447 282 447 275 c 0,43,44
 447 242 447 242 496 216.5 c 128,-1,45
 545 191 545 191 625 191 c 0,46,47
 747 191 747 191 858 251 c 1,36,-1
859 981 m 0,48,49
 1239 981 1239 981 1239 751 c 0,50,51
 1239 700 1239 700 1219 628 c 2,52,-1
 1039 0 l 1,53,-1
 855 0 l 1,54,-1
 846 65 l 1,55,56
 679 -20 679 -20 511 -20 c 0,57,58
 361 -20 361 -20 274.5 46 c 128,-1,59
 188 112 188 112 188 209 c 0,60,61
 188 240 188 240 196 267 c 0,62,63
 217 339 217 339 268 393 c 128,-1,64
 319 447 319 447 386.5 479.5 c 128,-1,65
 454 512 454 512 549 532 c 128,-1,66
 644 552 644 552 737.5 560 c 128,-1,67
 831 568 831 568 949 569 c 1,68,-1
 959 602 l 2,69,70
 970 639 970 639 970 663 c 0,71,72
 970 710 970 710 925 737 c 128,-1,73
 880 764 880 764 765 764 c 0,74,75
 645 764 645 764 472 723 c 2,76,-1
 430 713 l 1,77,-1
 435 906 l 1,78,-1
 473 918 l 1,79,80
 658 981 658 981 859 981 c 0,48,49
EndSplineSet
EndChar

StartChar: adieresis
Encoding: 228 228 166
Width: 1227
Flags: W
LayerCount: 2
Fore
SplineSet
1184 1421 m 1,0,-1
 1456 1421 l 1,1,-1
 1379 1153 l 1,2,-1
 1107 1153 l 1,3,-1
 1184 1421 l 1,0,-1
663 1421 m 1,4,-1
 966 1421 l 1,5,-1
 890 1153 l 1,6,-1
 587 1153 l 1,7,-1
 663 1421 l 1,4,-1
868 251 m 1,8,-1
 906 384 l 1,9,-1
 882 384 l 2,10,11
 676 384 676 384 569.5 361 c 128,-1,12
 463 338 463 338 448 285 c 0,13,14
 447 282 447 282 447 275 c 0,15,16
 447 242 447 242 498 216.5 c 128,-1,17
 549 191 549 191 630 191 c 0,18,19
 755 191 755 191 868 251 c 1,8,-1
865 981 m 0,20,21
 971 981 971 981 1046.5 964 c 128,-1,22
 1122 947 1122 947 1164.5 915 c 128,-1,23
 1207 883 1207 883 1225.5 843.5 c 128,-1,24
 1244 804 1244 804 1244 752 c 128,-1,25
 1244 700 1244 700 1224 628 c 2,26,-1
 1044 0 l 1,27,-1
 860 0 l 1,28,-1
 851 65 l 1,29,30
 691 -20 691 -20 515 -20 c 0,31,32
 363 -20 363 -20 275.5 46 c 128,-1,33
 188 112 188 112 188 209 c 0,34,35
 188 240 188 240 196 267 c 0,36,37
 211 319 211 319 241.5 361.5 c 128,-1,38
 272 404 272 404 313.5 434.5 c 128,-1,39
 355 465 355 465 411 488.5 c 128,-1,40
 467 512 467 512 526.5 526.5 c 128,-1,41
 586 541 586 541 659.5 550.5 c 128,-1,42
 733 560 733 560 804 564 c 128,-1,43
 875 568 875 568 959 569 c 1,44,-1
 969 602 l 2,45,46
 980 639 980 639 980 662 c 0,47,48
 980 709 980 709 934 736.5 c 128,-1,49
 888 764 888 764 770 764 c 0,50,51
 647 764 647 764 473 723 c 2,52,-1
 430 713 l 1,53,-1
 435 906 l 1,54,-1
 473 918 l 1,55,56
 659 981 659 981 865 981 c 0,20,21
EndSplineSet
EndChar

StartChar: aring
Encoding: 229 229 167
Width: 1227
Flags: W
LayerCount: 2
Fore
SplineSet
1039 1400 m 0,0,1
 980 1400 980 1400 940 1357 c 128,-1,2
 900 1314 900 1314 900 1266 c 0,3,4
 900 1235 900 1235 920 1214.5 c 128,-1,5
 940 1194 940 1194 980 1194 c 0,6,7
 1023 1194 1023 1194 1062 1225.5 c 128,-1,8
 1101 1257 1101 1257 1113 1298 c 0,9,10
 1117 1310 1117 1310 1117 1325 c 0,11,12
 1117 1357 1117 1357 1095.5 1378.5 c 128,-1,13
 1074 1400 1074 1400 1039 1400 c 0,0,1
1087 1573 m 0,14,15
 1191 1573 1191 1573 1250.5 1518.5 c 128,-1,16
 1310 1464 1310 1464 1310 1376 c 0,17,18
 1310 1338 1310 1338 1298 1298 c 0,19,20
 1264 1181 1264 1181 1160.5 1101 c 128,-1,21
 1057 1021 1057 1021 930 1021 c 0,22,23
 822 1021 822 1021 756 1079.5 c 128,-1,24
 690 1138 690 1138 690 1228 c 0,25,26
 690 1264 690 1264 700 1298 c 0,27,28
 732 1412 732 1412 844.5 1492.5 c 128,-1,29
 957 1573 957 1573 1087 1573 c 0,14,15
870 251 m 1,30,-1
 908 384 l 1,31,-1
 883 384 l 2,32,33
 677 384 677 384 570 361 c 128,-1,34
 463 338 463 338 448 285 c 0,35,36
 447 282 447 282 447 275 c 0,37,38
 447 242 447 242 498 216.5 c 128,-1,39
 549 191 549 191 631 191 c 0,40,41
 757 191 757 191 870 251 c 1,30,-1
865 981 m 0,42,43
 1245 981 1245 981 1245 751 c 0,44,45
 1245 700 1245 700 1225 628 c 2,46,-1
 1045 0 l 1,47,-1
 861 0 l 1,48,-1
 851 65 l 1,49,50
 693 -20 693 -20 516 -20 c 0,51,52
 363 -20 363 -20 275.5 46 c 128,-1,53
 188 112 188 112 188 209 c 0,54,55
 188 240 188 240 196 267 c 0,56,57
 217 339 217 339 268.5 393 c 128,-1,58
 320 447 320 447 388.5 479.5 c 128,-1,59
 457 512 457 512 553.5 532 c 128,-1,60
 650 552 650 552 745.5 560 c 128,-1,61
 841 568 841 568 961 569 c 1,62,-1
 970 602 l 2,63,64
 980 635 980 635 980 661 c 0,65,66
 980 709 980 709 934 736.5 c 128,-1,67
 888 764 888 764 770 764 c 0,68,69
 647 764 647 764 473 723 c 2,70,-1
 430 713 l 1,71,-1
 435 906 l 1,72,-1
 473 918 l 1,73,74
 659 981 659 981 865 981 c 0,42,43
EndSplineSet
EndChar

StartChar: ae
Encoding: 230 230 168
Width: 1804
Flags: W
LayerCount: 2
Fore
SplineSet
453 309 m 0,0,1
 450 300 450 300 450 291 c 0,2,3
 450 251 450 251 495.5 222 c 128,-1,4
 541 193 541 193 608 193 c 0,5,6
 714 193 714 193 815 262 c 1,7,-1
 862 423 l 1,8,9
 738 421 738 421 655.5 411 c 128,-1,10
 573 401 573 401 532.5 383.5 c 128,-1,11
 492 366 492 366 476 349.5 c 128,-1,12
 460 333 460 333 453 309 c 0,0,1
1463 757 m 0,13,14
 1365 757 1365 757 1289 709 c 128,-1,15
 1213 661 1213 661 1180 588 c 1,16,-1
 1605 588 l 1,17,18
 1609 608 1609 608 1609 632 c 0,19,20
 1609 757 1609 757 1463 757 c 0,13,14
473 921 m 2,21,22
 661 981 661 981 849 981 c 0,23,24
 1081 981 1081 981 1148 835 c 1,25,26
 1241 903 1241 903 1347.5 942 c 128,-1,27
 1454 981 1454 981 1557 981 c 0,28,29
 1840 981 1840 981 1840 704 c 0,30,31
 1840 593 1840 593 1792 423 c 1,32,-1
 1780 382 l 1,33,-1
 1113 382 l 1,34,-1
 1113 371 l 2,35,36
 1113 293 1113 293 1190.5 243.5 c 128,-1,37
 1268 194 1268 194 1397 194 c 0,38,39
 1482 194 1482 194 1602 228 c 1,40,-1
 1647 240 l 1,41,-1
 1636 51 l 1,42,-1
 1600 39 l 1,43,44
 1427 -20 1427 -20 1269 -20 c 0,45,46
 1159 -20 1159 -20 1066.5 12.5 c 128,-1,47
 974 45 974 45 919 111 c 1,48,49
 748 -20 748 -20 510 -20 c 0,50,51
 372 -20 372 -20 280.5 44.5 c 128,-1,52
 189 109 189 109 189 212 c 0,53,54
 189 240 189 240 199 277 c 0,55,56
 233 396 233 396 359.5 476 c 128,-1,57
 486 556 486 556 687 573 c 0,58,59
 763 580 763 580 907 582 c 1,60,61
 920 623 920 623 920 655 c 0,62,63
 920 779 920 779 747 779 c 0,64,65
 653 779 653 779 488 740 c 1,66,-1
 448 730 l 1,67,-1
 432 908 l 1,68,-1
 473 921 l 2,21,22
EndSplineSet
EndChar

StartChar: ccedilla
Encoding: 231 231 169
Width: 1152
Flags: W
LayerCount: 2
Fore
SplineSet
578 -321 m 1,0,1
 610 -320 610 -320 632 -310 c 128,-1,2
 654 -300 654 -300 658 -285 c 0,3,4
 659 -283 659 -283 659 -279 c 0,5,6
 659 -261 659 -261 627.5 -248.5 c 128,-1,7
 596 -236 596 -236 509 -212 c 0,8,9
 472 -202 472 -202 451 -196 c 2,10,-1
 411 -185 l 1,11,-1
 512 -17 l 1,12,13
 230 38 230 38 230 286 c 0,14,15
 230 361 230 361 256 451 c 0,16,17
 289 565 289 565 348.5 656 c 128,-1,18
 408 747 408 747 479.5 805.5 c 128,-1,19
 551 864 551 864 638.5 903 c 128,-1,20
 726 942 726 942 811.5 958 c 128,-1,21
 897 974 897 974 986 974 c 0,22,23
 1150 974 1150 974 1272 912 c 2,24,-1
 1302 897 l 1,25,-1
 1183 703 l 1,26,-1
 1148 716 l 2,27,28
 1056 751 1056 751 947 751 c 0,29,30
 597 751 597 751 520 479 c 0,31,32
 504 424 504 424 504 378 c 0,33,34
 504 179 504 179 804 179 c 0,35,36
 900 179 900 179 991 209 c 1,37,-1
 1033 222 l 1,38,-1
 1046 38 l 1,39,-1
 1005 24 l 2,40,41
 872 -21 872 -21 751 -30 c 1,42,-1
 726 -72 l 1,43,44
 860 -115 860 -115 860 -218 c 0,45,46
 860 -244 860 -244 851 -276 c 0,47,48
 826 -364 826 -364 737.5 -431 c 128,-1,49
 649 -498 649 -498 526 -498 c 0,50,51
 505 -498 505 -498 481 -495.5 c 128,-1,52
 457 -493 457 -493 440.5 -490.5 c 128,-1,53
 424 -488 424 -488 394.5 -481 c 128,-1,54
 365 -474 365 -474 353.5 -471 c 128,-1,55
 342 -468 342 -468 305.5 -457.5 c 128,-1,56
 269 -447 269 -447 261 -445 c 2,57,-1
 218 -434 l 1,58,-1
 325 -264 l 1,59,-1
 367 -276 l 2,60,61
 528 -321 528 -321 575 -321 c 2,62,-1
 578 -321 l 1,0,1
EndSplineSet
EndChar

StartChar: egrave
Encoding: 232 232 170
Width: 1240
Flags: W
LayerCount: 2
Fore
SplineSet
961 982 m 0,0,1
 1288 982 1288 982 1288 719 c 0,2,3
 1288 632 1288 632 1244 475 c 1,4,-1
 1212 365 l 1,5,-1
 475 365 l 1,6,7
 477 295 477 295 560 244 c 128,-1,8
 643 193 643 193 803 193 c 0,9,10
 917 193 917 193 1040 227 c 1,11,-1
 1083 238 l 1,12,-1
 1077 49 l 1,13,-1
 1038 37 l 1,14,15
 859 -20 859 -20 671 -20 c 0,16,17
 549 -20 549 -20 460.5 5 c 128,-1,18
 372 30 372 30 324 75 c 128,-1,19
 276 120 276 120 254 174.5 c 128,-1,20
 232 229 232 229 232 296 c 0,21,22
 232 369 232 369 256 452 c 0,23,24
 294 586 294 586 369 690 c 128,-1,25
 444 794 444 794 539.5 856.5 c 128,-1,26
 635 919 635 919 741.5 950.5 c 128,-1,27
 848 982 848 982 961 982 c 0,0,1
857 758 m 0,28,29
 742 758 742 758 656.5 704.5 c 128,-1,30
 571 651 571 651 536 571 c 1,31,-1
 1036 571 l 1,32,33
 1042 601 1042 601 1042 627 c 0,34,35
 1042 697 1042 697 994.5 727.5 c 128,-1,36
 947 758 947 758 857 758 c 0,28,29
956 1567 m 1,37,-1
 1314 1172 l 1,38,-1
 1136 1002 l 1,39,-1
 740 1386 l 1,40,-1
 956 1567 l 1,37,-1
EndSplineSet
EndChar

StartChar: eacute
Encoding: 233 233 171
Width: 1240
Flags: W
LayerCount: 2
Fore
SplineSet
961 982 m 0,0,1
 1288 982 1288 982 1288 719 c 0,2,3
 1288 632 1288 632 1244 475 c 1,4,-1
 1212 365 l 1,5,-1
 475 365 l 1,6,7
 477 295 477 295 560 244 c 128,-1,8
 643 193 643 193 803 193 c 0,9,10
 917 193 917 193 1040 227 c 1,11,-1
 1083 238 l 1,12,-1
 1077 49 l 1,13,-1
 1038 37 l 1,14,15
 859 -20 859 -20 671 -20 c 0,16,17
 549 -20 549 -20 460.5 5 c 128,-1,18
 372 30 372 30 324 75 c 128,-1,19
 276 120 276 120 254 174.5 c 128,-1,20
 232 229 232 229 232 296 c 0,21,22
 232 369 232 369 256 452 c 0,23,24
 294 586 294 586 369 690 c 128,-1,25
 444 794 444 794 539.5 856.5 c 128,-1,26
 635 919 635 919 741.5 950.5 c 128,-1,27
 848 982 848 982 961 982 c 0,0,1
857 758 m 0,28,29
 742 758 742 758 656.5 704.5 c 128,-1,30
 571 651 571 651 536 571 c 1,31,-1
 1036 571 l 1,32,33
 1042 601 1042 601 1042 627 c 0,34,35
 1042 697 1042 697 994.5 727.5 c 128,-1,36
 947 758 947 758 857 758 c 0,28,29
1330 1567 m 1,37,-1
 1420 1386 l 1,38,-1
 829 1002 l 1,39,-1
 727 1172 l 1,40,-1
 1330 1567 l 1,37,-1
EndSplineSet
EndChar

StartChar: ecircumflex
Encoding: 234 234 172
Width: 1240
Flags: W
LayerCount: 2
Fore
SplineSet
961 982 m 0,0,1
 1288 982 1288 982 1288 719 c 0,2,3
 1288 632 1288 632 1244 475 c 1,4,-1
 1212 365 l 1,5,-1
 475 365 l 1,6,7
 477 295 477 295 560 244 c 128,-1,8
 643 193 643 193 803 193 c 0,9,10
 917 193 917 193 1040 227 c 1,11,-1
 1083 238 l 1,12,-1
 1077 49 l 1,13,-1
 1038 37 l 1,14,15
 859 -20 859 -20 671 -20 c 0,16,17
 549 -20 549 -20 460.5 5 c 128,-1,18
 372 30 372 30 324 75 c 128,-1,19
 276 120 276 120 254 174.5 c 128,-1,20
 232 229 232 229 232 296 c 0,21,22
 232 369 232 369 256 452 c 0,23,24
 294 586 294 586 369 690 c 128,-1,25
 444 794 444 794 539.5 856.5 c 128,-1,26
 635 919 635 919 741.5 950.5 c 128,-1,27
 848 982 848 982 961 982 c 0,0,1
857 758 m 0,28,29
 742 758 742 758 656.5 704.5 c 128,-1,30
 571 651 571 651 536 571 c 1,31,-1
 1036 571 l 1,32,33
 1042 601 1042 601 1042 627 c 0,34,35
 1042 697 1042 697 994.5 727.5 c 128,-1,36
 947 758 947 758 857 758 c 0,28,29
1143 1509 m 1,37,-1
 1368 1144 l 1,38,-1
 1177 992 l 1,39,-1
 1037 1195 l 1,40,-1
 774 995 l 1,41,-1
 648 1134 l 1,42,-1
 1143 1509 l 1,37,-1
EndSplineSet
EndChar

StartChar: edieresis
Encoding: 235 235 173
Width: 1255
Flags: W
LayerCount: 2
Fore
SplineSet
969 982 m 0,0,1
 1302 982 1302 982 1302 718 c 0,2,3
 1302 630 1302 630 1258 475 c 2,4,-1
 1227 365 l 1,5,-1
 479 365 l 1,6,7
 480 295 480 295 564.5 244 c 128,-1,8
 649 193 649 193 812 193 c 0,9,10
 928 193 928 193 1053 227 c 1,11,-1
 1096 238 l 1,12,-1
 1091 49 l 1,13,-1
 1052 37 l 2,14,15
 870 -20 870 -20 679 -20 c 0,16,17
 554 -20 554 -20 464.5 5 c 128,-1,18
 375 30 375 30 325.5 75.5 c 128,-1,19
 276 121 276 121 254 175.5 c 128,-1,20
 232 230 232 230 232 297 c 0,21,22
 232 370 232 370 256 452 c 0,23,24
 294 586 294 586 369.5 690 c 128,-1,25
 445 794 445 794 542 856.5 c 128,-1,26
 639 919 639 919 747 950.5 c 128,-1,27
 855 982 855 982 969 982 c 0,0,1
863 758 m 0,28,29
 745 758 745 758 658 704 c 128,-1,30
 571 650 571 650 536 571 c 1,31,-1
 1045 571 l 1,32,33
 1051 601 1051 601 1051 626 c 0,34,35
 1051 758 1051 758 863 758 c 0,28,29
695 1421 m 1,36,-1
 997 1421 l 1,37,-1
 920 1153 l 1,38,-1
 618 1153 l 1,39,-1
 695 1421 l 1,36,-1
1209 1421 m 1,40,-1
 1488 1421 l 1,41,-1
 1411 1153 l 1,42,-1
 1132 1153 l 1,43,-1
 1209 1421 l 1,40,-1
EndSplineSet
EndChar

StartChar: igrave
Encoding: 236 236 174
Width: 597
Flags: W
LayerCount: 2
Fore
SplineSet
475 988 m 1,0,-1
 721 988 l 1,1,-1
 438 0 l 1,2,-1
 192 0 l 1,3,-1
 475 988 l 1,0,-1
592 1567 m 1,4,-1
 903 1189 l 1,5,-1
 729 1026 l 1,6,-1
 400 1394 l 1,7,-1
 592 1567 l 1,4,-1
EndSplineSet
EndChar

StartChar: iacute
Encoding: 237 237 175
Width: 597
Flags: W
LayerCount: 2
Fore
SplineSet
473 988 m 1,0,-1
 719 988 l 1,1,-1
 436 0 l 1,2,-1
 190 0 l 1,3,-1
 473 988 l 1,0,-1
978 1567 m 1,4,-1
 1071 1394 l 1,5,-1
 531 1026 l 1,6,-1
 450 1189 l 1,7,-1
 978 1567 l 1,4,-1
EndSplineSet
EndChar

StartChar: icircumflex
Encoding: 238 238 176
Width: 603
Flags: W
LayerCount: 2
Fore
SplineSet
474 988 m 1,0,-1
 720 988 l 1,1,-1
 437 0 l 1,2,-1
 191 0 l 1,3,-1
 474 988 l 1,0,-1
755 1514 m 1,4,-1
 930 1159 l 1,5,-1
 740 1014 l 1,6,-1
 649 1195 l 1,7,-1
 453 1017 l 1,8,-1
 346 1150 l 1,9,-1
 755 1514 l 1,4,-1
EndSplineSet
EndChar

StartChar: idieresis
Encoding: 239 239 177
Width: 606
Flags: W
LayerCount: 2
Fore
SplineSet
463 988 m 1,0,-1
 709 988 l 1,1,-1
 426 0 l 1,2,-1
 180 0 l 1,3,-1
 463 988 l 1,0,-1
392 1421 m 1,4,-1
 659 1421 l 1,5,-1
 583 1154 l 1,6,-1
 316 1154 l 1,7,-1
 392 1421 l 1,4,-1
761 1421 m 1,8,-1
 1028 1421 l 1,9,-1
 952 1154 l 1,10,-1
 685 1154 l 1,11,-1
 761 1421 l 1,8,-1
EndSplineSet
EndChar

StartChar: eth
Encoding: 240 240 178
Width: 1400
Flags: W
LayerCount: 2
Fore
SplineSet
517 522 m 0,0,1
 502 470 502 470 502 424 c 0,2,3
 502 321 502 321 566.5 258.5 c 128,-1,4
 631 196 631 196 733 196 c 0,5,6
 774 196 774 196 817.5 207.5 c 128,-1,7
 861 219 861 219 914 247.5 c 128,-1,8
 967 276 967 276 1018 336.5 c 128,-1,9
 1069 397 1069 397 1106 482 c 0,10,11
 1135 551 1135 551 1169 670 c 2,12,-1
 1180 709 l 1,13,14
 1025 807 1025 807 890 807 c 0,15,16
 764 807 764 807 658.5 728 c 128,-1,17
 553 649 553 649 517 522 c 0,0,1
1003 1457 m 2,18,19
 1167 1414 1167 1414 1287 1321 c 1,20,-1
 1520 1433 l 1,21,-1
 1568 1267 l 1,22,-1
 1401 1184 l 1,23,24
 1458 1087 1458 1087 1458 956 c 0,25,26
 1458 843 1458 843 1412 680 c 0,27,28
 1389 598 1389 598 1363.5 530 c 128,-1,29
 1338 462 1338 462 1301.5 388 c 128,-1,30
 1265 314 1265 314 1222.5 256 c 128,-1,31
 1180 198 1180 198 1122 145 c 128,-1,32
 1064 92 1064 92 996.5 57 c 128,-1,33
 929 22 929 22 841.5 1 c 128,-1,34
 754 -20 754 -20 653 -20 c 0,35,36
 452 -20 452 -20 341 64 c 128,-1,37
 230 148 230 148 230 298 c 0,38,39
 230 362 230 362 251 435 c 0,40,41
 313 652 313 652 494 801.5 c 128,-1,42
 675 951 675 951 905 951 c 0,43,44
 1051 951 1051 951 1203 883 c 1,45,46
 1198 983 1198 983 1133 1061 c 1,47,-1
 892 953 l 1,48,-1
 833 1119 l 1,49,-1
 986 1188 l 1,50,51
 925 1224 925 1224 847 1250 c 2,52,-1
 802 1265 l 1,53,-1
 968 1466 l 1,54,-1
 1003 1457 l 2,18,19
EndSplineSet
EndChar

StartChar: ntilde
Encoding: 241 241 179
Width: 1328
Flags: W
LayerCount: 2
Fore
SplineSet
1378 1455 m 1,0,-1
 1558 1421 l 1,1,-1
 1495 1294 l 1,2,3
 1384 1058 1384 1058 1203 1058 c 1,4,5
 1143 1060 1143 1060 1094 1079.5 c 128,-1,6
 1045 1099 1045 1099 1015 1125.5 c 128,-1,7
 985 1152 985 1152 961.5 1177.5 c 128,-1,8
 938 1203 938 1203 918.5 1221 c 128,-1,9
 899 1239 899 1239 883 1239 c 0,10,11
 845 1239 845 1239 796 1141 c 1,12,-1
 749 1052 l 1,13,-1
 565 1081 l 1,14,-1
 627 1208 l 2,15,16
 677 1311 677 1311 737 1365 c 0,17,18
 822 1442 822 1442 934 1442 c 1,19,20
 993 1440 993 1440 1042.5 1420.5 c 128,-1,21
 1092 1401 1092 1401 1122.5 1374.5 c 128,-1,22
 1153 1348 1153 1348 1176.5 1322.5 c 128,-1,23
 1200 1297 1200 1297 1219 1279 c 128,-1,24
 1238 1261 1238 1261 1253 1261 c 0,25,26
 1264 1261 1264 1261 1275 1269 c 128,-1,27
 1286 1277 1286 1277 1296 1291.5 c 128,-1,28
 1306 1306 1306 1306 1312.5 1317.5 c 128,-1,29
 1319 1329 1319 1329 1326 1344.5 c 128,-1,30
 1333 1360 1333 1360 1334 1362 c 2,31,-1
 1378 1455 l 1,0,-1
452 963 m 1,32,-1
 635 963 l 1,33,-1
 644 895 l 1,34,35
 870 983 870 983 1050 983 c 0,36,37
 1339 983 1339 983 1339 755 c 0,38,39
 1339 679 1339 679 1307 569 c 2,40,-1
 1144 0 l 1,41,-1
 897 0 l 1,42,-1
 1058 562 l 2,43,44
 1071 610 1071 610 1071 638 c 0,45,46
 1071 753 1071 753 899 753 c 0,47,48
 783 753 783 753 622 700 c 1,49,-1
 422 0 l 1,50,-1
 176 0 l 1,51,-1
 452 963 l 1,32,-1
EndSplineSet
EndChar

StartChar: ograve
Encoding: 242 242 180
Width: 1359
Flags: W
LayerCount: 2
Fore
SplineSet
1036 1567 m 1,0,-1
 1389 1172 l 1,1,-1
 1203 1002 l 1,2,-1
 820 1386 l 1,3,-1
 1036 1567 l 1,0,-1
885 760 m 0,4,5
 766 760 766 760 656.5 690.5 c 128,-1,6
 547 621 547 621 511 496 c 0,7,8
 499 452 499 452 499 413 c 0,9,10
 499 319 499 319 564 260.5 c 128,-1,11
 629 202 629 202 743 202 c 0,12,13
 871 202 871 202 977.5 275.5 c 128,-1,14
 1084 349 1084 349 1119 471 c 0,15,16
 1132 514 1132 514 1132 554 c 0,17,18
 1132 652 1132 652 1059.5 706 c 128,-1,19
 987 760 987 760 885 760 c 0,4,5
964 982 m 0,20,21
 1163 982 1163 982 1277.5 895.5 c 128,-1,22
 1392 809 1392 809 1392 649 c 0,23,24
 1392 577 1392 577 1369 499 c 0,25,26
 1300 259 1300 259 1107.5 119.5 c 128,-1,27
 915 -20 915 -20 658 -20 c 0,28,29
 460 -20 460 -20 349 68.5 c 128,-1,30
 238 157 238 157 238 316 c 0,31,32
 238 388 238 388 262 472 c 0,33,34
 330 707 330 707 518.5 844.5 c 128,-1,35
 707 982 707 982 964 982 c 0,20,21
EndSplineSet
EndChar

StartChar: oacute
Encoding: 243 243 181
Width: 1359
Flags: W
LayerCount: 2
Fore
SplineSet
964 982 m 0,0,1
 1163 982 1163 982 1277.5 895.5 c 128,-1,2
 1392 809 1392 809 1392 649 c 0,3,4
 1392 577 1392 577 1369 499 c 0,5,6
 1300 259 1300 259 1107.5 119.5 c 128,-1,7
 915 -20 915 -20 658 -20 c 0,8,9
 460 -20 460 -20 349 68.5 c 128,-1,10
 238 157 238 157 238 316 c 0,11,12
 238 388 238 388 262 472 c 0,13,14
 330 707 330 707 518.5 844.5 c 128,-1,15
 707 982 707 982 964 982 c 0,0,1
885 760 m 0,16,17
 766 760 766 760 656.5 690.5 c 128,-1,18
 547 621 547 621 511 496 c 0,19,20
 499 452 499 452 499 413 c 0,21,22
 499 319 499 319 564 260.5 c 128,-1,23
 629 202 629 202 743 202 c 0,24,25
 871 202 871 202 977.5 275.5 c 128,-1,26
 1084 349 1084 349 1119 471 c 0,27,28
 1132 514 1132 514 1132 554 c 0,29,30
 1132 652 1132 652 1059.5 706 c 128,-1,31
 987 760 987 760 885 760 c 0,16,17
1243 1567 m 1,32,-1
 1355 1386 l 1,33,-1
 752 1002 l 1,34,-1
 660 1172 l 1,35,-1
 1243 1567 l 1,32,-1
EndSplineSet
EndChar

StartChar: ocircumflex
Encoding: 244 244 182
Width: 1359
Flags: W
LayerCount: 2
Fore
SplineSet
964 982 m 0,0,1
 1163 982 1163 982 1277.5 895.5 c 128,-1,2
 1392 809 1392 809 1392 649 c 0,3,4
 1392 577 1392 577 1369 499 c 0,5,6
 1300 259 1300 259 1107.5 119.5 c 128,-1,7
 915 -20 915 -20 658 -20 c 0,8,9
 460 -20 460 -20 349 68.5 c 128,-1,10
 238 157 238 157 238 316 c 0,11,12
 238 388 238 388 262 472 c 0,13,14
 330 707 330 707 518.5 844.5 c 128,-1,15
 707 982 707 982 964 982 c 0,0,1
885 760 m 0,16,17
 766 760 766 760 656.5 690.5 c 128,-1,18
 547 621 547 621 511 496 c 0,19,20
 499 452 499 452 499 413 c 0,21,22
 499 319 499 319 564 260.5 c 128,-1,23
 629 202 629 202 743 202 c 0,24,25
 871 202 871 202 977.5 275.5 c 128,-1,26
 1084 349 1084 349 1119 471 c 0,27,28
 1132 514 1132 514 1132 554 c 0,29,30
 1132 652 1132 652 1059.5 706 c 128,-1,31
 987 760 987 760 885 760 c 0,16,17
1131 1509 m 1,32,-1
 1369 1144 l 1,33,-1
 1163 992 l 1,34,-1
 1025 1195 l 1,35,-1
 768 995 l 1,36,-1
 646 1134 l 1,37,-1
 1131 1509 l 1,32,-1
EndSplineSet
EndChar

StartChar: otilde
Encoding: 245 245 183
Width: 1359
Flags: W
LayerCount: 2
Fore
SplineSet
1356 1454 m 1,0,-1
 1535 1421 l 1,1,-1
 1473 1294 l 2,2,3
 1422 1190 1422 1190 1365 1136 c 0,4,5
 1284 1059 1284 1059 1182 1059 c 1,6,7
 1122 1061 1122 1061 1072.5 1080.5 c 128,-1,8
 1023 1100 1023 1100 992.5 1126.5 c 128,-1,9
 962 1153 962 1153 938 1178.5 c 128,-1,10
 914 1204 914 1204 894.5 1222 c 128,-1,11
 875 1240 875 1240 859 1240 c 0,12,13
 820 1240 820 1240 774 1147 c 0,14,15
 772 1143 772 1143 771 1141 c 2,16,-1
 726 1052 l 1,17,-1
 545 1080 l 1,18,-1
 608 1208 l 1,19,20
 649 1289 649 1289 684 1332 c 1,21,22
 778 1443 778 1443 909 1443 c 1,23,24
 968 1441 968 1441 1017.5 1421.5 c 128,-1,25
 1067 1402 1067 1402 1098 1375.5 c 128,-1,26
 1129 1349 1129 1349 1153.5 1323 c 128,-1,27
 1178 1297 1178 1297 1197.5 1279 c 128,-1,28
 1217 1261 1217 1261 1232 1261 c 0,29,30
 1243 1261 1243 1261 1254.5 1269.5 c 128,-1,31
 1266 1278 1266 1278 1276 1293 c 128,-1,32
 1286 1308 1286 1308 1292.5 1320 c 128,-1,33
 1299 1332 1299 1332 1306 1346 c 128,-1,34
 1313 1360 1313 1360 1313 1361 c 2,35,-1
 1356 1454 l 1,0,-1
885 760 m 0,36,37
 766 760 766 760 656.5 690.5 c 128,-1,38
 547 621 547 621 511 496 c 0,39,40
 499 452 499 452 499 413 c 0,41,42
 499 319 499 319 564 260.5 c 128,-1,43
 629 202 629 202 743 202 c 0,44,45
 871 202 871 202 977.5 275.5 c 128,-1,46
 1084 349 1084 349 1119 471 c 0,47,48
 1132 514 1132 514 1132 554 c 0,49,50
 1132 652 1132 652 1059.5 706 c 128,-1,51
 987 760 987 760 885 760 c 0,36,37
964 982 m 0,52,53
 1163 982 1163 982 1277.5 895.5 c 128,-1,54
 1392 809 1392 809 1392 649 c 0,55,56
 1392 577 1392 577 1369 499 c 0,57,58
 1300 259 1300 259 1107.5 119.5 c 128,-1,59
 915 -20 915 -20 658 -20 c 0,60,61
 460 -20 460 -20 349 68.5 c 128,-1,62
 238 157 238 157 238 316 c 0,63,64
 238 388 238 388 262 472 c 0,65,66
 330 707 330 707 518.5 844.5 c 128,-1,67
 707 982 707 982 964 982 c 0,52,53
EndSplineSet
EndChar

StartChar: odieresis
Encoding: 246 246 184
Width: 1369
Flags: W
LayerCount: 2
Fore
SplineSet
970 982 m 0,0,1
 1172 982 1172 982 1287.5 895 c 128,-1,2
 1403 808 1403 808 1403 648 c 0,3,4
 1403 582 1403 582 1380 499 c 0,5,6
 1311 259 1311 259 1116.5 119.5 c 128,-1,7
 922 -20 922 -20 663 -20 c 0,8,9
 462 -20 462 -20 350 68.5 c 128,-1,10
 238 157 238 157 238 317 c 0,11,12
 238 388 238 388 262 472 c 0,13,14
 330 707 330 707 520.5 844.5 c 128,-1,15
 711 982 711 982 970 982 c 0,0,1
890 760 m 0,16,17
 769 760 769 760 658 690.5 c 128,-1,18
 547 621 547 621 511 496 c 0,19,20
 499 454 499 454 499 414 c 0,21,22
 499 319 499 319 565 260.5 c 128,-1,23
 631 202 631 202 748 202 c 0,24,25
 878 202 878 202 986.5 275.5 c 128,-1,26
 1095 349 1095 349 1130 471 c 0,27,28
 1142 514 1142 514 1142 552 c 0,29,30
 1142 651 1142 651 1068.5 705.5 c 128,-1,31
 995 760 995 760 890 760 c 0,16,17
723 1421 m 1,32,-1
 1022 1421 l 1,33,-1
 945 1153 l 1,34,-1
 646 1153 l 1,35,-1
 723 1421 l 1,32,-1
1226 1421 m 1,36,-1
 1516 1421 l 1,37,-1
 1439 1153 l 1,38,-1
 1149 1153 l 1,39,-1
 1226 1421 l 1,36,-1
EndSplineSet
EndChar

StartChar: divide
Encoding: 247 247 185
Width: 1564
Flags: W
LayerCount: 2
Fore
SplineSet
982 1233 m 1,0,-1
 1289 1233 l 1,1,-1
 1209 956 l 1,2,-1
 902 956 l 1,3,-1
 982 1233 l 1,0,-1
731 360 m 1,4,-1
 1038 360 l 1,5,-1
 959 83 l 1,6,-1
 652 83 l 1,7,-1
 731 360 l 1,4,-1
345 768 m 1,8,-1
 1659 768 l 1,9,-1
 1596 547 l 1,10,-1
 282 547 l 1,11,-1
 345 768 l 1,8,-1
EndSplineSet
EndChar

StartChar: oslash
Encoding: 248 248 186
Width: 1357
Flags: W
LayerCount: 2
Fore
SplineSet
1457 1020 m 1,0,-1
 1522 876 l 1,1,-1
 1368 765 l 1,2,3
 1390 707 1390 707 1390 639 c 128,-1,4
 1390 571 1390 571 1368 495 c 0,5,6
 1299 256 1299 256 1107.5 117.5 c 128,-1,7
 916 -21 916 -21 660 -21 c 0,8,9
 477 -21 477 -21 368 57 c 1,10,-1
 211 -55 l 1,11,-1
 137 63 l 1,12,-1
 276 162 l 1,13,14
 239 231 239 231 239 320 c 0,15,16
 239 392 239 392 263 474 c 0,17,18
 331 708 331 708 519 845 c 128,-1,19
 707 982 707 982 963 982 c 0,20,21
 1179 982 1179 982 1290 880 c 1,22,-1
 1457 1020 l 1,0,-1
885 760 m 0,23,24
 810 760 810 760 736 732 c 128,-1,25
 662 704 662 704 598.5 642 c 128,-1,26
 535 580 535 580 511 495 c 1,27,28
 498 453 498 453 498 411 c 0,29,30
 498 365 498 365 514 329 c 1,31,-1
 1054 710 l 1,32,33
 988 760 988 760 885 760 c 0,23,24
1127 597 m 1,34,-1
 606 229 l 1,35,36
 664 201 664 201 742 201 c 0,37,38
 826 201 826 201 900.5 232.5 c 128,-1,39
 975 264 975 264 1024.5 314.5 c 128,-1,40
 1074 365 1074 365 1102.5 427.5 c 128,-1,41
 1131 490 1131 490 1131 551 c 0,42,43
 1131 577 1131 577 1127 597 c 1,34,-1
EndSplineSet
EndChar

StartChar: ugrave
Encoding: 249 249 187
Width: 1328
Flags: W
LayerCount: 2
Fore
SplineSet
1182 988 m 1,0,-1
 1428 988 l 1,1,-1
 1144 0 l 1,2,-1
 961 0 l 1,3,-1
 951 67 l 1,4,5
 729 -20 729 -20 546 -20 c 0,6,7
 258 -20 258 -20 258 211 c 0,8,9
 258 291 258 291 291 404 c 2,10,-1
 459 988 l 1,11,-1
 705 988 l 1,12,-1
 538 406 l 2,13,14
 525 360 525 360 525 329 c 0,15,16
 525 209 525 209 697 209 c 0,17,18
 814 209 814 209 974 264 c 1,19,-1
 1182 988 l 1,0,-1
974 1567 m 1,20,-1
 1344 1189 l 1,21,-1
 1163 1026 l 1,22,-1
 763 1394 l 1,23,-1
 974 1567 l 1,20,-1
EndSplineSet
EndChar

StartChar: uacute
Encoding: 250 250 188
Width: 1328
Flags: W
LayerCount: 2
Fore
SplineSet
1182 988 m 1,0,-1
 1428 988 l 1,1,-1
 1144 0 l 1,2,-1
 961 0 l 1,3,-1
 951 67 l 1,4,5
 729 -20 729 -20 546 -20 c 0,6,7
 258 -20 258 -20 258 211 c 0,8,9
 258 291 258 291 291 404 c 2,10,-1
 459 988 l 1,11,-1
 705 988 l 1,12,-1
 538 406 l 2,13,14
 525 360 525 360 525 329 c 0,15,16
 525 209 525 209 697 209 c 0,17,18
 814 209 814 209 974 264 c 1,19,-1
 1182 988 l 1,0,-1
1322 1567 m 1,20,-1
 1422 1394 l 1,21,-1
 823 1026 l 1,22,-1
 723 1189 l 1,23,-1
 1322 1567 l 1,20,-1
EndSplineSet
EndChar

StartChar: ucircumflex
Encoding: 251 251 189
Width: 1328
Flags: W
LayerCount: 2
Fore
SplineSet
1182 988 m 1,0,-1
 1428 988 l 1,1,-1
 1144 0 l 1,2,-1
 961 0 l 1,3,-1
 951 67 l 1,4,5
 729 -20 729 -20 546 -20 c 0,6,7
 258 -20 258 -20 258 211 c 0,8,9
 258 291 258 291 291 404 c 2,10,-1
 459 988 l 1,11,-1
 705 988 l 1,12,-1
 538 406 l 2,13,14
 525 360 525 360 525 329 c 0,15,16
 525 209 525 209 697 209 c 0,17,18
 814 209 814 209 974 264 c 1,19,-1
 1182 988 l 1,0,-1
1120 1509 m 1,20,-1
 1363 1161 l 1,21,-1
 1166 1016 l 1,22,-1
 1017 1210 l 1,23,-1
 755 1019 l 1,24,-1
 637 1152 l 1,25,-1
 1120 1509 l 1,20,-1
EndSplineSet
EndChar

StartChar: udieresis
Encoding: 252 252 190
Width: 1335
Flags: W
LayerCount: 2
Fore
SplineSet
1188 988 m 1,0,-1
 1434 988 l 1,1,-1
 1151 0 l 1,2,-1
 968 0 l 1,3,-1
 958 67 l 1,4,5
 733 -20 733 -20 549 -20 c 0,6,7
 258 -20 258 -20 258 212 c 0,8,9
 258 293 258 293 291 404 c 1,10,-1
 459 988 l 1,11,-1
 705 988 l 1,12,-1
 538 406 l 2,13,14
 525 360 525 360 525 330 c 0,15,16
 525 209 525 209 700 209 c 0,17,18
 818 209 818 209 981 264 c 1,19,-1
 1188 988 l 1,0,-1
679 1421 m 1,20,-1
 970 1421 l 1,21,-1
 893 1153 l 1,22,-1
 602 1153 l 1,23,-1
 679 1421 l 1,20,-1
1182 1421 m 1,24,-1
 1471 1421 l 1,25,-1
 1394 1153 l 1,26,-1
 1105 1153 l 1,27,-1
 1182 1421 l 1,24,-1
EndSplineSet
EndChar

StartChar: yacute
Encoding: 253 253 191
Width: 1204
Flags: W
LayerCount: 2
Fore
SplineSet
332 988 m 1,0,-1
 591 988 l 1,1,-1
 700 229 l 1,2,-1
 1215 988 l 1,3,-1
 1474 988 l 1,4,-1
 396 -531 l 1,5,-1
 100 -531 l 1,6,-1
 499 3 l 1,7,-1
 332 988 l 1,0,-1
1347 1567 m 1,8,-1
 1447 1394 l 1,9,-1
 862 1026 l 1,10,-1
 761 1189 l 1,11,-1
 1347 1567 l 1,8,-1
EndSplineSet
EndChar

StartChar: thorn
Encoding: 254 254 192
Width: 1370
Flags: W
LayerCount: 2
Fore
SplineSet
900 755 m 0,0,1
 777 755 777 755 693.5 686.5 c 128,-1,2
 610 618 610 618 564 458 c 0,3,4
 546 399 546 399 546 352 c 0,5,6
 546 199 546 199 745 199 c 0,7,8
 784 199 784 199 826 207 c 128,-1,9
 868 215 868 215 915.5 235 c 128,-1,10
 963 255 963 255 1003.5 285 c 128,-1,11
 1044 315 1044 315 1078 363 c 128,-1,12
 1112 411 1112 411 1129 470 c 0,13,14
 1141 514 1141 514 1141 551 c 0,15,16
 1141 648 1141 648 1070.5 701.5 c 128,-1,17
 1000 755 1000 755 900 755 c 0,0,1
997 978 m 0,18,19
 1183 978 1183 978 1292 890 c 128,-1,20
 1401 802 1401 802 1401 645 c 0,21,22
 1401 579 1401 579 1378 496 c 0,23,24
 1313 269 1313 269 1124.5 123 c 128,-1,25
 936 -23 936 -23 700 -23 c 0,26,27
 559 -23 559 -23 456 43 c 1,28,-1
 291 -531 l 1,29,-1
 33 -531 l 1,30,-1
 593 1421 l 1,31,-1
 851 1421 l 1,32,-1
 704 908 l 1,33,34
 843 978 843 978 997 978 c 0,18,19
EndSplineSet
EndChar

StartChar: ydieresis
Encoding: 255 255 193
Width: 1208
Flags: W
LayerCount: 2
Fore
SplineSet
332 988 m 1,0,-1
 591 988 l 1,1,-1
 700 229 l 1,2,-1
 1220 988 l 1,3,-1
 1479 988 l 1,4,-1
 396 -531 l 1,5,-1
 100 -531 l 1,6,-1
 499 3 l 1,7,-1
 332 988 l 1,0,-1
646 1421 m 1,8,-1
 943 1421 l 1,9,-1
 866 1153 l 1,10,-1
 569 1153 l 1,11,-1
 646 1421 l 1,8,-1
1147 1421 m 1,12,-1
 1439 1421 l 1,13,-1
 1362 1153 l 1,14,-1
 1070 1153 l 1,15,-1
 1147 1421 l 1,12,-1
EndSplineSet
EndChar

StartChar: Amacron
Encoding: 256 256 194
Width: 1547
Flags: W
LayerCount: 2
Fore
SplineSet
1100 1421 m 1,0,-1
 1376 1421 l 1,1,-1
 1531 0 l 1,2,-1
 1272 0 l 1,3,-1
 1220 372 l 1,4,-1
 640 372 l 1,5,-1
 374 0 l 1,6,-1
 130 0 l 1,7,-1
 1100 1421 l 1,0,-1
1198 603 m 1,8,-1
 1147 1130 l 1,9,-1
 793 603 l 1,10,-1
 1198 603 l 1,8,-1
869 1697 m 1,11,-1
 1772 1697 l 1,12,-1
 1711 1486 l 1,13,-1
 808 1486 l 1,14,-1
 869 1697 l 1,11,-1
EndSplineSet
EndChar

StartChar: amacron
Encoding: 257 257 195
Width: 1222
Flags: W
LayerCount: 2
Fore
SplineSet
644 1333 m 1,0,-1
 1329 1333 l 1,1,-1
 1269 1122 l 1,2,-1
 584 1122 l 1,3,-1
 644 1333 l 1,0,-1
864 251 m 1,4,-1
 902 384 l 1,5,-1
 878 384 l 2,6,7
 675 384 675 384 568.5 361 c 128,-1,8
 462 338 462 338 447 285 c 0,9,10
 446 282 446 282 446 276 c 0,11,12
 446 244 446 244 496.5 217.5 c 128,-1,13
 547 191 547 191 628 191 c 0,14,15
 752 191 752 191 864 251 c 1,4,-1
862 982 m 128,-1,17
 1063 982 1063 982 1151 922.5 c 128,-1,18
 1239 863 1239 863 1239 753 c 0,19,20
 1239 697 1239 697 1219 629 c 2,21,-1
 1039 0 l 1,22,-1
 855 0 l 1,23,-1
 846 65 l 1,24,25
 690 -20 690 -20 513 -20 c 0,26,27
 361 -20 361 -20 274.5 45.5 c 128,-1,28
 188 111 188 111 188 208 c 0,29,30
 188 240 188 240 196 267 c 0,31,32
 217 339 217 339 268 393 c 128,-1,33
 319 447 319 447 387.5 480 c 128,-1,34
 456 513 456 513 551.5 533 c 128,-1,35
 647 553 647 553 741.5 561 c 128,-1,36
 836 569 836 569 955 570 c 1,37,-1
 965 602 l 2,38,39
 975 635 975 635 975 662 c 0,40,41
 975 710 975 710 929.5 737 c 128,-1,42
 884 764 884 764 767 764 c 0,43,44
 645 764 645 764 472 723 c 2,45,-1
 430 713 l 1,46,-1
 435 906 l 1,47,-1
 473 918 l 1,48,16
 661 982 661 982 862 982 c 128,-1,17
EndSplineSet
EndChar

StartChar: Abreve
Encoding: 258 258 196
Width: 1547
Flags: W
LayerCount: 2
Fore
SplineSet
879 1794 m 1,0,-1
 1121 1897 l 1,1,-1
 1130 1859 l 2,2,3
 1135 1838 1135 1838 1144.5 1817 c 128,-1,4
 1154 1796 1154 1796 1174.5 1765 c 128,-1,5
 1195 1734 1195 1734 1233 1714.5 c 128,-1,6
 1271 1695 1271 1695 1320 1695 c 0,7,8
 1398 1695 1398 1695 1489.5 1746 c 128,-1,9
 1581 1797 1581 1797 1658 1866 c 2,10,-1
 1693 1897 l 1,11,-1
 1850 1774 l 1,12,-1
 1814 1739 l 1,13,14
 1691 1626 1691 1626 1536.5 1550.5 c 128,-1,15
 1382 1475 1382 1475 1239 1475 c 0,16,17
 1156 1475 1156 1475 1089 1500 c 128,-1,18
 1022 1525 1022 1525 980 1566.5 c 128,-1,19
 938 1608 938 1608 913.5 1657.5 c 128,-1,20
 889 1707 889 1707 883 1761 c 2,21,-1
 879 1794 l 1,0,-1
1198 603 m 1,22,-1
 1147 1130 l 1,23,-1
 793 603 l 1,24,-1
 1198 603 l 1,22,-1
1100 1421 m 1,25,-1
 1376 1421 l 1,26,-1
 1531 0 l 1,27,-1
 1272 0 l 1,28,-1
 1220 372 l 1,29,-1
 640 372 l 1,30,-1
 374 0 l 1,31,-1
 130 0 l 1,32,-1
 1100 1421 l 1,25,-1
EndSplineSet
EndChar

StartChar: abreve
Encoding: 259 259 197
Width: 1220
Flags: W
LayerCount: 2
Fore
SplineSet
546 1349 m 1,0,-1
 770 1463 l 1,1,-1
 778 1421 l 2,2,3
 783 1398 783 1398 792.5 1374.5 c 128,-1,4
 802 1351 802 1351 823.5 1317 c 128,-1,5
 845 1283 845 1283 885 1261.5 c 128,-1,6
 925 1240 925 1240 977 1240 c 0,7,8
 1061 1240 1061 1240 1158 1297.5 c 128,-1,9
 1255 1355 1255 1355 1328 1429 c 2,10,-1
 1362 1463 l 1,11,-1
 1502 1327 l 1,12,-1
 1465 1289 l 1,13,14
 1346 1172 1346 1172 1195.5 1096 c 128,-1,15
 1045 1020 1045 1020 894 1020 c 0,16,17
 806 1020 806 1020 739 1045.5 c 128,-1,18
 672 1071 672 1071 632.5 1114.5 c 128,-1,19
 593 1158 593 1158 572.5 1208.5 c 128,-1,20
 552 1259 552 1259 548 1315 c 2,21,-1
 546 1349 l 1,0,-1
852 251 m 1,22,-1
 890 384 l 1,23,-1
 867 384 l 2,24,25
 669 384 669 384 566 361 c 128,-1,26
 463 338 463 338 448 285 c 0,27,28
 447 282 447 282 447 275 c 0,29,30
 447 242 447 242 495.5 216.5 c 128,-1,31
 544 191 544 191 623 191 c 0,32,33
 742 191 742 191 852 251 c 1,22,-1
854 981 m 0,34,35
 962 981 962 981 1038.5 964 c 128,-1,36
 1115 947 1115 947 1158 915 c 128,-1,37
 1201 883 1201 883 1220 843 c 128,-1,38
 1239 803 1239 803 1239 751 c 0,39,40
 1239 700 1239 700 1219 628 c 2,41,-1
 1039 0 l 1,42,-1
 855 0 l 1,43,-1
 841 65 l 1,44,45
 674 -20 674 -20 508 -20 c 0,46,47
 360 -20 360 -20 274 45.5 c 128,-1,48
 188 111 188 111 188 208 c 0,49,50
 188 240 188 240 196 267 c 0,51,52
 213 327 213 327 250.5 375 c 128,-1,53
 288 423 288 423 342.5 455 c 128,-1,54
 397 487 397 487 461 509.5 c 128,-1,55
 525 532 525 532 606 544.5 c 128,-1,56
 687 557 687 557 765.5 562.5 c 128,-1,57
 844 568 844 568 939 569 c 1,58,-1
 949 602 l 2,59,60
 960 640 960 640 960 664 c 0,61,62
 960 711 960 711 916.5 737.5 c 128,-1,63
 873 764 873 764 761 764 c 0,64,65
 644 764 644 764 472 723 c 2,66,-1
 430 713 l 1,67,-1
 435 906 l 1,68,-1
 473 918 l 1,69,70
 658 981 658 981 854 981 c 0,34,35
EndSplineSet
EndChar

StartChar: Aogonek
Encoding: 260 260 198
Width: 1629
Flags: W
LayerCount: 2
Fore
SplineSet
130 0 m 1,0,-1
 1153 1421 l 1,1,-1
 1404 1421 l 1,2,-1
 1613 0 l 1,3,-1
 1555 0 l 1,4,5
 1480 -2 1480 -2 1413.5 -17.5 c 128,-1,6
 1347 -33 1347 -33 1301.5 -54 c 128,-1,7
 1256 -75 1256 -75 1216 -105 c 128,-1,8
 1176 -135 1176 -135 1153.5 -158.5 c 128,-1,9
 1131 -182 1131 -182 1112 -209.5 c 128,-1,10
 1093 -237 1093 -237 1088.5 -246.5 c 128,-1,11
 1084 -256 1084 -256 1080 -264 c 1,12,13
 1077 -273 1077 -273 1077 -283 c 0,14,15
 1077 -328 1077 -328 1138 -328 c 0,16,17
 1216 -328 1216 -328 1320 -276 c 1,18,-1
 1363 -254 l 1,19,-1
 1403 -413 l 1,20,-1
 1368 -434 l 2,21,22
 1301 -475 1301 -475 1207.5 -509.5 c 128,-1,23
 1114 -544 1114 -544 1021 -544 c 0,24,25
 915 -544 915 -544 852 -494.5 c 128,-1,26
 789 -445 789 -445 789 -363 c 0,27,28
 789 -333 789 -333 798 -300 c 0,29,30
 833 -179 833 -179 991 -58 c 128,-1,31
 1149 63 1149 63 1326 118 c 1,32,-1
 1286 372 l 1,33,-1
 654 372 l 1,34,-1
 374 0 l 1,35,-1
 130 0 l 1,0,-1
1255 603 m 1,36,-1
 1188 1130 l 1,37,-1
 815 603 l 1,38,-1
 1255 603 l 1,36,-1
EndSplineSet
EndChar

StartChar: aogonek
Encoding: 261 261 199
Width: 1228
Flags: W
LayerCount: 2
Fore
SplineSet
918 423 m 1,0,1
 912 423 912 423 885.5 423.5 c 128,-1,2
 859 424 859 424 839 424 c 0,3,4
 486 424 486 424 453 304 c 0,5,6
 451 299 451 299 451 288 c 0,7,8
 451 251 451 251 495.5 225 c 128,-1,9
 540 199 540 199 620 199 c 0,10,11
 742 199 742 199 871 258 c 1,12,-1
 918 423 l 1,0,1
767 752 m 0,13,14
 643 752 643 752 469 711 c 1,15,-1
 427 700 l 1,16,-1
 431 894 l 1,17,-1
 470 906 l 1,18,19
 656 969 656 969 862 969 c 0,20,21
 1243 969 1243 969 1243 739 c 0,22,23
 1243 688 1243 688 1223 616 c 2,24,-1
 1038 -29 l 1,25,-1
 1013 -40 l 2,26,27
 986 -52 986 -52 938 -72.5 c 128,-1,28
 890 -93 890 -93 862 -105.5 c 128,-1,29
 834 -118 834 -118 794.5 -137 c 128,-1,30
 755 -156 755 -156 731 -170.5 c 128,-1,31
 707 -185 707 -185 682 -203.5 c 128,-1,32
 657 -222 657 -222 643 -240.5 c 128,-1,33
 629 -259 629 -259 623 -279 c 0,34,35
 620 -288 620 -288 620 -295 c 0,36,37
 620 -316 620 -316 637.5 -328 c 128,-1,38
 655 -340 655 -340 685 -340 c 0,39,40
 738 -340 738 -340 846 -289 c 2,41,-1
 887 -270 l 1,42,-1
 931 -421 l 1,43,-1
 892 -442 l 1,44,45
 710 -543 710 -543 565 -543 c 0,46,47
 457 -543 457 -543 391.5 -494 c 128,-1,48
 326 -445 326 -445 326 -367 c 0,49,50
 326 -275 326 -275 424 -173 c 128,-1,51
 522 -71 522 -71 723 16 c 1,52,53
 606 -17 606 -17 502 -17 c 0,54,55
 353 -17 353 -17 271 48 c 128,-1,56
 189 113 189 113 189 209 c 0,57,58
 189 317 189 317 291 411.5 c 128,-1,59
 393 506 393 506 580 541 c 1,60,61
 724 565 724 565 960 567 c 1,62,-1
 966 589 l 2,63,64
 977 626 977 626 977 649 c 0,65,66
 977 697 977 697 931 724.5 c 128,-1,67
 885 752 885 752 767 752 c 0,13,14
EndSplineSet
EndChar

StartChar: Cacute
Encoding: 262 262 200
Width: 1615
Flags: W
LayerCount: 2
Fore
SplineSet
1769 1992 m 1,0,-1
 1837 1797 l 1,1,-1
 1091 1461 l 1,2,-1
 1029 1639 l 1,3,-1
 1769 1992 l 1,0,-1
478 709 m 0,4,5
 522 863 522 863 615 995 c 128,-1,6
 708 1127 708 1127 838 1224 c 128,-1,7
 968 1321 968 1321 1137.5 1376 c 128,-1,8
 1307 1431 1307 1431 1495 1431 c 0,9,10
 1720 1431 1720 1431 1898 1352 c 1,11,-1
 1930 1337 l 1,12,-1
 1789 1121 l 1,13,-1
 1755 1134 l 1,14,15
 1580 1199 1580 1199 1423 1199 c 0,16,17
 1299 1199 1299 1199 1182 1158.5 c 128,-1,18
 1065 1118 1065 1118 976 1050 c 128,-1,19
 887 982 887 982 823 894 c 128,-1,20
 759 806 759 806 732 710 c 0,21,22
 713 642 713 642 713 584 c 0,23,24
 713 423 713 423 836 320.5 c 128,-1,25
 959 218 959 218 1183 218 c 0,26,27
 1347 218 1347 218 1527 276 c 2,28,-1
 1568 289 l 1,29,-1
 1593 89 l 1,30,-1
 1551 73 l 2,31,32
 1308 -20 1308 -20 1066 -20 c 0,33,34
 764 -20 764 -20 604.5 120.5 c 128,-1,35
 445 261 445 261 445 492 c 0,36,37
 445 596 445 596 478 709 c 0,4,5
EndSplineSet
EndChar

StartChar: cacute
Encoding: 263 263 201
Width: 1147
Flags: W
LayerCount: 2
Fore
SplineSet
259 461 m 0,0,1
 292 575 292 575 349 665 c 128,-1,2
 406 755 406 755 476 813.5 c 128,-1,3
 546 872 546 872 631.5 910.5 c 128,-1,4
 717 949 717 949 802.5 965 c 128,-1,5
 888 981 888 981 980 981 c 0,6,7
 1147 981 1147 981 1269 919 c 2,8,-1
 1299 904 l 1,9,-1
 1180 711 l 1,10,-1
 1146 724 l 2,11,12
 1056 758 1056 758 943 758 c 0,13,14
 585 758 585 758 509 491 c 0,15,16
 494 437 494 437 494 395 c 0,17,18
 494 197 494 197 804 197 c 0,19,20
 896 197 896 197 991 227 c 1,21,-1
 1033 239 l 1,22,-1
 1045 52 l 1,23,-1
 1004 38 l 1,24,25
 841 -20 841 -20 671 -20 c 0,26,27
 599 -20 599 -20 537 -10.5 c 128,-1,28
 475 -1 475 -1 418 21.5 c 128,-1,29
 361 44 361 44 321 79.5 c 128,-1,30
 281 115 281 115 257 170 c 128,-1,31
 233 225 233 225 233 296 c 0,32,33
 233 371 233 371 259 461 c 0,0,1
1248 1567 m 1,34,-1
 1339 1386 l 1,35,-1
 733 1002 l 1,36,-1
 640 1172 l 1,37,-1
 1248 1567 l 1,34,-1
EndSplineSet
EndChar

StartChar: Ccircumflex
Encoding: 264 264 202
Width: 1615
Flags: W
LayerCount: 2
Fore
SplineSet
478 709 m 0,0,1
 522 863 522 863 615 995 c 128,-1,2
 708 1127 708 1127 838 1224 c 128,-1,3
 968 1321 968 1321 1137.5 1376 c 128,-1,4
 1307 1431 1307 1431 1495 1431 c 0,5,6
 1720 1431 1720 1431 1898 1352 c 1,7,-1
 1930 1337 l 1,8,-1
 1789 1121 l 1,9,-1
 1755 1134 l 1,10,11
 1580 1199 1580 1199 1423 1199 c 0,12,13
 1299 1199 1299 1199 1182 1158.5 c 128,-1,14
 1065 1118 1065 1118 976 1050 c 128,-1,15
 887 982 887 982 823 894 c 128,-1,16
 759 806 759 806 732 710 c 0,17,18
 713 642 713 642 713 584 c 0,19,20
 713 423 713 423 836 320.5 c 128,-1,21
 959 218 959 218 1183 218 c 0,22,23
 1347 218 1347 218 1527 276 c 2,24,-1
 1568 289 l 1,25,-1
 1593 89 l 1,26,-1
 1551 73 l 2,27,28
 1308 -20 1308 -20 1066 -20 c 0,29,30
 764 -20 764 -20 604.5 120.5 c 128,-1,31
 445 261 445 261 445 492 c 0,32,33
 445 596 445 596 478 709 c 0,0,1
1539 1951 m 1,34,-1
 1788 1603 l 1,35,-1
 1576 1458 l 1,36,-1
 1438 1652 l 1,37,-1
 1185 1461 l 1,38,-1
 1056 1594 l 1,39,-1
 1539 1951 l 1,34,-1
EndSplineSet
EndChar

StartChar: ccircumflex
Encoding: 265 265 203
Width: 1147
Flags: W
LayerCount: 2
Fore
SplineSet
259 461 m 0,0,1
 292 575 292 575 349 665 c 128,-1,2
 406 755 406 755 476 813.5 c 128,-1,3
 546 872 546 872 631.5 910.5 c 128,-1,4
 717 949 717 949 802.5 965 c 128,-1,5
 888 981 888 981 980 981 c 0,6,7
 1147 981 1147 981 1269 919 c 2,8,-1
 1299 904 l 1,9,-1
 1180 711 l 1,10,-1
 1146 724 l 2,11,12
 1056 758 1056 758 943 758 c 0,13,14
 585 758 585 758 509 491 c 0,15,16
 494 437 494 437 494 395 c 0,17,18
 494 197 494 197 804 197 c 0,19,20
 896 197 896 197 991 227 c 1,21,-1
 1033 239 l 1,22,-1
 1045 52 l 1,23,-1
 1004 38 l 1,24,25
 841 -20 841 -20 671 -20 c 0,26,27
 599 -20 599 -20 537 -10.5 c 128,-1,28
 475 -1 475 -1 418 21.5 c 128,-1,29
 361 44 361 44 321 79.5 c 128,-1,30
 281 115 281 115 257 170 c 128,-1,31
 233 225 233 225 233 296 c 0,32,33
 233 371 233 371 259 461 c 0,0,1
1087 1517 m 1,34,-1
 1314 1152 l 1,35,-1
 1123 1000 l 1,36,-1
 980 1204 l 1,37,-1
 709 1003 l 1,38,-1
 591 1143 l 1,39,-1
 1087 1517 l 1,34,-1
EndSplineSet
EndChar

StartChar: Cdotaccent
Encoding: 266 266 204
Width: 1615
Flags: W
LayerCount: 2
Fore
SplineSet
1305 1829 m 1,0,-1
 1630 1829 l 1,1,-1
 1547 1537 l 1,2,-1
 1222 1537 l 1,3,-1
 1305 1829 l 1,0,-1
478 709 m 0,4,5
 522 863 522 863 615 995 c 128,-1,6
 708 1127 708 1127 838 1224 c 128,-1,7
 968 1321 968 1321 1137.5 1376 c 128,-1,8
 1307 1431 1307 1431 1495 1431 c 0,9,10
 1720 1431 1720 1431 1898 1352 c 1,11,-1
 1930 1337 l 1,12,-1
 1789 1121 l 1,13,-1
 1755 1134 l 1,14,15
 1580 1199 1580 1199 1423 1199 c 0,16,17
 1299 1199 1299 1199 1182 1158.5 c 128,-1,18
 1065 1118 1065 1118 976 1050 c 128,-1,19
 887 982 887 982 823 894 c 128,-1,20
 759 806 759 806 732 710 c 0,21,22
 713 642 713 642 713 584 c 0,23,24
 713 423 713 423 836 320.5 c 128,-1,25
 959 218 959 218 1183 218 c 0,26,27
 1347 218 1347 218 1527 276 c 2,28,-1
 1568 289 l 1,29,-1
 1593 89 l 1,30,-1
 1551 73 l 2,31,32
 1308 -20 1308 -20 1066 -20 c 0,33,34
 764 -20 764 -20 604.5 120.5 c 128,-1,35
 445 261 445 261 445 492 c 0,36,37
 445 596 445 596 478 709 c 0,4,5
EndSplineSet
EndChar

StartChar: cdotaccent
Encoding: 267 267 205
Width: 1156
Flags: W
LayerCount: 2
Fore
SplineSet
259 461 m 0,0,1
 292 575 292 575 349.5 665 c 128,-1,2
 407 755 407 755 477.5 813.5 c 128,-1,3
 548 872 548 872 634.5 910.5 c 128,-1,4
 721 949 721 949 807 965 c 128,-1,5
 893 981 893 981 986 981 c 0,6,7
 1153 981 1153 981 1277 919 c 2,8,-1
 1307 904 l 1,9,-1
 1189 711 l 1,10,-1
 1154 724 l 2,11,12
 1063 758 1063 758 948 758 c 0,13,14
 585 758 585 758 509 491 c 0,15,16
 494 438 494 438 494 396 c 0,17,18
 494 197 494 197 809 197 c 0,19,20
 903 197 903 197 999 227 c 1,21,-1
 1042 239 l 1,22,-1
 1053 52 l 1,23,-1
 1013 38 l 2,24,25
 848 -20 848 -20 676 -20 c 0,26,27
 603 -20 603 -20 540.5 -10.5 c 128,-1,28
 478 -1 478 -1 420 22 c 128,-1,29
 362 45 362 45 321.5 80.5 c 128,-1,30
 281 116 281 116 257 171.5 c 128,-1,31
 233 227 233 227 233 298 c 0,32,33
 233 373 233 373 259 461 c 0,0,1
906 1421 m 1,34,-1
 1250 1421 l 1,35,-1
 1166 1130 l 1,36,-1
 822 1130 l 1,37,-1
 906 1421 l 1,34,-1
EndSplineSet
EndChar

StartChar: Ccaron
Encoding: 268 268 206
Width: 1615
Flags: W
LayerCount: 2
Fore
SplineSet
478 709 m 0,0,1
 522 863 522 863 615 995 c 128,-1,2
 708 1127 708 1127 838 1224 c 128,-1,3
 968 1321 968 1321 1137.5 1376 c 128,-1,4
 1307 1431 1307 1431 1495 1431 c 0,5,6
 1720 1431 1720 1431 1898 1352 c 1,7,-1
 1930 1337 l 1,8,-1
 1789 1121 l 1,9,-1
 1755 1134 l 1,10,11
 1580 1199 1580 1199 1423 1199 c 0,12,13
 1299 1199 1299 1199 1182 1158.5 c 128,-1,14
 1065 1118 1065 1118 976 1050 c 128,-1,15
 887 982 887 982 823 894 c 128,-1,16
 759 806 759 806 732 710 c 0,17,18
 713 642 713 642 713 584 c 0,19,20
 713 423 713 423 836 320.5 c 128,-1,21
 959 218 959 218 1183 218 c 0,22,23
 1347 218 1347 218 1527 276 c 2,24,-1
 1568 289 l 1,25,-1
 1593 89 l 1,26,-1
 1551 73 l 2,27,28
 1308 -20 1308 -20 1066 -20 c 0,29,30
 764 -20 764 -20 604.5 120.5 c 128,-1,31
 445 261 445 261 445 492 c 0,32,33
 445 596 445 596 478 709 c 0,0,1
1395 1457 m 1,34,-1
 1147 1805 l 1,35,-1
 1358 1950 l 1,36,-1
 1497 1756 l 1,37,-1
 1749 1947 l 1,38,-1
 1874 1814 l 1,39,-1
 1395 1457 l 1,34,-1
EndSplineSet
EndChar

StartChar: ccaron
Encoding: 269 269 207
Width: 1147
Flags: W
LayerCount: 2
Fore
SplineSet
259 461 m 0,0,1
 292 575 292 575 349 665 c 128,-1,2
 406 755 406 755 476 813.5 c 128,-1,3
 546 872 546 872 631.5 910.5 c 128,-1,4
 717 949 717 949 802.5 965 c 128,-1,5
 888 981 888 981 980 981 c 0,6,7
 1147 981 1147 981 1269 919 c 2,8,-1
 1299 904 l 1,9,-1
 1180 711 l 1,10,-1
 1146 724 l 2,11,12
 1056 758 1056 758 943 758 c 0,13,14
 585 758 585 758 509 491 c 0,15,16
 494 437 494 437 494 395 c 0,17,18
 494 197 494 197 804 197 c 0,19,20
 896 197 896 197 991 227 c 1,21,-1
 1033 239 l 1,22,-1
 1045 52 l 1,23,-1
 1004 38 l 1,24,25
 841 -20 841 -20 671 -20 c 0,26,27
 599 -20 599 -20 537 -10.5 c 128,-1,28
 475 -1 475 -1 418 21.5 c 128,-1,29
 361 44 361 44 321 79.5 c 128,-1,30
 281 115 281 115 257 170 c 128,-1,31
 233 225 233 225 233 296 c 0,32,33
 233 371 233 371 259 461 c 0,0,1
905 999 m 1,34,-1
 657 1364 l 1,35,-1
 862 1516 l 1,36,-1
 1011 1313 l 1,37,-1
 1273 1513 l 1,38,-1
 1381 1377 l 1,39,-1
 905 999 l 1,34,-1
EndSplineSet
EndChar

StartChar: Dcaron
Encoding: 270 270 208
Width: 1762
Flags: W
LayerCount: 2
Fore
SplineSet
1309 1458 m 1,0,-1
 1097 1806 l 1,1,-1
 1290 1951 l 1,2,-1
 1410 1757 l 1,3,-1
 1642 1948 l 1,4,-1
 1754 1818 l 1,5,-1
 1309 1458 l 1,0,-1
1142 1189 m 2,6,-1
 883 1189 l 1,7,-1
 609 232 l 1,8,-1
 792 232 l 2,9,10
 861 232 861 232 907 234 c 128,-1,11
 953 236 953 236 1028.5 248 c 128,-1,12
 1104 260 1104 260 1162 281.5 c 128,-1,13
 1220 303 1220 303 1288 346.5 c 128,-1,14
 1356 390 1356 390 1411 452 c 0,15,16
 1512 567 1512 567 1555 719 c 0,17,18
 1577 798 1577 798 1577 864 c 0,19,20
 1577 937 1577 937 1551.5 995.5 c 128,-1,21
 1526 1054 1526 1054 1482.5 1091 c 128,-1,22
 1439 1128 1439 1128 1388 1150.5 c 128,-1,23
 1337 1173 1337 1173 1278 1182 c 0,24,25
 1230 1189 1230 1189 1142 1189 c 2,6,-1
1201 1421 m 2,26,27
 1347 1421 1347 1421 1460.5 1396.5 c 128,-1,28
 1574 1372 1574 1372 1646.5 1330.5 c 128,-1,29
 1719 1289 1719 1289 1766 1229.5 c 128,-1,30
 1813 1170 1813 1170 1832 1105 c 128,-1,31
 1851 1040 1851 1040 1851 964 c 0,32,33
 1851 868 1851 868 1818 752 c 0,34,35
 1792 660 1792 660 1752.5 575 c 128,-1,36
 1713 490 1713 490 1649.5 401.5 c 128,-1,37
 1586 313 1586 313 1506.5 242.5 c 128,-1,38
 1427 172 1427 172 1315 115.5 c 128,-1,39
 1203 59 1203 59 1072 31 c 0,40,41
 923 0 923 0 658 0 c 2,42,-1
 290 0 l 1,43,-1
 697 1421 l 1,44,-1
 1201 1421 l 2,26,27
EndSplineSet
EndChar

StartChar: dcaron
Encoding: 271 271 209
Width: 1710
Flags: W
LayerCount: 2
Fore
SplineSet
1805 1511 m 1,0,-1
 2105 1511 l 1,1,-1
 1749 1016 l 1,2,-1
 1450 1016 l 1,3,-1
 1805 1511 l 1,0,-1
260 466 m 0,4,5
 331 714 331 714 518 848.5 c 128,-1,6
 705 983 705 983 952 983 c 0,7,8
 1067 983 1067 983 1171 949 c 1,9,-1
 1332 1511 l 1,10,-1
 1578 1511 l 1,11,-1
 1145 0 l 1,12,-1
 963 0 l 1,13,-1
 956 46 l 1,14,15
 795 -20 795 -20 632 -20 c 0,16,17
 552 -20 552 -20 483 -3 c 128,-1,18
 414 14 414 14 357 50.5 c 128,-1,19
 300 87 300 87 267 150.5 c 128,-1,20
 234 214 234 214 234 300 c 0,21,22
 234 376 234 376 260 466 c 0,4,5
758 197 m 0,23,24
 855 197 855 197 965 231 c 1,25,-1
 1112 744 l 1,26,27
 1016 772 1016 772 921 772 c 0,28,29
 877 772 877 772 834.5 766 c 128,-1,30
 792 760 792 760 740 741 c 128,-1,31
 688 722 688 722 645.5 692 c 128,-1,32
 603 662 603 662 565.5 609.5 c 128,-1,33
 528 557 528 557 509 489 c 0,34,35
 494 435 494 435 494 393 c 0,36,37
 494 336 494 336 518.5 295.5 c 128,-1,38
 543 255 543 255 584 234.5 c 128,-1,39
 625 214 625 214 667.5 205.5 c 128,-1,40
 710 197 710 197 758 197 c 0,23,24
EndSplineSet
EndChar

StartChar: Dcroat
Encoding: 272 272 210
Width: 1769
Flags: W
LayerCount: 2
Fore
SplineSet
1165 1189 m 2,0,-1
 928 1189 l 1,1,-1
 830 849 l 1,2,-1
 1091 849 l 1,3,-1
 1025 617 l 1,4,-1
 764 617 l 1,5,-1
 654 232 l 1,6,-1
 820 232 l 2,7,8
 885 232 885 232 937.5 235 c 128,-1,9
 990 238 990 238 1063 249 c 128,-1,10
 1136 260 1136 260 1195.5 279.5 c 128,-1,11
 1255 299 1255 299 1321.5 336 c 128,-1,12
 1388 373 1388 373 1439 423 c 128,-1,13
 1490 473 1490 473 1535 548.5 c 128,-1,14
 1580 624 1580 624 1607 719 c 0,15,16
 1628 792 1628 792 1628 861 c 0,17,18
 1628 927 1628 927 1606 982.5 c 128,-1,19
 1584 1038 1584 1038 1534 1086 c 128,-1,20
 1484 1134 1484 1134 1390 1161.5 c 128,-1,21
 1296 1189 1296 1189 1165 1189 c 2,0,-1
742 1421 m 1,22,-1
 1218 1421 l 2,23,24
 1257 1421 1257 1421 1292.5 1419.5 c 128,-1,25
 1328 1418 1328 1418 1381.5 1413 c 128,-1,26
 1435 1408 1435 1408 1481.5 1399 c 128,-1,27
 1528 1390 1528 1390 1582.5 1373 c 128,-1,28
 1637 1356 1637 1356 1681.5 1333 c 128,-1,29
 1726 1310 1726 1310 1768.5 1275 c 128,-1,30
 1811 1240 1811 1240 1840 1196.5 c 128,-1,31
 1869 1153 1869 1153 1886.5 1094 c 128,-1,32
 1904 1035 1904 1035 1904 965 c 0,33,34
 1904 867 1904 867 1871 752 c 0,35,36
 1656 0 1656 0 747 0 c 2,37,-1
 335 0 l 1,38,-1
 512 617 l 1,39,-1
 294 617 l 1,40,-1
 360 849 l 1,41,-1
 578 849 l 1,42,-1
 742 1421 l 1,22,-1
EndSplineSet
EndChar

StartChar: dcroat
Encoding: 273 273 211
Width: 1385
Flags: W
LayerCount: 2
Fore
SplineSet
926 772 m 0,0,1
 883 772 883 772 841 766 c 128,-1,2
 799 760 799 760 748.5 741 c 128,-1,3
 698 722 698 722 656 692 c 128,-1,4
 614 662 614 662 577 609.5 c 128,-1,5
 540 557 540 557 521 489 c 0,6,7
 506 434 506 434 506 392 c 0,8,9
 506 346 506 346 522.5 310.5 c 128,-1,10
 539 275 539 275 564.5 254 c 128,-1,11
 590 233 590 233 625.5 220 c 128,-1,12
 661 207 661 207 694 202 c 128,-1,13
 727 197 727 197 763 197 c 0,14,15
 860 197 860 197 966 231 c 1,16,-1
 1113 744 l 1,17,18
 1019 772 1019 772 926 772 c 0,0,1
957 983 m 0,19,20
 1072 983 1072 983 1172 949 c 1,21,-1
 1208 1078 l 1,22,-1
 908 1078 l 1,23,-1
 969 1289 l 1,24,-1
 1269 1289 l 1,25,-1
 1333 1511 l 1,26,-1
 1579 1511 l 1,27,-1
 1515 1289 l 1,28,-1
 1647 1289 l 1,29,-1
 1586 1078 l 1,30,-1
 1454 1078 l 1,31,-1
 1145 0 l 1,32,-1
 963 0 l 1,33,-1
 957 46 l 1,34,35
 798 -20 798 -20 639 -20 c 0,36,37
 576 -20 576 -20 519.5 -9.5 c 128,-1,38
 463 1 463 1 410 25.5 c 128,-1,39
 357 50 357 50 319 87 c 128,-1,40
 281 124 281 124 258 180 c 128,-1,41
 235 236 235 236 235 306 c 0,42,43
 235 378 235 378 260 466 c 0,44,45
 331 713 331 713 521 848 c 128,-1,46
 711 983 711 983 957 983 c 0,19,20
EndSplineSet
EndChar

StartChar: Emacron
Encoding: 274 274 212
Width: 1447
Flags: W
LayerCount: 2
Fore
SplineSet
290 0 m 1,0,-1
 697 1421 l 1,1,-1
 1694 1421 l 1,2,-1
 1628 1189 l 1,3,-1
 884 1189 l 1,4,-1
 786 848 l 1,5,-1
 1475 848 l 1,6,-1
 1409 616 l 1,7,-1
 720 616 l 1,8,-1
 610 232 l 1,9,-1
 1354 232 l 1,10,-1
 1287 0 l 1,11,-1
 290 0 l 1,0,-1
847 1697 m 1,12,-1
 1744 1697 l 1,13,-1
 1683 1486 l 1,14,-1
 786 1486 l 1,15,-1
 847 1697 l 1,12,-1
EndSplineSet
EndChar

StartChar: emacron
Encoding: 275 275 213
Width: 1240
Flags: W
LayerCount: 2
Fore
SplineSet
256 452 m 0,0,1
 294 586 294 586 369 690 c 128,-1,2
 444 794 444 794 539.5 856.5 c 128,-1,3
 635 919 635 919 741.5 950.5 c 128,-1,4
 848 982 848 982 961 982 c 0,5,6
 1288 982 1288 982 1288 719 c 0,7,8
 1288 632 1288 632 1244 475 c 1,9,-1
 1212 365 l 1,10,-1
 475 365 l 1,11,12
 477 295 477 295 560 244 c 128,-1,13
 643 193 643 193 803 193 c 0,14,15
 917 193 917 193 1040 227 c 1,16,-1
 1083 238 l 1,17,-1
 1077 49 l 1,18,-1
 1038 37 l 1,19,20
 859 -20 859 -20 671 -20 c 0,21,22
 549 -20 549 -20 460.5 5 c 128,-1,23
 372 30 372 30 324 75 c 128,-1,24
 276 120 276 120 254 174.5 c 128,-1,25
 232 229 232 229 232 296 c 0,26,27
 232 369 232 369 256 452 c 0,0,1
857 758 m 0,28,29
 742 758 742 758 656.5 704.5 c 128,-1,30
 571 651 571 651 536 571 c 1,31,-1
 1036 571 l 1,32,33
 1042 601 1042 601 1042 627 c 0,34,35
 1042 697 1042 697 994.5 727.5 c 128,-1,36
 947 758 947 758 857 758 c 0,28,29
642 1333 m 1,37,-1
 1379 1333 l 1,38,-1
 1312 1102 l 1,39,-1
 575 1102 l 1,40,-1
 642 1333 l 1,37,-1
EndSplineSet
EndChar

StartChar: Ebreve
Encoding: 276 276 214
Width: 1447
Flags: W
LayerCount: 2
Fore
SplineSet
1661 1897 m 1,0,-1
 1807 1774 l 1,1,-1
 1771 1739 l 1,2,3
 1634 1608 1634 1608 1484.5 1542.5 c 128,-1,4
 1335 1477 1335 1477 1192 1477 c 0,5,6
 1035 1477 1035 1477 942.5 1552.5 c 128,-1,7
 850 1628 850 1628 839 1761 c 1,8,-1
 836 1794 l 1,9,-1
 1060 1897 l 1,10,-1
 1067 1859 l 1,11,12
 1088 1782 1088 1782 1143 1738.5 c 128,-1,13
 1198 1695 1198 1695 1276 1695 c 0,14,15
 1437 1695 1437 1695 1628 1866 c 1,16,-1
 1661 1897 l 1,0,-1
290 0 m 1,17,-1
 697 1421 l 1,18,-1
 1694 1421 l 1,19,-1
 1628 1189 l 1,20,-1
 884 1189 l 1,21,-1
 786 848 l 1,22,-1
 1475 848 l 1,23,-1
 1409 616 l 1,24,-1
 720 616 l 1,25,-1
 610 232 l 1,26,-1
 1354 232 l 1,27,-1
 1287 0 l 1,28,-1
 290 0 l 1,17,-1
EndSplineSet
EndChar

StartChar: ebreve
Encoding: 277 277 215
Width: 1239
Flags: W
LayerCount: 2
Fore
SplineSet
256 452 m 0,0,1
 294 586 294 586 369 690 c 128,-1,2
 444 794 444 794 539 856.5 c 128,-1,3
 634 919 634 919 739.5 950.5 c 128,-1,4
 845 982 845 982 955 982 c 0,5,6
 1288 982 1288 982 1288 717 c 0,7,8
 1288 630 1288 630 1244 475 c 1,9,-1
 1212 365 l 1,10,-1
 475 365 l 1,11,12
 476 295 476 295 558 244 c 128,-1,13
 640 193 640 193 796 193 c 0,14,15
 917 193 917 193 1040 227 c 1,16,-1
 1083 238 l 1,17,-1
 1077 49 l 1,18,-1
 1038 37 l 1,19,20
 859 -20 859 -20 664 -20 c 0,21,22
 544 -20 544 -20 457 5 c 128,-1,23
 370 30 370 30 322.5 75 c 128,-1,24
 275 120 275 120 253.5 173.5 c 128,-1,25
 232 227 232 227 232 294 c 0,26,27
 232 369 232 369 256 452 c 0,0,1
851 758 m 0,28,29
 738 758 738 758 654.5 704.5 c 128,-1,30
 571 651 571 651 536 571 c 1,31,-1
 1026 571 l 1,32,33
 1032 601 1032 601 1032 626 c 0,34,35
 1032 758 1032 758 851 758 c 0,28,29
603 1349 m 1,36,-1
 830 1463 l 1,37,-1
 838 1421 l 2,38,39
 841 1404 841 1404 847 1386 c 128,-1,40
 853 1368 853 1368 867.5 1340.5 c 128,-1,41
 882 1313 882 1313 902 1292 c 128,-1,42
 922 1271 922 1271 956 1255.5 c 128,-1,43
 990 1240 990 1240 1031 1240 c 0,44,45
 1112 1240 1112 1240 1207.5 1297.5 c 128,-1,46
 1303 1355 1303 1355 1377 1429 c 1,47,-1
 1410 1463 l 1,48,-1
 1548 1327 l 1,49,-1
 1511 1288 l 1,50,51
 1393 1171 1393 1171 1245.5 1095.5 c 128,-1,52
 1098 1020 1098 1020 951 1020 c 0,53,54
 865 1020 865 1020 798 1045.5 c 128,-1,55
 731 1071 731 1071 691.5 1114.5 c 128,-1,56
 652 1158 652 1158 630.5 1208.5 c 128,-1,57
 609 1259 609 1259 605 1315 c 2,58,-1
 603 1349 l 1,36,-1
EndSplineSet
EndChar

StartChar: Edotaccent
Encoding: 278 278 216
Width: 1447
Flags: W
LayerCount: 2
Fore
SplineSet
290 0 m 1,0,-1
 697 1421 l 1,1,-1
 1694 1421 l 1,2,-1
 1628 1189 l 1,3,-1
 884 1189 l 1,4,-1
 786 848 l 1,5,-1
 1475 848 l 1,6,-1
 1409 616 l 1,7,-1
 720 616 l 1,8,-1
 610 232 l 1,9,-1
 1354 232 l 1,10,-1
 1287 0 l 1,11,-1
 290 0 l 1,0,-1
1127 1829 m 1,12,-1
 1475 1829 l 1,13,-1
 1392 1537 l 1,14,-1
 1044 1537 l 1,15,-1
 1127 1829 l 1,12,-1
EndSplineSet
EndChar

StartChar: edotaccent
Encoding: 279 279 217
Width: 1249
Flags: W
LayerCount: 2
Fore
SplineSet
256 452 m 0,0,1
 294 586 294 586 369.5 690 c 128,-1,2
 445 794 445 794 541.5 856.5 c 128,-1,3
 638 919 638 919 745.5 950.5 c 128,-1,4
 853 982 853 982 966 982 c 0,5,6
 1296 982 1296 982 1296 719 c 0,7,8
 1296 630 1296 630 1252 475 c 2,9,-1
 1221 365 l 1,10,-1
 475 365 l 1,11,12
 477 295 477 295 561.5 244 c 128,-1,13
 646 193 646 193 808 193 c 0,14,15
 923 193 923 193 1048 227 c 1,16,-1
 1092 238 l 1,17,-1
 1086 49 l 1,18,-1
 1047 37 l 1,19,20
 866 -20 866 -20 676 -20 c 0,21,22
 552 -20 552 -20 463 5 c 128,-1,23
 374 30 374 30 325 75.5 c 128,-1,24
 276 121 276 121 254 175.5 c 128,-1,25
 232 230 232 230 232 297 c 0,26,27
 232 370 232 370 256 452 c 0,0,1
862 758 m 0,28,29
 744 758 744 758 657.5 704.5 c 128,-1,30
 571 651 571 651 536 571 c 1,31,-1
 1044 571 l 1,32,33
 1050 601 1050 601 1050 626 c 0,34,35
 1050 758 1050 758 862 758 c 0,28,29
915 1421 m 1,36,-1
 1263 1421 l 1,37,-1
 1180 1130 l 1,38,-1
 832 1130 l 1,39,-1
 915 1421 l 1,36,-1
EndSplineSet
EndChar

StartChar: Eogonek
Encoding: 280 280 218
Width: 1447
Flags: W
LayerCount: 2
Fore
SplineSet
697 1421 m 1,0,-1
 1694 1421 l 1,1,-1
 1628 1189 l 1,2,-1
 884 1189 l 1,3,-1
 786 848 l 1,4,-1
 1475 848 l 1,5,-1
 1409 616 l 1,6,-1
 720 616 l 1,7,-1
 610 232 l 1,8,-1
 1354 232 l 1,9,-1
 1301 48 l 1,10,-1
 1280 36 l 2,11,12
 1242 14 1242 14 1181.5 -20.5 c 128,-1,13
 1121 -55 1121 -55 1088.5 -74 c 128,-1,14
 1056 -93 1056 -93 1013 -120.5 c 128,-1,15
 970 -148 970 -148 946.5 -168.5 c 128,-1,16
 923 -189 923 -189 903 -213.5 c 128,-1,17
 883 -238 883 -238 876 -263 c 0,18,19
 873 -274 873 -274 873 -282 c 0,20,21
 873 -328 873 -328 936 -328 c 0,22,23
 997 -328 997 -328 1095 -275 c 1,24,-1
 1139 -252 l 1,25,-1
 1179 -412 l 1,26,-1
 1144 -433 l 2,27,28
 962 -543 962 -543 816 -543 c 0,29,30
 708 -543 708 -543 646.5 -493.5 c 128,-1,31
 585 -444 585 -444 585 -363 c 0,32,33
 585 -278 585 -278 655.5 -181.5 c 128,-1,34
 726 -85 726 -85 864 0 c 1,35,-1
 290 0 l 1,36,-1
 697 1421 l 1,0,-1
EndSplineSet
EndChar

StartChar: eogonek
Encoding: 281 281 219
Width: 1247
Flags: W
LayerCount: 2
Fore
SplineSet
250 432 m 0,0,1
 283 549 283 549 343 642.5 c 128,-1,2
 403 736 403 736 474 796.5 c 128,-1,3
 545 857 545 857 630.5 897.5 c 128,-1,4
 716 938 716 938 798 955 c 128,-1,5
 880 972 880 972 963 972 c 0,6,7
 1057 972 1057 972 1123.5 951.5 c 128,-1,8
 1190 931 1190 931 1225 893 c 128,-1,9
 1260 855 1260 855 1275.5 810.5 c 128,-1,10
 1291 766 1291 766 1291 709 c 0,11,12
 1291 618 1291 618 1246 460 c 2,13,-1
 1214 348 l 1,14,-1
 470 348 l 1,15,16
 471 275 471 275 561.5 226 c 128,-1,17
 652 177 652 177 804 177 c 0,18,19
 924 177 924 177 1042 211 c 2,20,-1
 1086 224 l 1,21,-1
 1079 33 l 1,22,-1
 1040 21 l 1,23,24
 895 -22 895 -22 777.5 -115 c 128,-1,25
 660 -208 660 -208 641 -275 c 0,26,27
 638 -287 638 -287 638 -296 c 0,28,29
 638 -341 638 -341 699 -341 c 0,30,31
 758 -341 758 -341 866 -292 c 1,32,-1
 906 -273 l 1,33,-1
 948 -422 l 1,34,-1
 911 -443 l 2,35,36
 734 -544 734 -544 579 -544 c 0,37,38
 474 -544 474 -544 414 -497.5 c 128,-1,39
 354 -451 354 -451 354 -373 c 0,40,41
 354 -297 354 -297 414 -207.5 c 128,-1,42
 474 -118 474 -118 594 -29 c 1,43,44
 226 5 226 5 226 278 c 0,45,46
 226 346 226 346 250 432 c 0,0,1
858 748 m 0,47,48
 741 748 741 748 654 692 c 128,-1,49
 567 636 567 636 531 554 c 1,50,-1
 1037 554 l 1,51,52
 1044 585 1044 585 1044 613 c 0,53,54
 1044 748 1044 748 858 748 c 0,47,48
EndSplineSet
EndChar

StartChar: Ecaron
Encoding: 282 282 220
Width: 1447
Flags: W
LayerCount: 2
Fore
SplineSet
290 0 m 1,0,-1
 697 1421 l 1,1,-1
 1694 1421 l 1,2,-1
 1628 1189 l 1,3,-1
 884 1189 l 1,4,-1
 786 848 l 1,5,-1
 1475 848 l 1,6,-1
 1409 616 l 1,7,-1
 720 616 l 1,8,-1
 610 232 l 1,9,-1
 1354 232 l 1,10,-1
 1287 0 l 1,11,-1
 290 0 l 1,0,-1
1190 1457 m 1,12,-1
 940 1805 l 1,13,-1
 1139 1950 l 1,14,-1
 1293 1756 l 1,15,-1
 1560 1947 l 1,16,-1
 1678 1814 l 1,17,-1
 1190 1457 l 1,12,-1
EndSplineSet
EndChar

StartChar: ecaron
Encoding: 283 283 221
Width: 1240
Flags: W
LayerCount: 2
Fore
SplineSet
256 452 m 0,0,1
 294 586 294 586 369 690 c 128,-1,2
 444 794 444 794 539.5 856.5 c 128,-1,3
 635 919 635 919 741.5 950.5 c 128,-1,4
 848 982 848 982 961 982 c 0,5,6
 1288 982 1288 982 1288 719 c 0,7,8
 1288 632 1288 632 1244 475 c 1,9,-1
 1212 365 l 1,10,-1
 475 365 l 1,11,12
 477 295 477 295 560 244 c 128,-1,13
 643 193 643 193 803 193 c 0,14,15
 917 193 917 193 1040 227 c 1,16,-1
 1083 238 l 1,17,-1
 1077 49 l 1,18,-1
 1038 37 l 1,19,20
 859 -20 859 -20 671 -20 c 0,21,22
 549 -20 549 -20 460.5 5 c 128,-1,23
 372 30 372 30 324 75 c 128,-1,24
 276 120 276 120 254 174.5 c 128,-1,25
 232 229 232 229 232 296 c 0,26,27
 232 369 232 369 256 452 c 0,0,1
857 758 m 0,28,29
 742 758 742 758 656.5 704.5 c 128,-1,30
 571 651 571 651 536 571 c 1,31,-1
 1036 571 l 1,32,33
 1042 601 1042 601 1042 627 c 0,34,35
 1042 697 1042 697 994.5 727.5 c 128,-1,36
 947 758 947 758 857 758 c 0,28,29
963 999 m 1,37,-1
 714 1364 l 1,38,-1
 926 1516 l 1,39,-1
 1069 1313 l 1,40,-1
 1328 1513 l 1,41,-1
 1435 1377 l 1,42,-1
 963 999 l 1,37,-1
EndSplineSet
EndChar

StartChar: Gcircumflex
Encoding: 284 284 222
Width: 1755
Flags: W
LayerCount: 2
Fore
SplineSet
1664 206 m 1,0,1
 1391 -20 1391 -20 1007 -20 c 0,2,3
 875 -20 875 -20 769.5 7.5 c 128,-1,4
 664 35 664 35 593.5 82 c 128,-1,5
 523 129 523 129 476 195 c 128,-1,6
 429 261 429 261 408 335.5 c 128,-1,7
 387 410 387 410 387 495 c 0,8,9
 387 599 387 599 418 709 c 0,10,11
 459 851 459 851 546 979 c 128,-1,12
 633 1107 633 1107 758.5 1209 c 128,-1,13
 884 1311 884 1311 1056 1371.5 c 128,-1,14
 1228 1432 1228 1432 1421 1432 c 0,15,16
 1703 1432 1703 1432 1893 1306 c 2,17,-1
 1923 1286 l 1,18,-1
 1761 1088 l 1,19,-1
 1730 1107 l 1,20,21
 1668 1143 1668 1143 1570 1171.5 c 128,-1,22
 1472 1200 1472 1200 1364 1200 c 0,23,24
 1221 1200 1221 1200 1080.5 1144.5 c 128,-1,25
 940 1089 940 1089 828 977 c 128,-1,26
 716 865 716 865 674 719 c 0,27,28
 654 652 654 652 654 584 c 0,29,30
 654 416 654 416 780 314.5 c 128,-1,31
 906 213 906 213 1118 213 c 0,32,33
 1302 213 1302 213 1443 296 c 1,34,-1
 1521 569 l 1,35,-1
 1076 569 l 1,36,-1
 1140 791 l 1,37,-1
 1832 791 l 1,38,-1
 1664 206 l 1,0,1
1521 1951 m 1,39,-1
 1765 1603 l 1,40,-1
 1555 1458 l 1,41,-1
 1421 1652 l 1,42,-1
 1169 1461 l 1,43,-1
 1042 1594 l 1,44,-1
 1521 1951 l 1,39,-1
EndSplineSet
EndChar

StartChar: gcircumflex
Encoding: 285 285 223
Width: 1326
Flags: W
LayerCount: 2
Fore
SplineSet
634 1143 m 1,0,-1
 1120 1517 l 1,1,-1
 1360 1152 l 1,2,-1
 1152 1000 l 1,3,-1
 1013 1203 l 1,4,-1
 755 1003 l 1,5,-1
 634 1143 l 1,0,-1
938 983 m 0,6,7
 1066 983 1066 983 1204 920 c 1,8,-1
 1235 963 l 1,9,-1
 1420 963 l 1,10,-1
 1135 -29 l 2,11,12
 1113 -104 1113 -104 1080 -171 c 128,-1,13
 1047 -238 1047 -238 988 -308 c 128,-1,14
 929 -378 929 -378 852.5 -427.5 c 128,-1,15
 776 -477 776 -477 663 -509 c 128,-1,16
 550 -541 550 -541 415 -541 c 0,17,18
 227 -541 227 -541 89 -474 c 1,19,-1
 57 -458 l 1,20,-1
 188 -265 l 1,21,-1
 221 -278 l 1,22,23
 329 -322 329 -322 453 -322 c 0,24,25
 523 -322 523 -322 583.5 -307 c 128,-1,26
 644 -292 644 -292 685 -270.5 c 128,-1,27
 726 -249 726 -249 761.5 -214.5 c 128,-1,28
 797 -180 797 -180 816.5 -153 c 128,-1,29
 836 -126 836 -126 854 -87 c 128,-1,30
 872 -48 872 -48 878 -30.5 c 128,-1,31
 884 -13 884 -13 892 15 c 0,32,33
 894 22 894 22 895 25 c 1,34,35
 757 -20 757 -20 632 -20 c 0,36,37
 551 -20 551 -20 481.5 -1.5 c 128,-1,38
 412 17 412 17 355.5 54.5 c 128,-1,39
 299 92 299 92 267 157 c 128,-1,40
 235 222 235 222 235 308 c 0,41,42
 235 383 235 383 262 479 c 0,43,44
 294 589 294 589 354 678 c 128,-1,45
 414 767 414 767 485 822.5 c 128,-1,46
 556 878 556 878 638.5 915.5 c 128,-1,47
 721 953 721 953 795 968 c 128,-1,48
 869 983 869 983 938 983 c 0,6,7
509 495 m 0,49,50
 495 444 495 444 495 401 c 0,51,52
 495 308 495 308 558.5 252.5 c 128,-1,53
 622 197 622 197 748 197 c 0,54,55
 843 197 843 197 954 232 c 1,56,-1
 1097 732 l 1,57,58
 982 768 982 768 889 768 c 0,59,60
 752 768 752 768 648.5 694 c 128,-1,61
 545 620 545 620 509 495 c 0,49,50
EndSplineSet
EndChar

StartChar: Gbreve
Encoding: 286 286 224
Width: 1755
Flags: W
LayerCount: 2
Fore
SplineSet
1015 1794 m 1,0,-1
 1256 1897 l 1,1,-1
 1266 1859 l 2,2,3
 1270 1843 1270 1843 1275.5 1827.5 c 128,-1,4
 1281 1812 1281 1812 1296 1786 c 128,-1,5
 1311 1760 1311 1760 1330 1741.5 c 128,-1,6
 1349 1723 1349 1723 1382.5 1709 c 128,-1,7
 1416 1695 1416 1695 1456 1695 c 0,8,9
 1534 1695 1534 1695 1625.5 1746 c 128,-1,10
 1717 1797 1717 1797 1794 1866 c 2,11,-1
 1829 1897 l 1,12,-1
 1981 1774 l 1,13,-1
 1945 1739 l 1,14,15
 1829 1628 1829 1628 1675.5 1551.5 c 128,-1,16
 1522 1475 1522 1475 1376 1475 c 0,17,18
 1293 1475 1293 1475 1226 1500 c 128,-1,19
 1159 1525 1159 1525 1116.5 1566.5 c 128,-1,20
 1074 1608 1074 1608 1049.5 1657.5 c 128,-1,21
 1025 1707 1025 1707 1019 1761 c 2,22,-1
 1015 1794 l 1,0,-1
1664 206 m 1,23,24
 1391 -20 1391 -20 1007 -20 c 0,25,26
 847 -20 847 -20 725 19.5 c 128,-1,27
 603 59 603 59 530 129.5 c 128,-1,28
 457 200 457 200 421 290 c 128,-1,29
 385 380 385 380 385 487 c 0,30,31
 385 587 385 587 416 697 c 0,32,33
 448 809 448 809 508.5 914.5 c 128,-1,34
 569 1020 569 1020 661 1114.5 c 128,-1,35
 753 1209 753 1209 865 1279.5 c 128,-1,36
 977 1350 977 1350 1121 1391 c 128,-1,37
 1265 1432 1265 1432 1421 1432 c 0,38,39
 1703 1432 1703 1432 1893 1306 c 2,40,-1
 1923 1286 l 1,41,-1
 1761 1088 l 1,42,-1
 1730 1107 l 1,43,44
 1668 1143 1668 1143 1570 1171.5 c 128,-1,45
 1472 1200 1472 1200 1364 1200 c 0,46,47
 1221 1200 1221 1200 1080.5 1144.5 c 128,-1,48
 940 1089 940 1089 828 977 c 128,-1,49
 716 865 716 865 674 719 c 0,50,51
 654 652 654 652 654 584 c 0,52,53
 654 416 654 416 780 314.5 c 128,-1,54
 906 213 906 213 1118 213 c 0,55,56
 1302 213 1302 213 1443 296 c 1,57,-1
 1521 569 l 1,58,-1
 1076 569 l 1,59,-1
 1140 791 l 1,60,-1
 1832 791 l 1,61,-1
 1664 206 l 1,23,24
EndSplineSet
EndChar

